<svg width="676" height="155" viewBox="0 0 676 155" fill="none" xmlns="http://www.w3.org/2000/svg">
<g filter="url(#filter0_b_1_4)">
<path d="M77.4443 1.17456C35.2882 1.17456 1.07959 35.3832 1.07959 77.5393C1.07959 119.695 35.2882 153.904 77.4443 153.904C119.6 153.904 153.809 119.695 153.809 77.5393C153.809 35.3832 119.485 1.17456 77.4443 1.17456ZM77.4443 143.653C40.8169 143.653 11.2155 114.051 11.2155 77.5393C11.2155 41.027 40.8169 11.3104 77.4443 11.3104C113.957 11.3104 143.673 40.9118 143.673 77.5393C143.558 114.051 113.957 143.653 77.4443 143.653Z" fill="#394D46" fill-opacity="0.1"/>
<path d="M101.171 59.6863C94.3758 66.4819 93.224 76.733 97.6009 84.7956L83.2033 99.1932V69.2463C92.0722 66.7123 98.5223 58.5345 98.5223 48.9745C98.5223 37.3412 89.0775 27.7813 77.3291 27.7813C65.6959 27.7813 56.1359 37.2261 56.1359 48.9745C56.1359 58.6496 62.586 66.7123 71.4549 69.2463V99.078L57.1725 84.7956C61.6646 76.733 60.3976 66.4819 53.6019 59.6863C45.3089 51.3933 31.948 51.3933 23.655 59.6863C15.362 67.9793 15.362 81.3402 23.655 89.6332C30.4506 96.4289 40.8169 97.5807 48.7643 93.2038L71.4549 115.894V137.088H83.2033V115.779L105.894 93.0886C113.957 97.5807 124.208 96.3137 131.003 89.518C139.296 81.225 139.296 67.8641 131.003 59.5711C122.825 51.3933 109.464 51.3933 101.171 59.6863Z" fill="#394D46" fill-opacity="0.1"/>
<path d="M186.334 17.3765H222.156C237.014 17.3765 246.804 27.282 246.804 42.0251V77.6159C246.804 92.359 237.014 102.265 222.156 102.265H186.334C184.492 102.265 183.225 100.998 183.225 99.1546V20.4863C183.225 18.6434 184.492 17.3765 186.334 17.3765ZM201.308 84.9874H222.04C226.072 84.9874 228.836 82.3383 228.836 78.1918V41.4492C228.836 37.4179 226.072 34.6535 222.04 34.6535H201.308V84.9874Z" fill="#394D46" fill-opacity="0.1"/>
<path d="M299.699 17.3765H316.17L293.019 68.5166V99.5002C293.019 101.343 291.752 102.495 289.909 102.495H278.045C276.202 102.495 274.935 101.343 274.935 99.5002V68.5166L251.784 17.3765H268.255C269.983 17.3765 271.48 18.5283 271.941 20.0256L283.919 47.4386L295.898 20.0256C296.474 18.5283 297.971 17.3765 299.699 17.3765Z" fill="#394D46" fill-opacity="0.1"/>
<path d="M329.181 17.3765H366.384C380.436 17.3765 389.651 26.7061 389.651 40.7581V45.8261C389.651 59.7629 380.436 68.4014 366.384 68.4014H344.154V99.5002C344.154 101.343 342.887 102.495 341.044 102.495H329.181C327.338 102.495 326.071 101.343 326.071 99.5002V20.4863C326.071 18.6434 327.338 17.3765 329.181 17.3765ZM366.269 34.6535H344.154V51.1244H366.269C369.494 51.1244 371.682 49.0511 371.682 45.7109V40.067C371.682 36.842 369.494 34.6535 366.269 34.6535Z" fill="#394D46" fill-opacity="0.1"/>
<path d="M403.174 99.6154V20.0256C403.174 18.2979 404.326 17.1461 406.169 17.1461H418.378C420.106 17.1461 421.258 18.2979 421.258 20.0256V51.2395H448.786V20.0256C448.786 18.2979 449.938 17.1461 451.665 17.1461H463.875C465.602 17.1461 466.754 18.2979 466.754 20.0256V99.6154C466.754 101.343 465.602 102.495 463.875 102.495H451.665C449.938 102.495 448.786 101.343 448.786 99.6154V68.5166H421.258V99.6154C421.258 101.343 420.106 102.495 418.378 102.495H406.169C404.326 102.495 403.174 101.343 403.174 99.6154Z" fill="#394D46" fill-opacity="0.1"/>
<path d="M478.754 81.7624L510.313 31.6588V20.4863C510.313 18.6434 511.58 17.3765 513.423 17.3765H525.286C527.129 17.3765 528.396 18.6434 528.396 20.4863V34.1928C528.396 35.4598 527.82 36.9571 527.129 37.8786L495.685 88.0973V99.5002C495.685 101.343 494.418 102.61 492.575 102.61H480.712C478.869 102.61 477.602 101.343 477.602 99.5002V85.4482C477.602 84.2964 478.062 82.799 478.754 81.7624Z" fill="#394D46" fill-opacity="0.1"/>
<path d="M583.158 99.7305L566.227 68.4014H557.243V99.5002C557.243 101.343 555.976 102.495 554.133 102.495H542.269C540.426 102.495 539.159 101.343 539.159 99.5002V20.4863C539.159 18.6434 540.426 17.3765 542.269 17.3765H579.473C593.525 17.3765 602.739 26.7061 602.739 40.7581V45.8261C602.739 57.8048 595.943 65.7523 585.232 67.8255L604.006 102.495H587.766C585.923 102.495 584.08 101.458 583.158 99.7305ZM579.357 34.6535H557.243V51.1244H579.357C582.583 51.1244 584.771 49.0511 584.771 45.7109V40.067C584.771 36.842 582.583 34.6535 579.357 34.6535Z" fill="#394D46" fill-opacity="0.1"/>
<path d="M652.449 19.7953L674.909 102.265H659.014C657.401 102.265 656.134 101.228 655.789 99.7305L653.255 89.3643H632.522L629.873 99.7305C629.528 101.228 628.261 102.265 626.648 102.265H610.868L633.329 19.7953C633.674 18.4131 634.941 17.3765 636.323 17.3765H649.339C650.836 17.3765 652.103 18.4131 652.449 19.7953ZM636.784 72.4328H648.993L642.888 48.0145L636.784 72.4328Z" fill="#394D46" fill-opacity="0.1"/>
<path d="M184.383 137.704H189.801V121.699H184.383C184.106 121.699 183.94 121.533 183.94 121.284V120.206C183.94 119.929 184.106 119.763 184.383 119.763H197.181C197.458 119.763 197.624 119.929 197.624 120.206V121.284C197.624 121.533 197.458 121.699 197.181 121.699H191.791V137.704H197.181C197.458 137.704 197.624 137.87 197.624 138.146V139.197C197.624 139.473 197.458 139.639 197.181 139.639H184.383C184.106 139.639 183.94 139.473 183.94 139.197V138.146C183.94 137.87 184.106 137.704 184.383 137.704Z" fill="#394D46" fill-opacity="0.1"/>
<path d="M204.487 120.04C204.487 119.791 204.653 119.625 204.929 119.625H206.063C206.256 119.625 206.422 119.708 206.532 119.874L216.125 135.741V120.04C216.125 119.791 216.291 119.625 216.567 119.625H217.7C217.949 119.625 218.115 119.791 218.115 120.04V139.363C218.115 139.611 217.949 139.777 217.7 139.777H216.567C216.374 139.777 216.208 139.694 216.097 139.528L206.477 123.661V139.363C206.477 139.611 206.311 139.777 206.063 139.777H204.929C204.653 139.777 204.487 139.611 204.487 139.363V120.04Z" fill="#394D46" fill-opacity="0.1"/>
<path d="M225.019 121.284V120.206C225.019 119.929 225.185 119.763 225.433 119.763H238.26C238.509 119.763 238.675 119.929 238.675 120.206V121.284C238.675 121.533 238.509 121.699 238.26 121.699H232.869V139.363C232.869 139.611 232.676 139.777 232.427 139.777H231.294C231.045 139.777 230.852 139.611 230.852 139.363V121.699H225.433C225.185 121.699 225.019 121.533 225.019 121.284Z" fill="#394D46" fill-opacity="0.1"/>
<path d="M246.008 119.763H258.806C259.083 119.763 259.249 119.929 259.249 120.206V121.284C259.249 121.533 259.083 121.699 258.806 121.699H247.556V128.748H258.254C258.53 128.748 258.696 128.913 258.696 129.19V130.24C258.696 130.489 258.53 130.655 258.254 130.655H247.556V137.704H258.806C259.083 137.704 259.249 137.87 259.249 138.146V139.197C259.249 139.473 259.083 139.639 258.806 139.639H246.008C245.731 139.639 245.565 139.473 245.565 139.197V120.206C245.565 119.929 245.731 119.763 246.008 119.763Z" fill="#394D46" fill-opacity="0.1"/>
<path d="M267.589 139.197V120.04C267.589 119.791 267.755 119.625 268.032 119.625H269.165C269.414 119.625 269.58 119.791 269.58 120.04V137.704H280.83C281.107 137.704 281.273 137.87 281.273 138.146V139.197C281.273 139.473 281.107 139.639 280.83 139.639H268.032C267.755 139.639 267.589 139.473 267.589 139.197Z" fill="#394D46" fill-opacity="0.1"/>
<path d="M288.155 139.197V120.04C288.155 119.791 288.321 119.625 288.598 119.625H289.731C289.98 119.625 290.146 119.791 290.146 120.04V137.704H301.397C301.673 137.704 301.839 137.87 301.839 138.146V139.197C301.839 139.473 301.673 139.639 301.397 139.639H288.598C288.321 139.639 288.155 139.473 288.155 139.197Z" fill="#394D46" fill-opacity="0.1"/>
<path d="M307.699 137.704H313.117V121.699H307.699C307.422 121.699 307.257 121.533 307.257 121.284V120.206C307.257 119.929 307.422 119.763 307.699 119.763H320.498C320.774 119.763 320.94 119.929 320.94 120.206V121.284C320.94 121.533 320.774 121.699 320.498 121.699H315.107V137.704H320.498C320.774 137.704 320.94 137.87 320.94 138.146V139.197C320.94 139.473 320.774 139.639 320.498 139.639H307.699C307.422 139.639 307.257 139.473 307.257 139.197V138.146C307.257 137.87 307.422 137.704 307.699 137.704Z" fill="#394D46" fill-opacity="0.1"/>
<path d="M341.21 129.107V134.995C341.21 137.925 339.22 139.915 336.262 139.915H332.475C329.545 139.915 327.554 137.925 327.554 134.995V124.214C327.554 121.284 329.545 119.294 332.475 119.294H336.262C339.22 119.294 341.21 121.284 341.21 124.214V125.32C341.21 125.513 341.072 125.652 340.851 125.652H339.552C339.33 125.652 339.192 125.513 339.192 125.32V124.159C339.192 122.417 338.031 121.229 336.262 121.229H332.503C330.733 121.229 329.545 122.417 329.545 124.159V135.05C329.545 136.819 330.733 137.98 332.503 137.98H336.262C338.031 137.98 339.192 136.819 339.192 135.05V130.627H334.742C334.465 130.627 334.299 130.461 334.299 130.185V129.107C334.299 128.858 334.465 128.692 334.742 128.692H340.768C341.017 128.692 341.21 128.858 341.21 129.107Z" fill="#394D46" fill-opacity="0.1"/>
<path d="M349.756 119.763H362.555C362.832 119.763 362.998 119.929 362.998 120.206V121.284C362.998 121.533 362.832 121.699 362.555 121.699H351.304V128.748H362.002C362.279 128.748 362.445 128.913 362.445 129.19V130.24C362.445 130.489 362.279 130.655 362.002 130.655H351.304V137.704H362.555C362.832 137.704 362.998 137.87 362.998 138.146V139.197C362.998 139.473 362.832 139.639 362.555 139.639H349.756C349.48 139.639 349.314 139.473 349.314 139.197V120.206C349.314 119.929 349.48 119.763 349.756 119.763Z" fill="#394D46" fill-opacity="0.1"/>
<path d="M371.338 120.04C371.338 119.791 371.504 119.625 371.78 119.625H372.914C373.107 119.625 373.273 119.708 373.384 119.874L382.976 135.741V120.04C382.976 119.791 383.142 119.625 383.418 119.625H384.552C384.8 119.625 384.966 119.791 384.966 120.04V139.363C384.966 139.611 384.8 139.777 384.552 139.777H383.418C383.225 139.777 383.059 139.694 382.948 139.528L373.328 123.661V139.363C373.328 139.611 373.163 139.777 372.914 139.777H371.78C371.504 139.777 371.338 139.611 371.338 139.363V120.04Z" fill="#394D46" fill-opacity="0.1"/>
<path d="M406.742 133.834V134.995C406.742 137.925 404.752 139.915 401.794 139.915H398.007C395.077 139.915 393.086 137.925 393.086 134.995V124.214C393.086 121.284 395.077 119.294 398.007 119.294H401.794C404.752 119.294 406.742 121.284 406.742 124.214V125.32C406.742 125.513 406.604 125.652 406.383 125.652H405.084C404.862 125.652 404.724 125.513 404.724 125.32V124.159C404.724 122.417 403.563 121.229 401.794 121.229H398.034C396.265 121.229 395.077 122.417 395.077 124.159V135.05C395.077 136.819 396.265 137.98 398.034 137.98H401.794C403.563 137.98 404.724 136.819 404.724 135.05V133.834C404.724 133.613 404.862 133.502 405.084 133.502H406.383C406.604 133.502 406.742 133.613 406.742 133.834Z" fill="#394D46" fill-opacity="0.1"/>
<path d="M415.289 119.763H428.087C428.364 119.763 428.53 119.929 428.53 120.206V121.284C428.53 121.533 428.364 121.699 428.087 121.699H416.836V128.748H427.534C427.811 128.748 427.977 128.913 427.977 129.19V130.24C427.977 130.489 427.811 130.655 427.534 130.655H416.836V137.704H428.087C428.364 137.704 428.53 137.87 428.53 138.146V139.197C428.53 139.473 428.364 139.639 428.087 139.639H415.289C415.012 139.639 414.846 139.473 414.846 139.197V120.206C414.846 119.929 415.012 119.763 415.289 119.763Z" fill="#394D46" fill-opacity="0.1"/>
<path d="M77.4443 1.17456C35.2882 1.17456 1.07959 35.3832 1.07959 77.5393C1.07959 119.695 35.2882 153.904 77.4443 153.904C119.6 153.904 153.809 119.695 153.809 77.5393C153.809 35.3832 119.485 1.17456 77.4443 1.17456ZM77.4443 143.653C40.8169 143.653 11.2155 114.051 11.2155 77.5393C11.2155 41.027 40.8169 11.3104 77.4443 11.3104C113.957 11.3104 143.673 40.9118 143.673 77.5393C143.558 114.051 113.957 143.653 77.4443 143.653Z" stroke="#394D46" stroke-opacity="0.5" stroke-width="0.5"/>
<path d="M101.171 59.6863C94.3758 66.4819 93.224 76.733 97.6009 84.7956L83.2033 99.1932V69.2463C92.0722 66.7123 98.5223 58.5345 98.5223 48.9745C98.5223 37.3412 89.0775 27.7813 77.3291 27.7813C65.6959 27.7813 56.1359 37.2261 56.1359 48.9745C56.1359 58.6496 62.586 66.7123 71.4549 69.2463V99.078L57.1725 84.7956C61.6646 76.733 60.3976 66.4819 53.6019 59.6863C45.3089 51.3933 31.948 51.3933 23.655 59.6863C15.362 67.9793 15.362 81.3402 23.655 89.6332C30.4506 96.4289 40.8169 97.5807 48.7643 93.2038L71.4549 115.894V137.088H83.2033V115.779L105.894 93.0886C113.957 97.5807 124.208 96.3137 131.003 89.518C139.296 81.225 139.296 67.8641 131.003 59.5711C122.825 51.3933 109.464 51.3933 101.171 59.6863Z" stroke="#394D46" stroke-opacity="0.5" stroke-width="0.5"/>
<path d="M186.334 17.3765H222.156C237.014 17.3765 246.804 27.282 246.804 42.0251V77.6159C246.804 92.359 237.014 102.265 222.156 102.265H186.334C184.492 102.265 183.225 100.998 183.225 99.1546V20.4863C183.225 18.6434 184.492 17.3765 186.334 17.3765ZM201.308 84.9874H222.04C226.072 84.9874 228.836 82.3383 228.836 78.1918V41.4492C228.836 37.4179 226.072 34.6535 222.04 34.6535H201.308V84.9874Z" stroke="#394D46" stroke-opacity="0.5" stroke-width="0.5"/>
<path d="M299.699 17.3765H316.17L293.019 68.5166V99.5002C293.019 101.343 291.752 102.495 289.909 102.495H278.045C276.202 102.495 274.935 101.343 274.935 99.5002V68.5166L251.784 17.3765H268.255C269.983 17.3765 271.48 18.5283 271.941 20.0256L283.919 47.4386L295.898 20.0256C296.474 18.5283 297.971 17.3765 299.699 17.3765Z" stroke="#394D46" stroke-opacity="0.5" stroke-width="0.5"/>
<path d="M329.181 17.3765H366.384C380.436 17.3765 389.651 26.7061 389.651 40.7581V45.8261C389.651 59.7629 380.436 68.4014 366.384 68.4014H344.154V99.5002C344.154 101.343 342.887 102.495 341.044 102.495H329.181C327.338 102.495 326.071 101.343 326.071 99.5002V20.4863C326.071 18.6434 327.338 17.3765 329.181 17.3765ZM366.269 34.6535H344.154V51.1244H366.269C369.494 51.1244 371.682 49.0511 371.682 45.7109V40.067C371.682 36.842 369.494 34.6535 366.269 34.6535Z" stroke="#394D46" stroke-opacity="0.5" stroke-width="0.5"/>
<path d="M403.174 99.6154V20.0256C403.174 18.2979 404.326 17.1461 406.169 17.1461H418.378C420.106 17.1461 421.258 18.2979 421.258 20.0256V51.2395H448.786V20.0256C448.786 18.2979 449.938 17.1461 451.665 17.1461H463.875C465.602 17.1461 466.754 18.2979 466.754 20.0256V99.6154C466.754 101.343 465.602 102.495 463.875 102.495H451.665C449.938 102.495 448.786 101.343 448.786 99.6154V68.5166H421.258V99.6154C421.258 101.343 420.106 102.495 418.378 102.495H406.169C404.326 102.495 403.174 101.343 403.174 99.6154Z" stroke="#394D46" stroke-opacity="0.5" stroke-width="0.5"/>
<path d="M478.754 81.7624L510.313 31.6588V20.4863C510.313 18.6434 511.58 17.3765 513.423 17.3765H525.286C527.129 17.3765 528.396 18.6434 528.396 20.4863V34.1928C528.396 35.4598 527.82 36.9571 527.129 37.8786L495.685 88.0973V99.5002C495.685 101.343 494.418 102.61 492.575 102.61H480.712C478.869 102.61 477.602 101.343 477.602 99.5002V85.4482C477.602 84.2964 478.062 82.799 478.754 81.7624Z" stroke="#394D46" stroke-opacity="0.5" stroke-width="0.5"/>
<path d="M583.158 99.7305L566.227 68.4014H557.243V99.5002C557.243 101.343 555.976 102.495 554.133 102.495H542.269C540.426 102.495 539.159 101.343 539.159 99.5002V20.4863C539.159 18.6434 540.426 17.3765 542.269 17.3765H579.473C593.525 17.3765 602.739 26.7061 602.739 40.7581V45.8261C602.739 57.8048 595.943 65.7523 585.232 67.8255L604.006 102.495H587.766C585.923 102.495 584.08 101.458 583.158 99.7305ZM579.357 34.6535H557.243V51.1244H579.357C582.583 51.1244 584.771 49.0511 584.771 45.7109V40.067C584.771 36.842 582.583 34.6535 579.357 34.6535Z" stroke="#394D46" stroke-opacity="0.5" stroke-width="0.5"/>
<path d="M652.449 19.7953L674.909 102.265H659.014C657.401 102.265 656.134 101.228 655.789 99.7305L653.255 89.3643H632.522L629.873 99.7305C629.528 101.228 628.261 102.265 626.648 102.265H610.868L633.329 19.7953C633.674 18.4131 634.941 17.3765 636.323 17.3765H649.339C650.836 17.3765 652.103 18.4131 652.449 19.7953ZM636.784 72.4328H648.993L642.888 48.0145L636.784 72.4328Z" stroke="#394D46" stroke-opacity="0.5" stroke-width="0.5"/>
<path d="M184.383 137.704H189.801V121.699H184.383C184.106 121.699 183.94 121.533 183.94 121.284V120.206C183.94 119.929 184.106 119.763 184.383 119.763H197.181C197.458 119.763 197.624 119.929 197.624 120.206V121.284C197.624 121.533 197.458 121.699 197.181 121.699H191.791V137.704H197.181C197.458 137.704 197.624 137.87 197.624 138.146V139.197C197.624 139.473 197.458 139.639 197.181 139.639H184.383C184.106 139.639 183.94 139.473 183.94 139.197V138.146C183.94 137.87 184.106 137.704 184.383 137.704Z" stroke="#394D46" stroke-opacity="0.5" stroke-width="0.5"/>
<path d="M204.487 120.04C204.487 119.791 204.653 119.625 204.929 119.625H206.063C206.256 119.625 206.422 119.708 206.532 119.874L216.125 135.741V120.04C216.125 119.791 216.291 119.625 216.567 119.625H217.7C217.949 119.625 218.115 119.791 218.115 120.04V139.363C218.115 139.611 217.949 139.777 217.7 139.777H216.567C216.374 139.777 216.208 139.694 216.097 139.528L206.477 123.661V139.363C206.477 139.611 206.311 139.777 206.063 139.777H204.929C204.653 139.777 204.487 139.611 204.487 139.363V120.04Z" stroke="#394D46" stroke-opacity="0.5" stroke-width="0.5"/>
<path d="M225.019 121.284V120.206C225.019 119.929 225.185 119.763 225.433 119.763H238.26C238.509 119.763 238.675 119.929 238.675 120.206V121.284C238.675 121.533 238.509 121.699 238.26 121.699H232.869V139.363C232.869 139.611 232.676 139.777 232.427 139.777H231.294C231.045 139.777 230.852 139.611 230.852 139.363V121.699H225.433C225.185 121.699 225.019 121.533 225.019 121.284Z" stroke="#394D46" stroke-opacity="0.5" stroke-width="0.5"/>
<path d="M246.008 119.763H258.806C259.083 119.763 259.249 119.929 259.249 120.206V121.284C259.249 121.533 259.083 121.699 258.806 121.699H247.556V128.748H258.254C258.53 128.748 258.696 128.913 258.696 129.19V130.24C258.696 130.489 258.53 130.655 258.254 130.655H247.556V137.704H258.806C259.083 137.704 259.249 137.87 259.249 138.146V139.197C259.249 139.473 259.083 139.639 258.806 139.639H246.008C245.731 139.639 245.565 139.473 245.565 139.197V120.206C245.565 119.929 245.731 119.763 246.008 119.763Z" stroke="#394D46" stroke-opacity="0.5" stroke-width="0.5"/>
<path d="M267.589 139.197V120.04C267.589 119.791 267.755 119.625 268.032 119.625H269.165C269.414 119.625 269.58 119.791 269.58 120.04V137.704H280.83C281.107 137.704 281.273 137.87 281.273 138.146V139.197C281.273 139.473 281.107 139.639 280.83 139.639H268.032C267.755 139.639 267.589 139.473 267.589 139.197Z" stroke="#394D46" stroke-opacity="0.5" stroke-width="0.5"/>
<path d="M288.155 139.197V120.04C288.155 119.791 288.321 119.625 288.598 119.625H289.731C289.98 119.625 290.146 119.791 290.146 120.04V137.704H301.397C301.673 137.704 301.839 137.87 301.839 138.146V139.197C301.839 139.473 301.673 139.639 301.397 139.639H288.598C288.321 139.639 288.155 139.473 288.155 139.197Z" stroke="#394D46" stroke-opacity="0.5" stroke-width="0.5"/>
<path d="M307.699 137.704H313.117V121.699H307.699C307.422 121.699 307.257 121.533 307.257 121.284V120.206C307.257 119.929 307.422 119.763 307.699 119.763H320.498C320.774 119.763 320.94 119.929 320.94 120.206V121.284C320.94 121.533 320.774 121.699 320.498 121.699H315.107V137.704H320.498C320.774 137.704 320.94 137.87 320.94 138.146V139.197C320.94 139.473 320.774 139.639 320.498 139.639H307.699C307.422 139.639 307.257 139.473 307.257 139.197V138.146C307.257 137.87 307.422 137.704 307.699 137.704Z" stroke="#394D46" stroke-opacity="0.5" stroke-width="0.5"/>
<path d="M341.21 129.107V134.995C341.21 137.925 339.22 139.915 336.262 139.915H332.475C329.545 139.915 327.554 137.925 327.554 134.995V124.214C327.554 121.284 329.545 119.294 332.475 119.294H336.262C339.22 119.294 341.21 121.284 341.21 124.214V125.32C341.21 125.513 341.072 125.652 340.851 125.652H339.552C339.33 125.652 339.192 125.513 339.192 125.32V124.159C339.192 122.417 338.031 121.229 336.262 121.229H332.503C330.733 121.229 329.545 122.417 329.545 124.159V135.05C329.545 136.819 330.733 137.98 332.503 137.98H336.262C338.031 137.98 339.192 136.819 339.192 135.05V130.627H334.742C334.465 130.627 334.299 130.461 334.299 130.185V129.107C334.299 128.858 334.465 128.692 334.742 128.692H340.768C341.017 128.692 341.21 128.858 341.21 129.107Z" stroke="#394D46" stroke-opacity="0.5" stroke-width="0.5"/>
<path d="M349.756 119.763H362.555C362.832 119.763 362.998 119.929 362.998 120.206V121.284C362.998 121.533 362.832 121.699 362.555 121.699H351.304V128.748H362.002C362.279 128.748 362.445 128.913 362.445 129.19V130.24C362.445 130.489 362.279 130.655 362.002 130.655H351.304V137.704H362.555C362.832 137.704 362.998 137.87 362.998 138.146V139.197C362.998 139.473 362.832 139.639 362.555 139.639H349.756C349.48 139.639 349.314 139.473 349.314 139.197V120.206C349.314 119.929 349.48 119.763 349.756 119.763Z" stroke="#394D46" stroke-opacity="0.5" stroke-width="0.5"/>
<path d="M371.338 120.04C371.338 119.791 371.504 119.625 371.78 119.625H372.914C373.107 119.625 373.273 119.708 373.384 119.874L382.976 135.741V120.04C382.976 119.791 383.142 119.625 383.418 119.625H384.552C384.8 119.625 384.966 119.791 384.966 120.04V139.363C384.966 139.611 384.8 139.777 384.552 139.777H383.418C383.225 139.777 383.059 139.694 382.948 139.528L373.328 123.661V139.363C373.328 139.611 373.163 139.777 372.914 139.777H371.78C371.504 139.777 371.338 139.611 371.338 139.363V120.04Z" stroke="#394D46" stroke-opacity="0.5" stroke-width="0.5"/>
<path d="M406.742 133.834V134.995C406.742 137.925 404.752 139.915 401.794 139.915H398.007C395.077 139.915 393.086 137.925 393.086 134.995V124.214C393.086 121.284 395.077 119.294 398.007 119.294H401.794C404.752 119.294 406.742 121.284 406.742 124.214V125.32C406.742 125.513 406.604 125.652 406.383 125.652H405.084C404.862 125.652 404.724 125.513 404.724 125.32V124.159C404.724 122.417 403.563 121.229 401.794 121.229H398.034C396.265 121.229 395.077 122.417 395.077 124.159V135.05C395.077 136.819 396.265 137.98 398.034 137.98H401.794C403.563 137.98 404.724 136.819 404.724 135.05V133.834C404.724 133.613 404.862 133.502 405.084 133.502H406.383C406.604 133.502 406.742 133.613 406.742 133.834Z" stroke="#394D46" stroke-opacity="0.5" stroke-width="0.5"/>
<path d="M415.289 119.763H428.087C428.364 119.763 428.53 119.929 428.53 120.206V121.284C428.53 121.533 428.364 121.699 428.087 121.699H416.836V128.748H427.534C427.811 128.748 427.977 128.913 427.977 129.19V130.24C427.977 130.489 427.811 130.655 427.534 130.655H416.836V137.704H428.087C428.364 137.704 428.53 137.87 428.53 138.146V139.197C428.53 139.473 428.364 139.639 428.087 139.639H415.289C415.012 139.639 414.846 139.473 414.846 139.197V120.206C414.846 119.929 415.012 119.763 415.289 119.763Z" stroke="#394D46" stroke-opacity="0.5" stroke-width="0.5"/>
</g>
<defs>
<filter id="filter0_b_1_4" x="-19.1704" y="-19.0754" width="714.406" height="193.229" filterUnits="userSpaceOnUse" color-interpolation-filters="sRGB">
<feFlood flood-opacity="0" result="BackgroundImageFix"/>
<feGaussianBlur in="BackgroundImageFix" stdDeviation="10"/>
<feComposite in2="SourceAlpha" operator="in" result="effect1_backgroundBlur_1_4"/>
<feBlend mode="normal" in="SourceGraphic" in2="effect1_backgroundBlur_1_4" result="shape"/>
</filter>
</defs>
</svg>
