<svg width="61" height="48" viewBox="0 0 61 48" fill="none" xmlns="http://www.w3.org/2000/svg">
<path d="M15.7499 0.220459H0.91748V2.76699H15.7499V0.220459Z" fill="#C8FFF4" fill-opacity="0.5"/>
<path d="M15.7499 7.90472H0.91748V10.4512H15.7499V7.90472Z" fill="#C8FFF4" fill-opacity="0.5"/>
<path d="M15.7499 13.0425H0.91748V15.589H15.7499V13.0425Z" fill="#C8FFF4" fill-opacity="0.5"/>
<path d="M15.7499 18.1802H0.91748V20.7267H15.7499V18.1802Z" fill="#C8FFF4" fill-opacity="0.5"/>
<path d="M30.5823 2.76699H15.7499V5.31352H30.5823V2.76699Z" fill="#C8FFF4" fill-opacity="0.5"/>
<path d="M30.5823 10.4959H15.7499V13.0425H30.5823V10.4959Z" fill="#C8FFF4" fill-opacity="0.5"/>
<path d="M45.37 7.90472H30.5376V10.4512H45.37V7.90472Z" fill="#C8FFF4" fill-opacity="0.5"/>
<path d="M45.37 15.6337H30.5376V18.1802H45.37V15.6337Z" fill="#C8FFF4" fill-opacity="0.5"/>
<path d="M60.2025 0.220459H45.37V2.76699H60.2025V0.220459Z" fill="#C8FFF4" fill-opacity="0.5"/>
<path d="M60.2025 5.35819H45.37V7.90472H60.2025V5.35819Z" fill="#C8FFF4" fill-opacity="0.5"/>
<path d="M60.2025 10.4959H45.37V13.0425H60.2025V10.4959Z" fill="#C8FFF4" fill-opacity="0.5"/>
<path d="M60.2025 18.1802H45.37V20.7267H60.2025V18.1802Z" fill="#C8FFF4" fill-opacity="0.5"/>
<path d="M1.62781 34.6439V24.9478C1.62781 24.8376 1.69668 24.7687 1.80686 24.7687H5.44291C6.93038 24.7687 8.55559 25.4849 8.55559 27.7299V31.8618C8.55559 34.1068 6.93038 34.823 5.44291 34.823H1.80686C1.69668 34.823 1.62781 34.7541 1.62781 34.6439ZM3.47338 33.184H5.23632C6.43456 33.184 6.72379 32.6606 6.72379 31.0354V28.5563C6.72379 26.9311 6.43456 26.4077 5.23632 26.4077H3.47338V33.184Z" fill="#C8FFF4" fill-opacity="0.5"/>
<path d="M9.97753 24.9065H11.589C11.6716 24.9065 11.7542 24.9615 11.7818 25.0304L13.4621 29.0797L15.1424 25.0304C15.1699 24.9615 15.2526 24.9065 15.3352 24.9065H16.9466C17.0568 24.9065 17.0981 24.9753 17.0568 25.0717L14.3849 31.118V34.5062C14.3849 34.6164 14.316 34.6852 14.2058 34.6852H12.7183C12.6082 34.6852 12.5393 34.6164 12.5393 34.5062V31.118L9.86735 25.0717C9.82603 24.9753 9.86735 24.9065 9.97753 24.9065Z" fill="#C8FFF4" fill-opacity="0.5"/>
<path d="M18.8569 34.5062V25.0855C18.8569 24.9753 18.9257 24.9065 19.0359 24.9065H22.7821C24.5864 24.9065 25.7846 26.1047 25.7846 27.8263C25.7846 29.5617 24.5864 30.8564 22.7821 30.8564H20.7024V34.5062C20.7024 34.6164 20.6336 34.6852 20.5234 34.6852H19.0359C18.9257 34.6852 18.8569 34.6164 18.8569 34.5062ZM20.7024 29.2312H22.5618C23.3606 29.2312 23.9528 28.7766 23.9528 27.8814C23.9528 26.9862 23.3606 26.5454 22.5618 26.5454H20.7024V29.2312Z" fill="#C8FFF4" fill-opacity="0.5"/>
<path d="M27.5386 34.5062V25.0855C27.5386 24.9753 27.6075 24.9065 27.7177 24.9065H29.2052C29.3153 24.9065 29.3842 24.9753 29.3842 25.0855V28.9832H32.552V25.0855C32.552 24.9753 32.6208 24.9065 32.731 24.9065H34.2047C34.3149 24.9065 34.3838 24.9753 34.3838 25.0855V34.5062C34.3838 34.6164 34.3149 34.6852 34.2047 34.6852H32.731C32.6208 34.6852 32.552 34.6164 32.552 34.5062V30.6084H29.3842V34.5062C29.3842 34.6164 29.3153 34.6852 29.2052 34.6852H27.7177C27.6075 34.6852 27.5386 34.6164 27.5386 34.5062Z" fill="#C8FFF4" fill-opacity="0.5"/>
<path d="M36.3053 33.0462H38.2473V26.5454H36.3053C36.1951 26.5454 36.1263 26.4766 36.1263 26.3664V25.0855C36.1263 24.9753 36.1951 24.9065 36.3053 24.9065H42.0073C42.1175 24.9065 42.1863 24.9753 42.1863 25.0855V26.3664C42.1863 26.4766 42.1175 26.5454 42.0073 26.5454H40.0791V33.0462H42.0073C42.1175 33.0462 42.1863 33.1151 42.1863 33.2253V34.5062C42.1863 34.6164 42.1175 34.6852 42.0073 34.6852H36.3053C36.1951 34.6852 36.1263 34.6164 36.1263 34.5062V33.2253C36.1263 33.1151 36.1951 33.0462 36.3053 33.0462Z" fill="#C8FFF4" fill-opacity="0.5"/>
<path d="M43.9203 34.5062V25.0855C43.9203 24.9753 43.9892 24.9065 44.0994 24.9065H47.8456C49.6499 24.9065 50.8481 26.1047 50.8481 27.8263C50.8481 29.121 50.187 30.0713 49.0852 30.4707L51.0547 34.5337C51.096 34.6301 51.0685 34.6852 50.9583 34.6852H49.3469C49.2642 34.6852 49.1678 34.6301 49.1265 34.5475L47.2534 30.6773H45.7659V34.5062C45.7659 34.6164 45.697 34.6852 45.5869 34.6852H44.0994C43.9892 34.6852 43.9203 34.6164 43.9203 34.5062ZM45.7659 29.2725H47.6252C48.4378 29.2725 49.0163 28.8042 49.0163 27.909C49.0163 27.0137 48.4378 26.5454 47.6252 26.5454H45.7659V29.2725Z" fill="#C8FFF4" fill-opacity="0.5"/>
<path d="M52.7513 34.52L55.5197 25.0717C55.561 24.9753 55.6299 24.9065 55.7401 24.9065H57.2C57.3102 24.9065 57.379 24.9753 57.4204 25.0717L60.1887 34.52C60.23 34.6164 60.1749 34.6852 60.0648 34.6852H58.536C58.4533 34.6852 58.3982 34.6439 58.3707 34.5613L58.0126 33.2528H54.9275L54.5694 34.5613C54.5418 34.6439 54.4867 34.6852 54.4041 34.6852H52.8753C52.7651 34.6852 52.71 34.6164 52.7513 34.52ZM55.382 31.6139H57.5581L56.47 27.7712L55.382 31.6139Z" fill="#C8FFF4" fill-opacity="0.5"/>
<path d="M7.12126 39.4518C6.69254 39.3538 6.31282 39.3048 5.9576 39.3048C3.96099 39.3048 3.12806 40.8115 2.91982 42.3426C3.31179 41.5709 4.05899 41.0809 5.08791 41.0809C6.83953 41.0809 8.0032 42.4038 8.0032 44.2412C8.0032 46.1031 6.82728 47.3402 5.00217 47.3402C3.55677 47.3402 2.5156 46.544 2.13588 45.2701C1.46218 43.298 1.62142 38.4106 5.9576 38.4106C6.31282 38.4106 6.69254 38.4351 7.10901 38.5086C7.18251 38.5209 7.2315 38.5699 7.2315 38.6434V39.3661C7.2315 39.4396 7.18251 39.4763 7.12126 39.4518ZM3.05456 44.2167C3.05456 45.5029 3.8385 46.3971 5.02667 46.3971C6.20258 46.3971 6.98652 45.5151 6.98652 44.2167C6.98652 42.9183 6.20258 42.0364 5.02667 42.0364C3.8385 42.0364 3.05456 42.9183 3.05456 44.2167Z" fill="#C8FFF4" fill-opacity="0.5"/>
<path d="M9.93482 42.9673L10.1676 38.7659C10.1676 38.6924 10.2165 38.6434 10.29 38.6434H15.2019C15.2754 38.6434 15.3244 38.6924 15.3244 38.7659V39.5008C15.3244 39.5743 15.2754 39.6233 15.2019 39.6233H11.1475L11.0127 41.8036C11.4292 41.3504 11.9682 41.0809 12.7276 41.0809C14.5405 41.0809 15.7531 42.3426 15.7531 44.2167C15.7531 46.0908 14.5405 47.3402 12.7276 47.3402C11.3312 47.3402 10.3145 46.6053 9.93482 45.4171C9.92257 45.3436 9.95932 45.2824 10.0328 45.2579L10.7923 45.0864C10.8535 45.0619 10.9147 45.0986 10.9392 45.1721C11.221 45.9806 11.8702 46.4583 12.7521 46.4583C13.9403 46.4583 14.6875 45.5641 14.6875 44.2167C14.6875 42.8693 13.928 41.9384 12.7399 41.9384C11.9682 41.9384 11.368 42.3304 11.0617 42.9673C11.025 43.0408 10.9637 43.0898 10.8902 43.0898H10.0451C9.97157 43.0898 9.93482 43.0408 9.93482 42.9673Z" fill="#C8FFF4" fill-opacity="0.5"/>
<path d="M18.7941 46.2746H23.265C23.3385 46.2746 23.3875 46.3236 23.3875 46.3971V47.0953C23.3875 47.1688 23.3385 47.2177 23.265 47.2177H17.7774C17.7039 47.2177 17.6427 47.1688 17.6427 47.0953C17.5692 43.0531 22.3463 43.1878 22.3463 40.934C22.3463 39.9663 21.5869 39.3416 20.5212 39.3416C19.5903 39.3416 18.8553 39.9295 18.7818 40.8237C18.7818 40.8972 18.7206 40.9462 18.6593 40.9462H17.8754C17.8019 40.9462 17.7529 40.8972 17.7652 40.8237C17.8264 39.3416 19.0636 38.3984 20.5212 38.3984C22.1381 38.3984 23.363 39.3906 23.363 40.9462C23.363 43.8002 18.9901 43.739 18.7941 46.2746Z" fill="#C8FFF4" fill-opacity="0.5"/>
<path d="M25.2802 44.6699V41.0687C25.2802 39.4641 26.5418 38.3984 28.1464 38.3984C29.7511 38.3984 31.0005 39.4641 31.0005 41.0687V44.6699C31.0005 46.2746 29.7511 47.3402 28.1464 47.3402C26.5418 47.3402 25.2802 46.2746 25.2802 44.6699ZM26.2968 44.6332C26.2968 44.8292 26.3213 45.0007 26.3581 45.1599L29.4571 39.807C29.1386 39.5008 28.6732 39.3416 28.1464 39.3416C27.1053 39.3416 26.2968 39.9663 26.2968 41.1054V44.6332ZM29.9348 40.7012L26.8603 45.9683C27.191 46.2501 27.6442 46.3971 28.1464 46.3971C29.1754 46.3971 29.9716 45.7724 29.9716 44.6332V41.1054C29.9716 40.9585 29.9593 40.8237 29.9348 40.7012Z" fill="#C8FFF4" fill-opacity="0.5"/>
<path d="M32.3798 43.6778H35.9321C36.0056 43.6778 36.0546 43.7267 36.0546 43.8002V44.5107C36.0546 44.5842 36.0056 44.6332 35.9321 44.6332H32.3798C32.3064 44.6332 32.2574 44.5842 32.2574 44.5107V43.8002C32.2574 43.7267 32.3064 43.6778 32.3798 43.6778Z" fill="#C8FFF4" fill-opacity="0.5"/>
<path d="M37.3499 47.1075L39.8855 38.6311C39.8977 38.5576 39.959 38.5209 40.0325 38.5209H40.8409C40.9144 38.5209 40.9757 38.5576 40.9879 38.6311L43.5235 47.1075C43.5357 47.181 43.5112 47.2177 43.4377 47.2177H42.5803C42.519 47.2177 42.47 47.181 42.4578 47.1198L42.0046 45.6009H38.8688L38.4156 47.1198C38.4033 47.181 38.3543 47.2177 38.2931 47.2177H37.4357C37.3622 47.2177 37.3377 47.181 37.3499 47.1075ZM39.126 44.6577H41.7473L40.4367 40.199L39.126 44.6577Z" fill="#C8FFF4" fill-opacity="0.5"/>
<path d="M50.9905 38.6434V44.4739H51.5907C51.6642 44.4739 51.7132 44.5229 51.7132 44.5964V45.2946C51.7132 45.3681 51.6642 45.4171 51.5907 45.4171H50.9905V47.0953C50.9905 47.1688 50.9415 47.2177 50.868 47.2177H50.0473C49.9739 47.2177 49.9249 47.1688 49.9249 47.0953V45.4171H45.5519C45.4784 45.4171 45.4294 45.3681 45.4294 45.2946V44.5719C45.4294 44.5107 45.4417 44.4372 45.4784 44.3882L49.8636 38.6066C49.9126 38.5576 49.9616 38.5209 50.0229 38.5209H50.868C50.9415 38.5209 50.9905 38.5699 50.9905 38.6434ZM49.9249 40.0765L46.6543 44.4739H49.9249V40.0765Z" fill="#C8FFF4" fill-opacity="0.5"/>
<path d="M59.1663 38.6434V44.4739H59.7665C59.84 44.4739 59.889 44.5229 59.889 44.5964V45.2946C59.889 45.3681 59.84 45.4171 59.7665 45.4171H59.1663V47.0953C59.1663 47.1688 59.1173 47.2177 59.0438 47.2177H58.2231C58.1496 47.2177 58.1006 47.1688 58.1006 47.0953V45.4171H53.7277C53.6542 45.4171 53.6052 45.3681 53.6052 45.2946V44.5719C53.6052 44.5107 53.6175 44.4372 53.6542 44.3882L58.0394 38.6066C58.0884 38.5576 58.1374 38.5209 58.1986 38.5209H59.0438C59.1173 38.5209 59.1663 38.5699 59.1663 38.6434ZM58.1006 40.0765L54.8301 44.4739H58.1006V40.0765Z" fill="#C8FFF4" fill-opacity="0.5"/>
</svg>
