<svg width="154" height="28" viewBox="0 0 154 28" fill="none" xmlns="http://www.w3.org/2000/svg">
<g filter="url(#filter0_b_1_1901)">
<path d="M1.34381 0.449943H12.5088C17.1399 0.449943 20.1914 3.53736 20.1914 8.13258V19.2257C20.1914 23.8209 17.1399 26.9083 12.5088 26.9083H1.34381C0.76941 26.9083 0.374512 26.5135 0.374512 25.939V1.41925C0.374512 0.844845 0.76941 0.449943 1.34381 0.449943ZM6.01082 21.5233H12.4729C13.7294 21.5233 14.591 20.6976 14.591 19.4052V7.95307C14.591 6.69657 13.7294 5.83496 12.4729 5.83496H6.01082V21.5233Z" fill="white"/>
<path d="M36.6779 0.449943H41.8117L34.5958 16.3896V26.0467C34.5958 26.6211 34.2009 26.9801 33.6265 26.9801H29.9287C29.3543 26.9801 28.9594 26.6211 28.9594 26.0467V16.3896L21.7435 0.449943H26.8772C27.4157 0.449943 27.8824 0.808944 28.026 1.27565L31.7597 9.81988L35.4933 1.27565C35.6728 0.808944 36.1394 0.449943 36.6779 0.449943Z" fill="white"/>
<path d="M45.867 0.449943H57.4627C61.8426 0.449943 64.7146 3.35785 64.7146 7.73767V9.31728C64.7146 13.6612 61.8426 16.3537 57.4627 16.3537H50.534V26.0467C50.534 26.6211 50.1391 26.9801 49.5647 26.9801H45.867C45.2926 26.9801 44.8977 26.6211 44.8977 26.0467V1.41925C44.8977 0.844845 45.2926 0.449943 45.867 0.449943ZM57.4268 5.83496H50.534V10.9687H57.4268C58.4321 10.9687 59.1141 10.3225 59.1141 9.28138V7.52227C59.1141 6.51707 58.4321 5.83496 57.4268 5.83496Z" fill="white"/>
<path d="M68.9297 26.0826V1.27565C68.9297 0.737144 69.2888 0.378143 69.8632 0.378143H73.6686C74.2071 0.378143 74.5661 0.737144 74.5661 1.27565V11.0046H83.1462V1.27565C83.1462 0.737144 83.5052 0.378143 84.0437 0.378143H87.8491C88.3876 0.378143 88.7466 0.737144 88.7466 1.27565V26.0826C88.7466 26.6212 88.3876 26.9801 87.8491 26.9801H84.0437C83.5052 26.9801 83.1462 26.6212 83.1462 26.0826V16.3896H74.5661V26.0826C74.5661 26.6212 74.2071 26.9801 73.6686 26.9801H69.8632C69.2888 26.9801 68.9297 26.6212 68.9297 26.0826Z" fill="white"/>
<path d="M92.4867 20.5181L102.323 4.90156V1.41925C102.323 0.844845 102.718 0.449943 103.293 0.449943H106.99C107.565 0.449943 107.96 0.844845 107.96 1.41925V5.69136C107.96 6.08626 107.78 6.55297 107.565 6.84017L97.764 22.4926V26.0467C97.764 26.6211 97.3691 27.0161 96.7947 27.0161H93.097C92.5226 27.0161 92.1277 26.6211 92.1277 26.0467V21.6669C92.1277 21.3079 92.2713 20.8412 92.4867 20.5181Z" fill="white"/>
<path d="M125.028 26.1185L119.751 16.3537H116.951V26.0467C116.951 26.6211 116.556 26.9801 115.981 26.9801H112.284C111.709 26.9801 111.314 26.6211 111.314 26.0467V1.41925C111.314 0.844845 111.709 0.449943 112.284 0.449943H123.879C128.259 0.449943 131.131 3.35785 131.131 7.73767V9.31728C131.131 13.0509 129.013 15.528 125.674 16.1742L131.526 26.9801H126.464C125.89 26.9801 125.315 26.6571 125.028 26.1185ZM123.844 5.83496H116.951V10.9687H123.844C124.849 10.9687 125.531 10.3225 125.531 9.28138V7.52227C125.531 6.51707 124.849 5.83496 123.844 5.83496Z" fill="white"/>
<path d="M146.625 1.20385L153.625 26.9083H148.671C148.169 26.9083 147.774 26.5853 147.666 26.1185L146.876 22.8875H140.414L139.589 26.1185C139.481 26.5853 139.086 26.9083 138.583 26.9083H133.665L140.666 1.20385C140.773 0.773044 141.168 0.449943 141.599 0.449943H145.656C146.122 0.449943 146.517 0.773044 146.625 1.20385ZM141.743 17.6102H145.548L143.645 9.99938L141.743 17.6102Z" fill="white"/>
</g>
<defs>
<filter id="filter0_b_1_1901" x="-19.6255" y="-19.6219" width="193.251" height="66.6379" filterUnits="userSpaceOnUse" color-interpolation-filters="sRGB">
<feFlood flood-opacity="0" result="BackgroundImageFix"/>
<feGaussianBlur in="BackgroundImageFix" stdDeviation="10"/>
<feComposite in2="SourceAlpha" operator="in" result="effect1_backgroundBlur_1_1901"/>
<feBlend mode="normal" in="SourceGraphic" in2="effect1_backgroundBlur_1_1901" result="shape"/>
</filter>
</defs>
</svg>
