<svg width="206" height="48" viewBox="0 0 206 48" fill="none" xmlns="http://www.w3.org/2000/svg">
<rect x="93.5476" y="0.895386" width="9.27806" height="9.27806" fill="#7B90F8" fill-opacity="0.05" stroke="white" stroke-opacity="0.1" stroke-width="0.25"/>
<rect x="102.827" y="0.895386" width="9.27806" height="9.27806" fill="#76E970" fill-opacity="0.15" stroke="white" stroke-opacity="0.1" stroke-width="0.25"/>
<rect x="0.766357" y="0.895325" width="9.27806" height="9.27806" fill="#94FFBD" stroke="white" stroke-opacity="0.1" stroke-width="0.25"/>
<rect x="10.0443" y="0.895386" width="9.27806" height="9.27806" fill="#94FFBD" fill-opacity="0.5" stroke="white" stroke-opacity="0.1" stroke-width="0.25"/>
<rect x="19.3223" y="0.895386" width="9.27806" height="9.27806" fill="#172522" stroke="white" stroke-opacity="0.1" stroke-width="0.25"/>
<rect x="28.6003" y="0.89502" width="9.27806" height="9.27806" fill="#FC0747" fill-opacity="0.15" stroke="white" stroke-opacity="0.1" stroke-width="0.25"/>
<rect x="37.8792" y="0.895386" width="9.27806" height="9.27806" fill="#FC0747" fill-opacity="0.5" stroke="white" stroke-opacity="0.1" stroke-width="0.25"/>
<rect x="47.158" y="0.895386" width="9.27806" height="9.27806" fill="#172522" stroke="white" stroke-opacity="0.1" stroke-width="0.25"/>
<rect x="56.4352" y="0.895386" width="9.27806" height="9.27806" fill="#172522" stroke="white" stroke-opacity="0.1" stroke-width="0.25"/>
<rect x="65.7137" y="0.89502" width="9.27806" height="9.27806" fill="#94FFBD" stroke="white" stroke-opacity="0.1" stroke-width="0.25"/>
<rect x="74.9916" y="0.895386" width="9.27806" height="9.27806" fill="#172522" stroke="white" stroke-opacity="0.1" stroke-width="0.25"/>
<rect x="84.2697" y="0.89502" width="9.27806" height="9.27806" fill="#FC0747" stroke="white" stroke-opacity="0.1" stroke-width="0.25"/>
<rect x="93.5476" y="10.1735" width="9.27806" height="9.27806" fill="#76E970" stroke="white" stroke-opacity="0.1" stroke-width="0.25"/>
<rect x="102.827" y="10.1733" width="9.27806" height="9.27806" fill="#94FFBD" fill-opacity="0.5" stroke="white" stroke-opacity="0.1" stroke-width="0.25"/>
<rect x="0.766357" y="10.1736" width="9.27806" height="9.27806" fill="#172522" stroke="white" stroke-opacity="0.1" stroke-width="0.25"/>
<rect x="10.0443" y="10.1735" width="9.27806" height="9.27806" fill="#7B90F8" fill-opacity="0.05" stroke="white" stroke-opacity="0.1" stroke-width="0.25"/>
<rect x="19.3223" y="10.1735" width="9.27806" height="9.27806" fill="#FC0747" stroke="white" stroke-opacity="0.1" stroke-width="0.25"/>
<rect x="28.6003" y="10.1733" width="9.27806" height="9.27806" fill="#FC0747" stroke="white" stroke-opacity="0.1" stroke-width="0.25"/>
<rect x="37.8792" y="10.1735" width="9.27806" height="9.27806" fill="#7B90F8" fill-opacity="0.05" stroke="white" stroke-opacity="0.1" stroke-width="0.25"/>
<rect x="47.158" y="10.1735" width="9.27806" height="9.27806" fill="#FC0747" fill-opacity="0.15" stroke="white" stroke-opacity="0.1" stroke-width="0.25"/>
<rect x="56.4352" y="10.1735" width="9.27806" height="9.27806" fill="#172522" stroke="white" stroke-opacity="0.1" stroke-width="0.25"/>
<rect x="65.7137" y="10.1735" width="9.27806" height="9.27806" fill="#94FFBD" fill-opacity="0.5" stroke="white" stroke-opacity="0.1" stroke-width="0.25"/>
<rect x="74.9916" y="10.1735" width="9.27806" height="9.27806" fill="#94FFBD" stroke="white" stroke-opacity="0.1" stroke-width="0.25"/>
<rect x="84.2697" y="10.1733" width="9.27806" height="9.27806" fill="#7B90F8" fill-opacity="0.05" stroke="white" stroke-opacity="0.1" stroke-width="0.25"/>
<rect x="93.5476" y="19.4514" width="9.27806" height="9.27806" fill="#FFC82D" fill-opacity="0.15" stroke="white" stroke-opacity="0.1" stroke-width="0.25"/>
<rect x="102.827" y="19.4515" width="9.27806" height="9.27806" fill="#7B90F8" fill-opacity="0.05" stroke="white" stroke-opacity="0.1" stroke-width="0.25"/>
<rect x="0.766357" y="19.4516" width="9.27806" height="9.27806" fill="#172522" stroke="white" stroke-opacity="0.1" stroke-width="0.25"/>
<rect x="10.0443" y="19.4515" width="9.27806" height="9.27806" fill="#FC0747" fill-opacity="0.15" stroke="white" stroke-opacity="0.1" stroke-width="0.25"/>
<rect x="19.3223" y="19.4514" width="9.27806" height="9.27806" fill="#172522" stroke="white" stroke-opacity="0.1" stroke-width="0.25"/>
<rect x="28.6003" y="19.4514" width="9.27806" height="9.27806" fill="#172522" stroke="white" stroke-opacity="0.1" stroke-width="0.25"/>
<rect x="37.8792" y="19.4514" width="9.27806" height="9.27806" fill="#172522"/>
<rect x="37.8792" y="19.4514" width="9.27806" height="9.27806" fill="#FC0747"/>
<rect x="37.8792" y="19.4514" width="9.27806" height="9.27806" stroke="white" stroke-opacity="0.1" stroke-width="0.25"/>
<rect x="47.158" y="19.4516" width="9.27806" height="9.27806" fill="#172522" stroke="white" stroke-opacity="0.1" stroke-width="0.25"/>
<rect x="56.4352" y="19.4514" width="9.27806" height="9.27806" fill="#FFF047" stroke="white" stroke-opacity="0.1" stroke-width="0.25"/>
<rect x="65.7137" y="19.4514" width="9.27806" height="9.27806" fill="#172522" stroke="white" stroke-opacity="0.1" stroke-width="0.25"/>
<rect x="74.9916" y="19.4514" width="9.27806" height="9.27806" fill="#172522" stroke="white" stroke-opacity="0.1" stroke-width="0.25"/>
<rect x="84.2697" y="19.4514" width="9.27806" height="9.27806" fill="#172522"/>
<rect x="84.2697" y="19.4514" width="9.27806" height="9.27806" fill="#FC0747"/>
<rect x="84.2697" y="19.4514" width="9.27806" height="9.27806" stroke="white" stroke-opacity="0.1" stroke-width="0.25"/>
<rect x="93.5476" y="28.7298" width="9.27806" height="9.27806" fill="#172522" stroke="white" stroke-opacity="0.1" stroke-width="0.25"/>
<rect x="102.827" y="28.7296" width="9.27806" height="9.27806" fill="#94FFBD" fill-opacity="0.5" stroke="white" stroke-opacity="0.1" stroke-width="0.25"/>
<rect x="0.766357" y="28.7298" width="9.27806" height="9.27806" fill="#FFF047" stroke="white" stroke-opacity="0.1" stroke-width="0.25"/>
<rect x="10.0443" y="28.7296" width="9.27806" height="9.27806" fill="#FFF047" fill-opacity="0.5" stroke="white" stroke-opacity="0.1" stroke-width="0.25"/>
<rect x="19.3223" y="28.7299" width="9.27806" height="9.27806" fill="#172522" stroke="white" stroke-opacity="0.1" stroke-width="0.25"/>
<rect x="28.6003" y="28.7296" width="9.27806" height="9.27806" fill="#FC0747" fill-opacity="0.5" stroke="white" stroke-opacity="0.1" stroke-width="0.25"/>
<rect x="37.8792" y="28.7298" width="9.27806" height="9.27806" fill="#172522" stroke="white" stroke-opacity="0.1" stroke-width="0.25"/>
<rect x="47.158" y="28.7301" width="9.27806" height="9.27806" fill="#172522" stroke="white" stroke-opacity="0.1" stroke-width="0.25"/>
<rect x="56.4352" y="28.7303" width="9.27806" height="9.27806" fill="#172522" stroke="white" stroke-opacity="0.1" stroke-width="0.25"/>
<rect x="65.7137" y="28.7295" width="9.27806" height="9.27806" fill="#FFF047" stroke="white" stroke-opacity="0.1" stroke-width="0.25"/>
<rect x="74.9916" y="28.7296" width="9.27806" height="9.27806" fill="#7B90F8" fill-opacity="0.05" stroke="white" stroke-opacity="0.1" stroke-width="0.25"/>
<rect x="84.2697" y="28.7299" width="9.27806" height="9.27806" fill="#FC0747" fill-opacity="0.5" stroke="white" stroke-opacity="0.1" stroke-width="0.25"/>
<rect x="93.5476" y="38.0085" width="9.27806" height="9.27806" fill="#172522" stroke="white" stroke-opacity="0.1" stroke-width="0.25"/>
<rect x="102.827" y="38.0082" width="9.27806" height="9.27806" fill="#172522" stroke="white" stroke-opacity="0.1" stroke-width="0.25"/>
<rect x="0.766357" y="38.0082" width="9.27806" height="9.27806" fill="#172522" stroke="white" stroke-opacity="0.1" stroke-width="0.25"/>
<rect x="10.0443" y="38.0082" width="9.27806" height="9.27806" fill="#FFF047" stroke="white" stroke-opacity="0.1" stroke-width="0.25"/>
<rect x="19.3223" y="38.008" width="9.27806" height="9.27806" fill="#94FFBD" fill-opacity="0.5" stroke="white" stroke-opacity="0.1" stroke-width="0.25"/>
<rect x="28.6003" y="38.0082" width="9.27806" height="9.27806" fill="#172522" stroke="white" stroke-opacity="0.1" stroke-width="0.25"/>
<rect x="37.8792" y="38.0085" width="9.27806" height="9.27806" fill="#172522" stroke="white" stroke-opacity="0.1" stroke-width="0.25"/>
<rect x="47.158" y="38.008" width="9.27806" height="9.27806" fill="#FC0747" fill-opacity="0.5" stroke="white" stroke-opacity="0.1" stroke-width="0.25"/>
<rect x="56.4352" y="38.008" width="9.27806" height="9.27806" fill="#94FFBD" stroke="white" stroke-opacity="0.1" stroke-width="0.25"/>
<rect x="65.7137" y="38.0082" width="9.27806" height="9.27806" fill="#172522" stroke="white" stroke-opacity="0.1" stroke-width="0.25"/>
<rect x="74.9916" y="38.008" width="9.27806" height="9.27806" fill="#7B90F8" fill-opacity="0.05" stroke="white" stroke-opacity="0.1" stroke-width="0.25"/>
<rect x="84.2697" y="38.008" width="9.27806" height="9.27806" fill="#172522"/>
<rect x="84.2697" y="38.008" width="9.27806" height="9.27806" fill="#FC0747"/>
<rect x="84.2697" y="38.008" width="9.27806" height="9.27806" stroke="white" stroke-opacity="0.1" stroke-width="0.25"/>
<rect x="112.105" y="0.895447" width="9.27806" height="9.27806" fill="#94FFBD" stroke="white" stroke-opacity="0.1" stroke-width="0.25"/>
<rect x="121.382" y="0.895386" width="9.27806" height="9.27806" fill="#94FFBD" fill-opacity="0.5" stroke="white" stroke-opacity="0.1" stroke-width="0.25"/>
<rect x="130.661" y="0.895386" width="9.27806" height="9.27806" fill="#172522" stroke="white" stroke-opacity="0.1" stroke-width="0.25"/>
<rect x="139.938" y="0.89502" width="9.27806" height="9.27806" fill="#FC0747" fill-opacity="0.15" stroke="white" stroke-opacity="0.1" stroke-width="0.25"/>
<rect x="149.217" y="0.895386" width="9.27806" height="9.27806" fill="#FC0747" fill-opacity="0.5" stroke="white" stroke-opacity="0.1" stroke-width="0.25"/>
<rect x="158.495" y="0.895386" width="9.27806" height="9.27806" fill="#172522" stroke="white" stroke-opacity="0.1" stroke-width="0.25"/>
<rect x="167.773" y="0.895386" width="9.27806" height="9.27806" fill="#172522" stroke="white" stroke-opacity="0.1" stroke-width="0.25"/>
<rect x="177.052" y="0.89502" width="9.27806" height="9.27806" fill="#94FFBD" stroke="white" stroke-opacity="0.1" stroke-width="0.25"/>
<rect x="186.329" y="0.895386" width="9.27806" height="9.27806" fill="#172522" stroke="white" stroke-opacity="0.1" stroke-width="0.25"/>
<rect x="195.608" y="0.89502" width="9.27806" height="9.27806" fill="#FC0747" stroke="white" stroke-opacity="0.1" stroke-width="0.25"/>
<rect x="112.105" y="10.1736" width="9.27806" height="9.27806" fill="#172522" stroke="white" stroke-opacity="0.1" stroke-width="0.25"/>
<rect x="121.382" y="10.1735" width="9.27806" height="9.27806" fill="#7B90F8" fill-opacity="0.05" stroke="white" stroke-opacity="0.1" stroke-width="0.25"/>
<rect x="130.66" y="10.1735" width="9.27806" height="9.27806" fill="#FC0747" stroke="white" stroke-opacity="0.1" stroke-width="0.25"/>
<rect x="139.938" y="10.1733" width="9.27806" height="9.27806" fill="#FC0747" stroke="white" stroke-opacity="0.1" stroke-width="0.25"/>
<rect x="149.217" y="10.1735" width="9.27806" height="9.27806" fill="#7B90F8" fill-opacity="0.05" stroke="white" stroke-opacity="0.1" stroke-width="0.25"/>
<rect x="158.495" y="10.1735" width="9.27806" height="9.27806" fill="#FC0747" fill-opacity="0.15" stroke="white" stroke-opacity="0.1" stroke-width="0.25"/>
<rect x="167.773" y="10.1735" width="9.27806" height="9.27806" fill="#172522" stroke="white" stroke-opacity="0.1" stroke-width="0.25"/>
<rect x="177.052" y="10.1735" width="9.27806" height="9.27806" fill="#94FFBD" fill-opacity="0.5" stroke="white" stroke-opacity="0.1" stroke-width="0.25"/>
<rect x="186.329" y="10.1735" width="9.27806" height="9.27806" fill="#94FFBD" stroke="white" stroke-opacity="0.1" stroke-width="0.25"/>
<rect x="195.608" y="10.1733" width="9.27806" height="9.27806" fill="#7B90F8" fill-opacity="0.05" stroke="white" stroke-opacity="0.1" stroke-width="0.25"/>
<rect x="112.105" y="19.4516" width="9.27806" height="9.27806" fill="#172522" stroke="white" stroke-opacity="0.1" stroke-width="0.25"/>
<rect x="121.382" y="19.4515" width="9.27806" height="9.27806" fill="#FC0747" fill-opacity="0.15" stroke="white" stroke-opacity="0.1" stroke-width="0.25"/>
<rect x="130.66" y="19.4514" width="9.27806" height="9.27806" fill="#172522" stroke="white" stroke-opacity="0.1" stroke-width="0.25"/>
<rect x="139.938" y="19.4514" width="9.27806" height="9.27806" fill="#172522" stroke="white" stroke-opacity="0.1" stroke-width="0.25"/>
<rect x="149.217" y="19.4514" width="9.27806" height="9.27806" fill="#172522"/>
<rect x="149.217" y="19.4514" width="9.27806" height="9.27806" fill="#FC0747"/>
<rect x="149.217" y="19.4514" width="9.27806" height="9.27806" stroke="white" stroke-opacity="0.1" stroke-width="0.25"/>
<rect x="158.495" y="19.4515" width="9.27806" height="9.27806" fill="#172522" stroke="white" stroke-opacity="0.1" stroke-width="0.25"/>
<rect x="167.773" y="19.4514" width="9.27806" height="9.27806" fill="#FFF047" stroke="white" stroke-opacity="0.1" stroke-width="0.25"/>
<rect x="177.052" y="19.4514" width="9.27806" height="9.27806" fill="#172522" stroke="white" stroke-opacity="0.1" stroke-width="0.25"/>
<rect x="186.329" y="19.4514" width="9.27806" height="9.27806" fill="#172522" stroke="white" stroke-opacity="0.1" stroke-width="0.25"/>
<rect x="195.608" y="19.4514" width="9.27806" height="9.27806" fill="#172522"/>
<rect x="195.608" y="19.4514" width="9.27806" height="9.27806" fill="#FC0747"/>
<rect x="195.608" y="19.4514" width="9.27806" height="9.27806" stroke="white" stroke-opacity="0.1" stroke-width="0.25"/>
<rect x="112.105" y="28.7298" width="9.27806" height="9.27806" fill="#FFF047" stroke="white" stroke-opacity="0.1" stroke-width="0.25"/>
<rect x="121.382" y="28.7296" width="9.27806" height="9.27806" fill="#FFF047" fill-opacity="0.5" stroke="white" stroke-opacity="0.1" stroke-width="0.25"/>
<rect x="130.66" y="28.7299" width="9.27806" height="9.27806" fill="#172522" stroke="white" stroke-opacity="0.1" stroke-width="0.25"/>
<rect x="139.938" y="28.7296" width="9.27806" height="9.27806" fill="#FC0747" fill-opacity="0.5" stroke="white" stroke-opacity="0.1" stroke-width="0.25"/>
<rect x="149.217" y="28.7298" width="9.27806" height="9.27806" fill="#172522" stroke="white" stroke-opacity="0.1" stroke-width="0.25"/>
<rect x="158.495" y="28.7301" width="9.27806" height="9.27806" fill="#172522" stroke="white" stroke-opacity="0.1" stroke-width="0.25"/>
<rect x="167.773" y="28.7303" width="9.27806" height="9.27806" fill="#172522" stroke="white" stroke-opacity="0.1" stroke-width="0.25"/>
<rect x="177.052" y="28.7295" width="9.27806" height="9.27806" fill="#FFF047" stroke="white" stroke-opacity="0.1" stroke-width="0.25"/>
<rect x="186.329" y="28.7296" width="9.27806" height="9.27806" fill="#7B90F8" fill-opacity="0.05" stroke="white" stroke-opacity="0.1" stroke-width="0.25"/>
<rect x="195.608" y="28.7299" width="9.27806" height="9.27806" fill="#FC0747" fill-opacity="0.5" stroke="white" stroke-opacity="0.1" stroke-width="0.25"/>
<rect x="112.105" y="38.0083" width="9.27806" height="9.27806" fill="#172522" stroke="white" stroke-opacity="0.1" stroke-width="0.25"/>
<rect x="121.382" y="38.0082" width="9.27806" height="9.27806" fill="#FFF047" stroke="white" stroke-opacity="0.1" stroke-width="0.25"/>
<rect x="130.66" y="38.008" width="9.27806" height="9.27806" fill="#94FFBD" fill-opacity="0.5" stroke="white" stroke-opacity="0.1" stroke-width="0.25"/>
<rect x="139.938" y="38.0082" width="9.27806" height="9.27806" fill="#172522" stroke="white" stroke-opacity="0.1" stroke-width="0.25"/>
<rect x="149.217" y="38.0085" width="9.27806" height="9.27806" fill="#172522" stroke="white" stroke-opacity="0.1" stroke-width="0.25"/>
<rect x="158.495" y="38.008" width="9.27806" height="9.27806" fill="#FC0747" fill-opacity="0.5" stroke="white" stroke-opacity="0.1" stroke-width="0.25"/>
<rect x="167.773" y="38.008" width="9.27806" height="9.27806" fill="#94FFBD" stroke="white" stroke-opacity="0.1" stroke-width="0.25"/>
<rect x="177.052" y="38.0082" width="9.27806" height="9.27806" fill="#172522" stroke="white" stroke-opacity="0.1" stroke-width="0.25"/>
<rect x="186.329" y="38.008" width="9.27806" height="9.27806" fill="#7B90F8" fill-opacity="0.05" stroke="white" stroke-opacity="0.1" stroke-width="0.25"/>
<rect x="195.608" y="38.008" width="9.27806" height="9.27806" fill="#172522"/>
<rect x="195.608" y="38.008" width="9.27806" height="9.27806" fill="#FC0747"/>
<rect x="195.608" y="38.008" width="9.27806" height="9.27806" stroke="white" stroke-opacity="0.1" stroke-width="0.25"/>
</svg>
