<svg width="533" height="479" viewBox="0 0 533 479" fill="none" xmlns="http://www.w3.org/2000/svg">
<path d="M530.379 199.032C529.372 195.004 528.634 190.575 528.298 185.474C527.627 176.346 525.144 163.795 517.291 156.009C515.009 153.794 513.264 151.848 511.855 150.035C508.432 145.74 503.196 140.437 497.021 138.223C495.746 132.518 490.981 117.08 474.805 105.335C468.429 100.704 462.59 94.73 457.556 87.6155C453.596 82.0447 449.166 77.8834 444.468 75.2657C442.454 74.1247 440.844 72.9837 439.568 71.7085C437.421 69.5607 434.4 65.9363 432.454 61.1038C427.621 49.0226 410.909 44.727 398.022 44.6599C395.606 44.6599 393.19 44.0558 391.176 42.9819C389.901 42.3107 388.827 41.4382 387.954 40.4986C382.921 34.9949 370.839 34.5922 367.215 34.5922C366.745 34.5922 366.275 34.5922 365.805 34.5922C362.181 30.7664 350.368 19.5577 337.817 18.2153C332.985 17.6784 327.817 16.0004 322.581 13.1815C317.749 10.5639 311.842 9.15439 306.07 9.15439C305.198 9.15439 304.325 9.15439 303.52 9.22151C301.439 9.35575 299.359 9.42287 297.412 9.42287C286.673 9.42287 281.438 7.14085 281.438 7.14085L281.237 7.07373L281.035 7.00661C280.767 6.93949 279.156 6.40255 276.941 6.40255C273.317 6.40255 270.162 7.67779 267.679 10.0269C263.853 6.13408 256.671 0.496155 247.141 0.496155C245.865 0.496155 244.523 0.630391 243.181 0.831745C237.677 1.70428 233.113 3.18088 229.489 5.06019C225.327 7.20797 220.495 8.34898 215.394 8.34898C215.26 8.34898 214.387 8.34898 214.051 8.34898C204.521 8.34898 196.265 10.8995 190.09 15.732C185.862 15.7991 173.579 16.6045 164.652 23.719C160.558 27.0078 155.86 27.9475 150.423 29.0214C144.114 30.2966 136.933 31.7061 128.811 37.0755C127.133 38.1494 125.59 39.2233 124.18 40.2301C117.737 44.7941 111.092 48.15 104.313 50.1636C102.837 50.6334 101.427 51.1703 100.085 51.7744C95.5879 53.9222 92.5005 56.674 89.7486 59.0903C87.668 60.9025 85.9229 62.5133 84.0436 63.3187C82.9697 63.8557 81.4931 64.3926 79.8151 65.0638C73.9759 67.3458 65.9217 70.5004 61.2905 75.8027C60.8878 76.2725 60.4851 76.8095 60.0153 77.3464C56.0553 82.5145 51.4242 87.2128 46.189 91.2399C39.2758 96.6093 33.3023 104.865 28.4027 115.805C27.9999 116.611 25.7179 120.772 23.503 125.671C20.1471 133.054 15.7844 140.236 10.4821 147.015C4.5086 154.599 1.21981 162.855 1.01846 170.775C0.817104 177.285 0.884222 182.99 1.28693 187.689C1.75676 192.991 1.68964 198.36 1.28693 203.663C1.08558 206.079 0.95134 208.294 0.95134 210.307C0.884222 217.892 4.84419 236.081 17.8651 243.665L21.8251 245.947C31.5572 251.652 36.4568 254.538 39.2758 255.344C40.4839 255.679 43.9741 258.7 45.3835 264.136C45.8534 265.881 46.7259 267.425 47.934 268.767C52.0953 273.197 58.74 273.533 60.7536 273.533C61.8275 273.533 62.8343 273.466 63.7739 273.264C64.4451 273.331 66.3915 274.539 67.801 275.412C71.6938 277.828 76.9962 281.184 84.2449 281.184C84.6476 281.184 85.1175 281.184 85.5202 281.117C85.7215 281.117 85.9229 281.117 86.1914 281.117C86.8625 281.117 87.8693 281.05 89.0774 280.714C91.7622 279.976 94.5811 279.573 97.5343 279.573C98.6082 279.573 99.6821 279.64 100.756 279.708C101.763 279.775 102.702 279.842 103.709 279.842C108.407 279.842 112.569 278.768 116.059 276.62C118.609 285.278 126.529 300.313 151.095 301.185C153.511 301.252 155.86 301.857 157.806 302.93C161.431 304.944 167.673 307.293 176.465 307.293C177.136 307.293 177.808 307.293 178.546 307.226C178.814 307.226 179.016 307.226 179.284 307.226C180.694 307.226 182.103 307.427 183.513 307.763C185.728 308.3 189.285 308.904 193.446 308.904C194.788 308.904 196.064 308.837 197.406 308.703C197.876 308.635 198.346 308.635 198.748 308.635C201.702 308.635 204.588 309.575 206.87 311.32C210.561 314.139 216.87 317.629 225.998 318.569C226.066 318.569 227.609 318.703 230.16 318.703C234.858 318.703 244.12 318.233 253.852 315.079C255.329 314.609 256.806 314.072 258.484 313.401C261.504 321.858 270.833 342.53 292.311 350.047C293.251 350.383 294.19 350.651 295.063 350.92C296.003 351.188 300.768 352.799 304.325 359.243C306.339 362.934 309.762 366.223 314.393 369.042C318.823 371.659 321.91 375.821 323.118 380.653C325.669 390.922 332.85 409.514 352.046 417.904C368.96 425.287 379.766 449.181 384.733 462.739C387.552 470.524 394.331 476.297 402.385 477.907C403.861 478.176 405.405 478.377 406.949 478.377C407.284 478.377 407.62 478.377 407.889 478.377H408.493C414.265 478.109 419.701 475.76 423.796 471.8C430.105 465.692 432.521 456.698 430.172 448.308C422.99 423.81 411.714 379.042 412.922 351.994C423.393 350.45 428.695 347.765 437.421 342.53C454.267 332.395 466.885 319.307 472.053 306.622C473.396 304.541 481.047 292.057 482.39 279.439C482.859 279.439 483.396 279.506 483.933 279.506C487.424 279.506 492.793 278.835 498.565 275.613C501.854 273.801 504.673 272.392 507.358 271.251C513.13 268.834 523.533 262.19 528.231 244.806C534.809 220.509 531.52 203.663 530.379 199.032Z" fill="black" fill-opacity="0.15" stroke="#C8FFF4" stroke-opacity="0.25" stroke-width="0.5" stroke-dasharray="1 1"/>
<g filter="url(#filter0_b_0_1)">
<path d="M199.688 48.1501C197.809 55.1975 196.936 61.5737 196.869 67.6815C196.869 70.0977 196.6 72.1784 196.063 74.0577C194.453 79.8298 189.821 91.4413 176.733 104.664C172.908 108.489 170.156 112.852 168.411 117.55C165.525 125.604 164.048 138.29 173.31 153.19C179.217 162.721 183.177 167.889 185.727 171.312C189.821 176.748 190.09 177.084 190.493 184.199L190.828 190.91C181.029 197.085 176.196 203.193 174.519 205.676C173.982 206.415 173.646 207.22 173.512 208.16L173.31 209.166C171.498 217.69 170.894 220.509 148.208 231.517C145.523 232.792 142.973 234.269 140.557 235.879C135.053 227.624 126.865 226.416 118.743 226.416C115.119 226.416 111.092 226.684 106.796 227.02C103.038 227.288 99.1449 227.557 94.9164 227.691C78.4725 228.228 68.2705 237.893 63.6394 243.665C62.0285 245.746 59.8808 247.29 57.4645 248.296C53.3032 249.974 50.2829 252.323 48.3364 255.21C46.2558 252.122 43.5711 249.773 40.8863 249.035C38.8728 248.498 33.0335 245.008 24.9793 240.309L21.0194 237.96C10.6832 231.919 7.39439 216.549 7.46151 210.442C7.46151 208.562 7.59574 206.482 7.7971 204.267C8.26693 198.629 8.33404 192.857 7.7971 187.152C7.46151 182.722 7.32727 177.285 7.52863 171.043C7.7971 162.855 12.0927 155.673 15.5828 151.176C21.2207 143.995 25.8519 136.343 29.4763 128.49C31.8254 123.39 34.1745 119.027 34.2416 118.96L34.3088 118.825L34.3759 118.691C38.8728 108.691 44.1751 101.241 50.2158 96.5423C55.8537 92.1125 60.9547 87.0786 65.2502 81.4407C65.5858 81.038 65.9214 80.6353 66.257 80.2326C69.8142 76.2055 76.9288 73.3865 82.164 71.373C83.9762 70.7018 85.4528 70.0977 86.7951 69.4937C89.547 68.2184 91.829 66.272 94.1781 64.1913C96.7286 61.9764 99.3462 59.6273 102.971 57.8822C103.977 57.4124 105.118 57.0097 106.259 56.607C113.71 54.3921 121.093 50.7006 128.073 45.6667C129.415 44.7271 130.892 43.7203 132.435 42.7135C139.483 38.0824 145.725 36.8742 151.765 35.6661C157.806 34.458 163.511 33.317 168.881 29.0214C176.599 22.8466 188.144 22.511 190.56 22.4438C193.177 23.7862 204.319 30.7665 199.688 48.1501Z" fill="#192625" fill-opacity="0.5"/>
<path d="M199.688 48.1501C197.809 55.1975 196.936 61.5737 196.869 67.6815C196.869 70.0977 196.6 72.1784 196.063 74.0577C194.453 79.8298 189.821 91.4413 176.733 104.664C172.908 108.489 170.156 112.852 168.411 117.55C165.525 125.604 164.048 138.29 173.31 153.19C179.217 162.721 183.177 167.889 185.727 171.312C189.821 176.748 190.09 177.084 190.493 184.199L190.828 190.91C181.029 197.085 176.196 203.193 174.519 205.676C173.982 206.415 173.646 207.22 173.512 208.16L173.31 209.166C171.498 217.69 170.894 220.509 148.208 231.517C145.523 232.792 142.973 234.269 140.557 235.879C135.053 227.624 126.865 226.416 118.743 226.416C115.119 226.416 111.092 226.684 106.796 227.02C103.038 227.288 99.1449 227.557 94.9164 227.691C78.4725 228.228 68.2705 237.893 63.6394 243.665C62.0285 245.746 59.8808 247.29 57.4645 248.296C53.3032 249.974 50.2829 252.323 48.3364 255.21C46.2558 252.122 43.5711 249.773 40.8863 249.035C38.8728 248.498 33.0335 245.008 24.9793 240.309L21.0194 237.96C10.6832 231.919 7.39439 216.549 7.46151 210.442C7.46151 208.562 7.59574 206.482 7.7971 204.267C8.26693 198.629 8.33404 192.857 7.7971 187.152C7.46151 182.722 7.32727 177.285 7.52863 171.043C7.7971 162.855 12.0927 155.673 15.5828 151.176C21.2207 143.995 25.8519 136.343 29.4763 128.49C31.8254 123.39 34.1745 119.027 34.2416 118.96L34.3088 118.825L34.3759 118.691C38.8728 108.691 44.1751 101.241 50.2158 96.5423C55.8537 92.1125 60.9547 87.0786 65.2502 81.4407C65.5858 81.038 65.9214 80.6353 66.257 80.2326C69.8142 76.2055 76.9288 73.3865 82.164 71.373C83.9762 70.7018 85.4528 70.0977 86.7951 69.4937C89.547 68.2184 91.829 66.272 94.1781 64.1913C96.7286 61.9764 99.3462 59.6273 102.971 57.8822C103.977 57.4124 105.118 57.0097 106.259 56.607C113.71 54.3921 121.093 50.7006 128.073 45.6667C129.415 44.7271 130.892 43.7203 132.435 42.7135C139.483 38.0824 145.725 36.8742 151.765 35.6661C157.806 34.458 163.511 33.317 168.881 29.0214C176.599 22.8466 188.144 22.511 190.56 22.4438C193.177 23.7862 204.319 30.7665 199.688 48.1501Z" stroke="#C8FFF4" stroke-opacity="0.25" stroke-width="0.5"/>
</g>
<g filter="url(#filter1_b_0_1)">
<path d="M135.12 239.907C121.092 251.384 116.126 265.411 114.985 269.036C112.166 271.922 108.273 273.398 103.44 273.398C102.702 273.398 101.897 273.331 101.091 273.264C99.816 273.13 98.5408 273.063 97.2655 273.063C93.7083 273.063 90.2181 273.533 86.9965 274.472C86.5266 274.607 86.1239 274.607 85.9226 274.607C85.8555 274.607 85.8555 274.607 85.7883 274.607L85.3856 274.539L85.1172 274.607C84.7145 274.607 84.3789 274.674 83.9762 274.674C78.6738 274.674 74.6467 272.123 71.0895 269.908C68.4047 268.23 66.0556 266.754 63.5051 266.754C63.1024 266.754 62.6997 266.754 62.3641 266.888C61.8943 266.888 61.2231 266.955 60.5519 266.955C58.0686 266.955 54.914 266.284 53.1018 264.74C52.5649 262.861 51.9608 257.76 60.015 254.471C63.5051 253.062 66.5926 250.78 68.9417 247.826C72.8345 242.994 81.4257 234.806 95.1849 234.403C99.5476 234.269 103.642 234 107.333 233.732C111.629 233.463 115.387 233.195 118.81 233.195C127.334 233.128 131.966 234.94 135.12 239.907Z" fill="#192625" fill-opacity="0.5"/>
<path d="M135.12 239.907C121.092 251.384 116.126 265.411 114.985 269.036C112.166 271.922 108.273 273.398 103.44 273.398C102.702 273.398 101.897 273.331 101.091 273.264C99.816 273.13 98.5408 273.063 97.2655 273.063C93.7083 273.063 90.2181 273.533 86.9965 274.472C86.5266 274.607 86.1239 274.607 85.9226 274.607C85.8555 274.607 85.8555 274.607 85.7883 274.607L85.3856 274.539L85.1172 274.607C84.7145 274.607 84.3789 274.674 83.9762 274.674C78.6738 274.674 74.6467 272.123 71.0895 269.908C68.4047 268.23 66.0556 266.754 63.5051 266.754C63.1024 266.754 62.6997 266.754 62.3641 266.888C61.8943 266.888 61.2231 266.955 60.5519 266.955C58.0686 266.955 54.914 266.284 53.1018 264.74C52.5649 262.861 51.9608 257.76 60.015 254.471C63.5051 253.062 66.5926 250.78 68.9417 247.826C72.8345 242.994 81.4257 234.806 95.1849 234.403C99.5476 234.269 103.642 234 107.333 233.732C111.629 233.463 115.387 233.195 118.81 233.195C127.334 233.128 131.966 234.94 135.12 239.907Z" stroke="#C8FFF4" stroke-opacity="0.25" stroke-width="0.5"/>
</g>
<g filter="url(#filter2_b_0_1)">
<path d="M263.786 33.9881C263.182 34.8606 262.578 35.666 262.041 36.4715C253.316 48.5527 252.376 50.4991 252.98 69.0909C253.45 83.8569 238.416 103.12 233.852 108.623C230.026 113.255 226.938 118.154 224.724 123.255C216.065 143.055 218.817 161.513 232.576 176.95C219.22 178.762 207.474 182.185 197.406 187.286L197.205 183.863C196.735 175.003 195.729 173.392 191.097 167.285C188.547 163.929 184.788 158.895 179.016 149.633C171.163 137.014 172.371 126.477 174.721 119.832C176.063 116.074 178.345 112.516 181.499 109.429C195.729 95.1327 200.83 82.246 202.575 75.8698C203.246 73.4536 203.581 70.7688 203.648 67.7485C203.716 62.1777 204.521 56.3384 206.266 49.828C210.763 32.78 202.91 23.2492 197.406 18.8865C203.044 15.732 209.421 14.9937 214.186 14.9937C214.454 14.9937 215.327 14.9937 215.528 14.9937C221.703 14.9937 227.61 13.5842 232.711 10.8995C235.664 9.35575 239.624 8.14762 244.389 7.3422C245.329 7.20797 246.268 7.07373 247.208 7.07373C257.813 7.07373 264.994 16.873 265.062 16.9401L265.33 17.2757L265.666 17.5442C266.135 18.2153 271.371 23.3163 263.786 33.9881Z" fill="#192625" fill-opacity="0.5"/>
<path d="M263.786 33.9881C263.182 34.8606 262.578 35.666 262.041 36.4715C253.316 48.5527 252.376 50.4991 252.98 69.0909C253.45 83.8569 238.416 103.12 233.852 108.623C230.026 113.255 226.938 118.154 224.724 123.255C216.065 143.055 218.817 161.513 232.576 176.95C219.22 178.762 207.474 182.185 197.406 187.286L197.205 183.863C196.735 175.003 195.729 173.392 191.097 167.285C188.547 163.929 184.788 158.895 179.016 149.633C171.163 137.014 172.371 126.477 174.721 119.832C176.063 116.074 178.345 112.516 181.499 109.429C195.729 95.1327 200.83 82.246 202.575 75.8698C203.246 73.4536 203.581 70.7688 203.648 67.7485C203.716 62.1777 204.521 56.3384 206.266 49.828C210.763 32.78 202.91 23.2492 197.406 18.8865C203.044 15.732 209.421 14.9937 214.186 14.9937C214.454 14.9937 215.327 14.9937 215.528 14.9937C221.703 14.9937 227.61 13.5842 232.711 10.8995C235.664 9.35575 239.624 8.14762 244.389 7.3422C245.329 7.20797 246.268 7.07373 247.208 7.07373C257.813 7.07373 264.994 16.873 265.062 16.9401L265.33 17.2757L265.666 17.5442C266.135 18.2153 271.371 23.3163 263.786 33.9881Z" stroke="#C8FFF4" stroke-opacity="0.25" stroke-width="0.5"/>
</g>
<g filter="url(#filter3_b_0_1)">
<path d="M429.232 207.354C428.695 208.294 428.158 209.234 427.755 210.106C425.54 214.67 423.057 219.167 420.976 223.194C418.963 226.886 417.083 230.443 415.674 233.463C414.6 235.678 413.66 237.49 412.721 239.235C411.513 241.45 410.17 245.612 411.043 253.062C411.848 260.243 410.64 263.129 410.305 263.733V263.801C409.432 264.673 407.217 267.291 406.613 271.586C400.841 272.056 387.283 272.996 373.524 272.996C359.765 272.996 349.496 272.056 343.052 270.311C337.616 268.767 332.984 267.761 328.555 267.022L327.682 266.888C323.722 266.217 319.628 265.546 315.4 265.546C311.775 265.546 308.553 266.083 305.6 267.156C301.103 268.834 296.875 271.989 293.452 276.419C288.955 282.124 286.136 288.701 285.196 295.413C281.438 296.084 276.27 298.501 270.028 301.387C266.538 302.998 262.913 304.743 259.155 306.286L258.014 306.756C255.664 307.696 253.584 308.501 251.704 309.105C242.845 311.991 234.388 312.394 230.092 312.394C227.878 312.394 226.535 312.26 226.535 312.26C219.018 311.522 213.85 308.635 210.897 306.353C207.474 303.736 203.111 302.259 198.748 302.259C198.077 302.259 197.406 302.326 196.735 302.393C195.661 302.528 194.587 302.528 193.446 302.528C189.889 302.528 186.935 301.991 185.056 301.521C183.177 301.051 181.163 300.85 179.284 300.85C178.948 300.85 178.613 300.85 178.277 300.85C177.673 300.85 177.069 300.917 176.465 300.917C169.082 300.917 163.981 298.97 161.028 297.36C158.142 295.816 154.853 294.876 151.363 294.809C139.349 294.406 130.69 290.178 125.657 282.258C122.569 277.426 121.831 272.66 121.63 271.116C122.502 268.298 127.469 254.203 141.698 243.531C144.651 241.316 147.94 239.302 151.363 237.624C175.727 225.812 177.807 221.449 180.089 210.643L180.291 209.636V209.569C181.499 207.824 186.13 201.716 196.198 195.743C207.406 189.098 221.434 184.87 237.744 183.192C239.153 183.057 240.429 182.453 241.502 181.514C242.442 180.708 243.18 179.634 243.583 178.359C244.724 174.802 249.959 166.412 272.981 165.271C275.129 165.204 277.142 164.063 278.35 162.318C279.424 160.774 281.706 158.157 285.062 158.157C285.398 158.157 285.733 158.157 286.069 158.224C286.807 158.358 287.546 158.559 288.284 158.828C289.156 159.163 290.096 159.365 290.969 159.365C292.579 159.365 294.123 158.828 295.331 157.754C297.68 155.74 302.781 152.317 310.433 151.512C310.903 151.445 311.44 151.378 311.977 151.311C312.379 151.243 313.118 151.176 314.124 151.176C318.084 151.176 323.789 152.384 328.286 158.022C331.374 161.915 334.26 170.842 335.736 180.641C337.884 195.273 349.026 206.549 363.523 208.697C366.678 209.166 370.101 209.435 373.658 209.435C374.329 209.435 375 209.435 375.739 209.435H375.94C376.074 209.435 376.209 209.435 376.276 209.435C380.84 209.032 403.391 207.086 420.037 207.086C423.93 207.019 426.95 207.153 429.232 207.354Z" fill="#192625" fill-opacity="0.5"/>
<path d="M429.232 207.354C428.695 208.294 428.158 209.234 427.755 210.106C425.54 214.67 423.057 219.167 420.976 223.194C418.963 226.886 417.083 230.443 415.674 233.463C414.6 235.678 413.66 237.49 412.721 239.235C411.513 241.45 410.17 245.612 411.043 253.062C411.848 260.243 410.64 263.129 410.305 263.733V263.801C409.432 264.673 407.217 267.291 406.613 271.586C400.841 272.056 387.283 272.996 373.524 272.996C359.765 272.996 349.496 272.056 343.052 270.311C337.616 268.767 332.984 267.761 328.555 267.022L327.682 266.888C323.722 266.217 319.628 265.546 315.4 265.546C311.775 265.546 308.553 266.083 305.6 267.156C301.103 268.834 296.875 271.989 293.452 276.419C288.955 282.124 286.136 288.701 285.196 295.413C281.438 296.084 276.27 298.501 270.028 301.387C266.538 302.998 262.913 304.743 259.155 306.286L258.014 306.756C255.664 307.696 253.584 308.501 251.704 309.105C242.845 311.991 234.388 312.394 230.092 312.394C227.878 312.394 226.535 312.26 226.535 312.26C219.018 311.522 213.85 308.635 210.897 306.353C207.474 303.736 203.111 302.259 198.748 302.259C198.077 302.259 197.406 302.326 196.735 302.393C195.661 302.528 194.587 302.528 193.446 302.528C189.889 302.528 186.935 301.991 185.056 301.521C183.177 301.051 181.163 300.85 179.284 300.85C178.948 300.85 178.613 300.85 178.277 300.85C177.673 300.85 177.069 300.917 176.465 300.917C169.082 300.917 163.981 298.97 161.028 297.36C158.142 295.816 154.853 294.876 151.363 294.809C139.349 294.406 130.69 290.178 125.657 282.258C122.569 277.426 121.831 272.66 121.63 271.116C122.502 268.298 127.469 254.203 141.698 243.531C144.651 241.316 147.94 239.302 151.363 237.624C175.727 225.812 177.807 221.449 180.089 210.643L180.291 209.636V209.569C181.499 207.824 186.13 201.716 196.198 195.743C207.406 189.098 221.434 184.87 237.744 183.192C239.153 183.057 240.429 182.453 241.502 181.514C242.442 180.708 243.18 179.634 243.583 178.359C244.724 174.802 249.959 166.412 272.981 165.271C275.129 165.204 277.142 164.063 278.35 162.318C279.424 160.774 281.706 158.157 285.062 158.157C285.398 158.157 285.733 158.157 286.069 158.224C286.807 158.358 287.546 158.559 288.284 158.828C289.156 159.163 290.096 159.365 290.969 159.365C292.579 159.365 294.123 158.828 295.331 157.754C297.68 155.74 302.781 152.317 310.433 151.512C310.903 151.445 311.44 151.378 311.977 151.311C312.379 151.243 313.118 151.176 314.124 151.176C318.084 151.176 323.789 152.384 328.286 158.022C331.374 161.915 334.26 170.842 335.736 180.641C337.884 195.273 349.026 206.549 363.523 208.697C366.678 209.166 370.101 209.435 373.658 209.435C374.329 209.435 375 209.435 375.739 209.435H375.94C376.074 209.435 376.209 209.435 376.276 209.435C380.84 209.032 403.391 207.086 420.037 207.086C423.93 207.019 426.95 207.153 429.232 207.354Z" stroke="#C8FFF4" stroke-opacity="0.25" stroke-width="0.5"/>
</g>
<g filter="url(#filter4_b_0_1)">
<path d="M521.788 243.128C517.895 257.693 509.506 263.129 504.807 265.076C501.921 266.284 498.901 267.761 495.344 269.707C490.78 272.19 486.618 272.727 483.934 272.727C482.86 272.727 481.92 272.66 481.249 272.526C476.081 265.68 463.933 265.143 460.107 265.143C456.013 265.143 451.986 265.68 448.764 266.62C442.052 268.633 421.984 270.311 413.393 270.915C413.93 269.304 414.802 268.432 414.869 268.365L415.003 268.23C415.943 267.291 418.829 263.465 417.554 252.122C416.883 245.947 417.957 243.195 418.426 242.323C419.433 240.511 420.44 238.564 421.581 236.215C422.99 233.329 424.803 229.839 426.816 226.214C428.964 222.187 431.447 217.556 433.729 212.925C434.736 210.912 436.011 208.764 437.622 206.549C443.529 198.226 451.986 190.306 456.482 186.078L456.751 185.809C462.657 180.306 463.865 175.205 464.067 173.997C469.101 152.452 489.706 145.471 493.934 144.196C499.17 145.807 504.002 151.109 506.418 154.13C508.029 156.143 509.908 158.224 512.392 160.64C519.171 167.352 520.983 179.299 521.453 185.809C521.855 191.313 522.661 196.078 523.735 200.508C526.084 209.368 526.688 225.073 521.788 243.128Z" fill="#192625" fill-opacity="0.5"/>
<path d="M521.788 243.128C517.895 257.693 509.506 263.129 504.807 265.076C501.921 266.284 498.901 267.761 495.344 269.707C490.78 272.19 486.618 272.727 483.934 272.727C482.86 272.727 481.92 272.66 481.249 272.526C476.081 265.68 463.933 265.143 460.107 265.143C456.013 265.143 451.986 265.68 448.764 266.62C442.052 268.633 421.984 270.311 413.393 270.915C413.93 269.304 414.802 268.432 414.869 268.365L415.003 268.23C415.943 267.291 418.829 263.465 417.554 252.122C416.883 245.947 417.957 243.195 418.426 242.323C419.433 240.511 420.44 238.564 421.581 236.215C422.99 233.329 424.803 229.839 426.816 226.214C428.964 222.187 431.447 217.556 433.729 212.925C434.736 210.912 436.011 208.764 437.622 206.549C443.529 198.226 451.986 190.306 456.482 186.078L456.751 185.809C462.657 180.306 463.865 175.205 464.067 173.997C469.101 152.452 489.706 145.471 493.934 144.196C499.17 145.807 504.002 151.109 506.418 154.13C508.029 156.143 509.908 158.224 512.392 160.64C519.171 167.352 520.983 179.299 521.453 185.809C521.855 191.313 522.661 196.078 523.735 200.508C526.084 209.368 526.688 225.073 521.788 243.128Z" stroke="#C8FFF4" stroke-opacity="0.25" stroke-width="0.5"/>
</g>
<g filter="url(#filter5_b_0_1)">
<path d="M475.879 276.553C475.409 289.104 466.348 303.065 466.214 303.199L466.013 303.467L465.946 303.87C461.382 315.28 449.703 327.294 433.93 336.825C424.936 342.262 420.507 344.409 409.365 345.752C401.311 346.691 390.102 347.161 370.973 347.765C370.168 347.765 369.363 347.832 368.557 347.832C338.757 347.832 322.514 330.986 315.467 320.918C312.581 316.824 308.822 313.736 304.527 311.857C297.345 308.703 292.781 300.514 291.573 298.098C292.043 291.789 294.459 285.882 298.62 280.513C301.305 277.09 304.459 274.674 307.815 273.398C309.963 272.593 312.446 272.19 315.265 272.19C318.957 272.19 322.783 272.862 326.474 273.466L327.347 273.6C331.508 274.271 335.938 275.278 341.173 276.754C348.22 278.701 359.026 279.708 373.457 279.708C391.377 279.708 408.962 278.164 410.036 278.03C411.848 277.895 441.582 275.949 450.844 273.197C453.395 272.392 456.75 271.989 460.241 271.989C467.489 271.922 473.731 273.801 475.879 276.553Z" fill="#192625" fill-opacity="0.5"/>
<path d="M475.879 276.553C475.409 289.104 466.348 303.065 466.214 303.199L466.013 303.467L465.946 303.87C461.382 315.28 449.703 327.294 433.93 336.825C424.936 342.262 420.507 344.409 409.365 345.752C401.311 346.691 390.102 347.161 370.973 347.765C370.168 347.765 369.363 347.832 368.557 347.832C338.757 347.832 322.514 330.986 315.467 320.918C312.581 316.824 308.822 313.736 304.527 311.857C297.345 308.703 292.781 300.514 291.573 298.098C292.043 291.789 294.459 285.882 298.62 280.513C301.305 277.09 304.459 274.674 307.815 273.398C309.963 272.593 312.446 272.19 315.265 272.19C318.957 272.19 322.783 272.862 326.474 273.466L327.347 273.6C331.508 274.271 335.938 275.278 341.173 276.754C348.22 278.701 359.026 279.708 373.457 279.708C391.377 279.708 408.962 278.164 410.036 278.03C411.848 277.895 441.582 275.949 450.844 273.197C453.395 272.392 456.75 271.989 460.241 271.989C467.489 271.922 473.731 273.801 475.879 276.553Z" stroke="#C8FFF4" stroke-opacity="0.25" stroke-width="0.5"/>
</g>
<g filter="url(#filter6_b_0_1)">
<path d="M418.896 467.236C415.943 470.055 412.05 471.733 407.956 471.934H407.419C407.151 471.934 406.949 471.934 406.681 471.934C405.607 471.934 404.466 471.8 403.459 471.598C397.687 470.457 392.855 466.296 390.841 460.725C384.331 442.939 372.853 419.985 354.597 411.998C338.824 405.084 332.247 390.385 329.495 379.244C327.817 372.666 323.656 367.028 317.682 363.471C314.058 361.323 311.507 358.907 310.031 356.222C305.333 347.631 298.621 345.215 296.674 344.678C295.936 344.477 295.131 344.208 294.325 343.94C275.129 337.228 266.941 318.166 264.525 311.052C267.411 309.777 270.23 308.434 272.847 307.226C278.015 304.81 283.318 302.326 286.137 301.79C288.217 305.615 293.52 314.072 301.91 317.764C305.064 319.173 307.883 321.522 310.031 324.543C317.817 335.684 335.804 354.343 368.625 354.343C369.497 354.343 370.37 354.343 371.243 354.276C387.686 353.806 398.358 353.336 406.278 352.665C405.406 380.855 416.614 425.488 423.595 450.255C425.206 456.43 423.46 462.873 418.896 467.236Z" fill="#192625" fill-opacity="0.5"/>
<path d="M418.896 467.236C415.943 470.055 412.05 471.733 407.956 471.934H407.419C407.151 471.934 406.949 471.934 406.681 471.934C405.607 471.934 404.466 471.8 403.459 471.598C397.687 470.457 392.855 466.296 390.841 460.725C384.331 442.939 372.853 419.985 354.597 411.998C338.824 405.084 332.247 390.385 329.495 379.244C327.817 372.666 323.656 367.028 317.682 363.471C314.058 361.323 311.507 358.907 310.031 356.222C305.333 347.631 298.621 345.215 296.674 344.678C295.936 344.477 295.131 344.208 294.325 343.94C275.129 337.228 266.941 318.166 264.525 311.052C267.411 309.777 270.23 308.434 272.847 307.226C278.015 304.81 283.318 302.326 286.137 301.79C288.217 305.615 293.52 314.072 301.91 317.764C305.064 319.173 307.883 321.522 310.031 324.543C317.817 335.684 335.804 354.343 368.625 354.343C369.497 354.343 370.37 354.343 371.243 354.276C387.686 353.806 398.358 353.336 406.278 352.665C405.406 380.855 416.614 425.488 423.595 450.255C425.206 456.43 423.46 462.873 418.896 467.236Z" stroke="#C8FFF4" stroke-opacity="0.25" stroke-width="0.5"/>
</g>
<path d="M357.751 36.0686C352.113 37.8137 343.925 41.4381 339.294 48.6869C336.206 53.5194 331.911 57.6136 326.877 60.4325C318.688 65.0637 313.453 72.1782 311.775 80.9707C310.567 87.0784 308.017 91.7096 304.124 94.7299C297.009 100.234 291.237 106.543 286.807 113.456C286.002 114.731 285.264 115.738 284.592 116.409C277.075 123.926 273.451 131.511 273.786 139.028C273.988 143.86 275.867 148.492 279.424 152.72C276.203 154.197 273.988 156.814 272.713 158.559C272.713 158.626 272.645 158.626 272.578 158.626C250.161 159.7 241.637 167.419 238.348 173.392C225.596 159.633 223.045 143.726 230.831 125.94C232.777 121.443 235.529 117.013 238.952 112.919C245.328 105.2 260.161 85.5347 259.625 68.8894C259.088 51.9756 259.423 51.5729 267.41 40.4313C267.947 39.6259 268.551 38.8205 269.155 37.948C276.605 27.4775 274.86 19.3562 271.907 14.9936C273.182 13.6512 274.793 13.0471 276.74 13.0471C277.679 13.0471 278.418 13.1814 278.686 13.2485C280.096 13.7854 286.203 16.0003 297.211 16.0003C299.358 16.0003 301.573 15.9332 303.788 15.7319C304.459 15.6647 305.198 15.6647 305.869 15.6647C310.567 15.6647 315.333 16.8057 319.225 18.8864C325.266 22.1752 331.24 24.1216 336.945 24.7257C345.066 25.5982 353.053 31.7731 357.751 36.0686Z" fill="#FC0747" fill-opacity="0.25" stroke="#FF245D" stroke-width="0.5"/>
<path d="M490.109 138.558C482.391 141.176 462.859 149.968 457.557 172.721L457.49 172.923V173.124C457.49 173.191 456.819 176.815 452.255 181.111L451.986 181.379C447.556 185.474 439.637 192.924 433.462 201.112C430.24 200.642 425.743 200.374 419.837 200.374C402.789 200.374 379.834 202.387 375.404 202.79H375.27C374.666 202.79 374.062 202.79 373.458 202.79C370.236 202.79 367.149 202.589 364.33 202.186C352.786 200.508 343.926 191.514 342.248 179.836C341.644 175.607 339.161 161.378 333.456 154.062C327.012 145.874 318.555 144.666 314.059 144.666C312.716 144.666 311.709 144.733 311.038 144.867C310.636 144.934 310.166 145.001 309.763 145.001C300.232 146.008 293.923 150.304 290.97 152.787C290.903 152.787 290.836 152.787 290.836 152.787C289.896 152.384 288.956 152.116 287.95 151.915C283.251 147.753 280.701 143.323 280.499 138.827C280.231 133.256 283.251 127.349 289.359 121.242C290.366 120.235 291.44 118.825 292.514 117.147C296.474 110.905 301.776 105.133 308.219 100.167C313.454 96.1394 316.81 90.1659 318.354 82.4473C319.696 75.5341 323.656 70.1647 330.167 66.4732C336.14 63.1173 341.241 58.2848 344.933 52.5126C350.504 43.8544 363.86 41.6395 364.8 41.5053C365.404 41.4381 366.209 41.4381 367.149 41.4381C373.324 41.4381 380.707 42.7134 382.922 45.1968C384.264 46.6734 385.942 48.0157 387.821 49.0225C390.842 50.7004 394.265 51.573 397.889 51.573C411.648 51.6401 423.193 56.674 426.079 63.8556C428.428 69.762 432.119 74.1247 434.737 76.7423C436.482 78.4202 438.563 79.9639 441.113 81.4405C444.939 83.5883 448.563 87.0785 451.986 91.8439C457.49 99.5624 463.799 106.006 470.779 111.107C484.136 120.436 488.7 133.054 490.109 138.558Z" fill="#FC0747" fill-opacity="0.25" stroke="#FF245D" stroke-width="0.5"/>
<defs>
<filter id="filter0_b_0_1" x="-42.816" y="-27.8078" width="293.868" height="333.465" filterUnits="userSpaceOnUse" color-interpolation-filters="sRGB">
<feFlood flood-opacity="0" result="BackgroundImageFix"/>
<feGaussianBlur in="BackgroundImageFix" stdDeviation="25"/>
<feComposite in2="SourceAlpha" operator="in" result="effect1_backgroundBlur_0_1"/>
<feBlend mode="normal" in="SourceGraphic" in2="effect1_backgroundBlur_0_1" result="shape"/>
</filter>
<filter id="filter1_b_0_1" x="2.57263" y="182.943" width="182.877" height="141.981" filterUnits="userSpaceOnUse" color-interpolation-filters="sRGB">
<feFlood flood-opacity="0" result="BackgroundImageFix"/>
<feGaussianBlur in="BackgroundImageFix" stdDeviation="25"/>
<feComposite in2="SourceAlpha" operator="in" result="effect1_backgroundBlur_0_1"/>
<feBlend mode="normal" in="SourceGraphic" in2="effect1_backgroundBlur_0_1" result="shape"/>
</filter>
<filter id="filter2_b_0_1" x="122.701" y="-43.1763" width="195.411" height="280.858" filterUnits="userSpaceOnUse" color-interpolation-filters="sRGB">
<feFlood flood-opacity="0" result="BackgroundImageFix"/>
<feGaussianBlur in="BackgroundImageFix" stdDeviation="25"/>
<feComposite in2="SourceAlpha" operator="in" result="effect1_backgroundBlur_0_1"/>
<feBlend mode="normal" in="SourceGraphic" in2="effect1_backgroundBlur_0_1" result="shape"/>
</filter>
<filter id="filter3_b_0_1" x="71.3746" y="100.926" width="408.268" height="261.718" filterUnits="userSpaceOnUse" color-interpolation-filters="sRGB">
<feFlood flood-opacity="0" result="BackgroundImageFix"/>
<feGaussianBlur in="BackgroundImageFix" stdDeviation="25"/>
<feComposite in2="SourceAlpha" operator="in" result="effect1_backgroundBlur_0_1"/>
<feBlend mode="normal" in="SourceGraphic" in2="effect1_backgroundBlur_0_1" result="shape"/>
</filter>
<filter id="filter4_b_0_1" x="363.037" y="93.9348" width="212.716" height="229.043" filterUnits="userSpaceOnUse" color-interpolation-filters="sRGB">
<feFlood flood-opacity="0" result="BackgroundImageFix"/>
<feGaussianBlur in="BackgroundImageFix" stdDeviation="25"/>
<feComposite in2="SourceAlpha" operator="in" result="effect1_backgroundBlur_0_1"/>
<feBlend mode="normal" in="SourceGraphic" in2="effect1_backgroundBlur_0_1" result="shape"/>
</filter>
<filter id="filter5_b_0_1" x="241.318" y="221.737" width="284.814" height="176.345" filterUnits="userSpaceOnUse" color-interpolation-filters="sRGB">
<feFlood flood-opacity="0" result="BackgroundImageFix"/>
<feGaussianBlur in="BackgroundImageFix" stdDeviation="25"/>
<feComposite in2="SourceAlpha" operator="in" result="effect1_backgroundBlur_0_1"/>
<feBlend mode="normal" in="SourceGraphic" in2="effect1_backgroundBlur_0_1" result="shape"/>
</filter>
<filter id="filter6_b_0_1" x="214.214" y="251.51" width="260.218" height="270.674" filterUnits="userSpaceOnUse" color-interpolation-filters="sRGB">
<feFlood flood-opacity="0" result="BackgroundImageFix"/>
<feGaussianBlur in="BackgroundImageFix" stdDeviation="25"/>
<feComposite in2="SourceAlpha" operator="in" result="effect1_backgroundBlur_0_1"/>
<feBlend mode="normal" in="SourceGraphic" in2="effect1_backgroundBlur_0_1" result="shape"/>
</filter>
</defs>
</svg>
