<svg width="7" height="6" viewBox="0 0 7 6" fill="none" xmlns="http://www.w3.org/2000/svg">
<path d="M1.89531 0.718164C1.89531 0.860542 1.85309 0.999722 1.77399 1.1181C1.69489 1.23649 1.58246 1.32875 1.45092 1.38324C1.31938 1.43773 1.17464 1.45198 1.035 1.42421C0.895358 1.39643 0.767089 1.32787 0.666413 1.22719C0.565737 1.12652 0.497175 0.998246 0.469399 0.858604C0.441622 0.718963 0.455878 0.57422 0.510364 0.442681C0.564849 0.311141 0.657117 0.198712 0.7755 0.119612C0.893882 0.0405109 1.03306 -0.00170898 1.17544 -0.00170898C1.36636 -0.00170898 1.54946 0.0741347 1.68447 0.209137C1.81947 0.344139 1.89531 0.527242 1.89531 0.718164ZM3.62374 -0.00170898C3.48136 -0.00170898 3.34218 0.0405109 3.2238 0.119612C3.10542 0.198712 3.01315 0.311141 2.95866 0.442681C2.90418 0.57422 2.88992 0.718963 2.9177 0.858604C2.94547 0.998246 3.01403 1.12652 3.11471 1.22719C3.21539 1.32787 3.34366 1.39643 3.4833 1.42421C3.62294 1.45198 3.76768 1.43773 3.89922 1.38324C4.03076 1.32875 4.14319 1.23649 4.22229 1.1181C4.30139 0.999722 4.34361 0.860542 4.34361 0.718164C4.34361 0.527242 4.26777 0.344139 4.13276 0.209137C3.99776 0.0741347 3.81466 -0.00170898 3.62374 -0.00170898ZM5.95157 -0.0012207C5.80919 -0.0012207 5.67001 0.0409991 5.55163 0.1201C5.43325 0.1992 5.34098 0.311629 5.28649 0.443169C5.23201 0.574708 5.21775 0.719451 5.24553 0.859093C5.2733 0.998734 5.34187 1.127 5.44254 1.22768C5.54322 1.32836 5.67149 1.39692 5.81113 1.42469C5.95077 1.45247 6.09551 1.43821 6.22705 1.38373C6.35859 1.32924 6.47102 1.23697 6.55012 1.11859C6.62922 1.00021 6.67144 0.86103 6.67144 0.718652C6.67144 0.52773 6.5956 0.344628 6.4606 0.209625C6.32559 0.0746228 6.14249 -0.0012207 5.95157 -0.0012207ZM1.17544 2.20737C1.03306 2.20737 0.893882 2.24959 0.7755 2.32869C0.657117 2.40779 0.564849 2.52022 0.510364 2.65176C0.455878 2.7833 0.441622 2.92804 0.469399 3.06768C0.497175 3.20732 0.565737 3.33559 0.666413 3.43627C0.767089 3.53695 0.895358 3.60551 1.035 3.63328C1.17464 3.66106 1.31938 3.6468 1.45092 3.59232C1.58246 3.53783 1.69489 3.44556 1.77399 3.32718C1.85309 3.2088 1.89531 3.06962 1.89531 2.92724C1.89531 2.73632 1.81947 2.55322 1.68447 2.41822C1.54946 2.28321 1.36636 2.20737 1.17544 2.20737ZM3.62374 2.20737C3.48136 2.20737 3.34218 2.24959 3.2238 2.32869C3.10542 2.40779 3.01315 2.52022 2.95866 2.65176C2.90418 2.7833 2.88992 2.92804 2.9177 3.06768C2.94547 3.20732 3.01403 3.33559 3.11471 3.43627C3.21539 3.53695 3.34366 3.60551 3.4833 3.63328C3.62294 3.66106 3.76768 3.6468 3.89922 3.59232C4.03076 3.53783 4.14319 3.44556 4.22229 3.32718C4.30139 3.2088 4.34361 3.06962 4.34361 2.92724C4.34361 2.73632 4.26777 2.55322 4.13276 2.41822C3.99776 2.28321 3.81466 2.20737 3.62374 2.20737ZM5.95157 2.20786C5.80919 2.20786 5.67001 2.25008 5.55163 2.32918C5.43325 2.40828 5.34098 2.52071 5.28649 2.65225C5.23201 2.78379 5.21775 2.92853 5.24553 3.06817C5.2733 3.20781 5.34187 3.33608 5.44254 3.43676C5.54322 3.53743 5.67149 3.606 5.81113 3.63377C5.95077 3.66155 6.09551 3.64729 6.22705 3.59281C6.35859 3.53832 6.47102 3.44605 6.55012 3.32767C6.62922 3.20929 6.67144 3.07011 6.67144 2.92773C6.67144 2.73681 6.5956 2.55371 6.4606 2.4187C6.32559 2.2837 6.14249 2.20786 5.95157 2.20786ZM3.62374 4.52182C3.48136 4.52182 3.34218 4.56404 3.2238 4.64314C3.10542 4.72224 3.01315 4.83467 2.95866 4.96621C2.90418 5.09775 2.88992 5.24249 2.9177 5.38213C2.94547 5.52178 3.01403 5.65004 3.11471 5.75072C3.21539 5.8514 3.34366 5.91996 3.4833 5.94773C3.62294 5.97551 3.76768 5.96125 3.89922 5.90677C4.03076 5.85228 4.14319 5.76002 4.22229 5.64163C4.30139 5.52325 4.34361 5.38407 4.34361 5.24169C4.34361 5.05077 4.26777 4.86767 4.13276 4.73267C3.99776 4.59766 3.81466 4.52182 3.62374 4.52182Z" fill="#C8FFD3" fill-opacity="0.25"/>
</svg>
