<svg width="30" height="26" viewBox="0 0 30 26" fill="none" xmlns="http://www.w3.org/2000/svg">
<path d="M28.8266 13.7626V12.7631C28.8266 13.144 28.6521 13.5246 28.3025 13.8237C24.2523 17.291 20.2009 20.7572 16.1511 24.2247C15.8097 24.517 15.4052 24.6673 14.9243 24.6673C14.372 24.6523 13.9173 24.5036 13.5416 24.1821C9.53878 20.7546 5.53349 17.3297 1.53256 13.901C1.17607 13.5953 0.982422 13.1782 0.982422 12.7582V13.7577C0.982422 14.1777 1.17607 14.5948 1.53256 14.9005C5.53349 18.3292 9.53878 21.7541 13.5416 25.1816C13.9173 25.5031 14.3721 25.5622 14.9243 25.5772C15.4052 25.5772 15.8097 25.5165 16.1511 25.2242C20.2009 21.7567 24.2524 18.2906 28.3025 14.8231C28.6521 14.5241 28.8266 14.1433 28.8266 13.7626Z" fill="#FC0747"/>
<path d="M14.8698 0.856567C15.3342 0.856567 15.7992 1.00969 16.1533 1.31625C20.1498 4.77702 24.1464 8.23779 28.1421 11.6992C28.8343 12.2987 28.8359 13.2245 28.1443 13.8238C24.1421 17.2911 20.1384 20.7573 16.1364 24.2247C15.799 24.5171 15.3993 24.6674 14.9241 24.6674C14.3784 24.6523 13.9288 24.5037 13.5575 24.1821C9.60207 20.7546 5.64407 17.3297 1.69037 13.901C1.1312 13.4159 0.977587 12.6499 1.35068 12.0376C1.4626 11.8538 1.59825 11.6998 1.76376 11.5565C5.70775 8.14241 9.65065 4.7275 13.5939 1.31251C13.945 1.00866 14.4071 0.856567 14.8698 0.856567Z" fill="#FC0747" fill-opacity="0.1"/>
<path d="M16.3169 1.12726L16.3169 1.12724C15.9122 0.776881 15.3871 0.606567 14.8698 0.606567C14.3544 0.606567 13.8321 0.775742 13.4303 1.12347L13.4302 1.12353L12.1941 2.19406C8.66295 5.25219 5.13198 8.31016 1.60014 11.3674L1.60009 11.3675C1.41783 11.5254 1.26437 11.6986 1.1372 11.9075C0.693706 12.6353 0.885615 13.5338 1.52654 14.0898L1.52658 14.0899C3.93218 16.176 6.33947 18.2609 8.74675 20.3457C10.2959 21.6874 11.8451 23.029 13.3938 24.371L13.3939 24.3711C13.8177 24.7381 14.3267 24.901 14.9172 24.9173L14.9172 24.9174H14.9241C15.4578 24.9174 15.9161 24.7465 16.3001 24.4137C18.414 22.5821 20.5282 20.7511 22.6424 18.92C24.531 17.2844 26.4196 15.6488 28.308 14.0127L28.3081 14.0127C28.7035 13.67 28.9127 13.2218 28.9121 12.7613C28.9116 12.3009 28.7014 11.8529 28.3058 11.5102C24.3811 8.11034 20.4556 4.71105 16.5301 1.3118L16.3169 1.12726Z" stroke="#FC0747" stroke-opacity="0.5" stroke-width="0.5"/>
<g filter="url(#filter0_d_233_5820)">
<path d="M18.7605 9.79578C18.8084 9.83713 18.8267 9.87902 18.8267 9.93691C18.8252 12.0364 18.8254 14.1359 18.8252 16.2354C18.8252 16.3504 18.7974 16.3749 18.667 16.3749C17.4126 16.375 16.1581 16.3751 14.9035 16.3751C13.649 16.3751 12.3945 16.375 11.14 16.3749C11.0098 16.3749 10.9822 16.3505 10.9822 16.2353V12.0616V7.90484C10.9822 7.77762 11.0057 7.75685 11.1499 7.75665L12.8704 7.75669C14.0173 7.75669 15.1643 7.75652 16.3113 7.75549C16.3788 7.75549 16.4259 7.77262 16.4732 7.81377C17.2345 8.47573 17.997 9.1364 18.7605 9.79578Z" fill="#FC0747" fill-opacity="0.1" shape-rendering="crispEdges"/>
<path d="M18.7605 9.79578C18.8084 9.83713 18.8267 9.87902 18.8267 9.93691C18.8252 12.0364 18.8254 14.1359 18.8252 16.2354C18.8252 16.3504 18.7974 16.3749 18.667 16.3749C17.4126 16.375 16.1581 16.3751 14.9035 16.3751C13.649 16.3751 12.3945 16.375 11.14 16.3749C11.0098 16.3749 10.9822 16.3505 10.9822 16.2353V12.0616V7.90484C10.9822 7.77762 11.0057 7.75685 11.1499 7.75665L12.8704 7.75669C14.0173 7.75669 15.1643 7.75652 16.3113 7.75549C16.3788 7.75549 16.4259 7.77262 16.4732 7.81377C17.2345 8.47573 17.997 9.1364 18.7605 9.79578Z" stroke="#FC0747" stroke-width="0.5" shape-rendering="crispEdges"/>
</g>
<path d="M14.1949 9.72009C14.2376 9.72009 14.2803 9.72014 14.323 9.72016C14.3817 9.7202 14.4404 9.72031 14.4991 9.72048C14.6774 9.72105 14.7746 9.80695 14.7749 9.9616C14.7751 10.117 14.6792 10.2041 14.5007 10.2044C14.3735 10.2047 14.2463 10.2048 14.1191 10.2049C14.0086 10.205 13.8979 10.2051 13.7873 10.2051H13.7521C13.6099 10.2051 13.4677 10.205 13.3254 10.2049C13.177 10.2048 13.0286 10.2045 12.8802 10.2043C12.7029 10.2039 12.6024 10.1146 12.6024 9.96315C12.6022 9.8102 12.7025 9.72107 12.8784 9.72048C12.9441 9.72031 13.0097 9.72022 13.0753 9.72014L13.2269 9.72011C13.3021 9.72014 13.3773 9.72014 13.4525 9.72022C13.5345 9.72025 13.6165 9.72031 13.6985 9.72031C13.7852 9.72031 13.8719 9.72025 13.9587 9.72018L14.1949 9.72009Z" fill="#FC0747"/>
<path d="M16.5583 13.0865C16.6788 13.0865 16.7992 13.0866 16.9197 13.0867C17.0486 13.0867 17.1553 13.1431 17.1931 13.2294C17.2057 13.2582 17.2122 13.289 17.2126 13.3199C17.213 13.3611 17.2027 13.4016 17.1825 13.4374C17.1623 13.4733 17.133 13.5031 17.0976 13.524C17.0488 13.5534 16.9778 13.5667 16.9169 13.5671C16.7254 13.5679 16.5338 13.5685 16.3424 13.5687C16.1651 13.569 15.9879 13.569 15.8106 13.569H15.783C15.6447 13.569 15.5063 13.569 15.3679 13.5689C15.2135 13.5689 15.0592 13.5688 14.9047 13.5688C14.4578 13.5688 14.0106 13.5689 13.5634 13.5689C13.3399 13.5689 13.1163 13.5689 12.8928 13.5688C12.7554 13.5688 12.6487 13.5128 12.6128 13.4235C12.6009 13.3942 12.5947 13.3629 12.5945 13.3312C12.5944 13.2526 12.6341 13.1777 12.714 13.1299C12.7628 13.1007 12.8343 13.0885 12.8956 13.0884C13.1897 13.0877 13.4837 13.0872 13.7777 13.087C14.0673 13.0868 14.357 13.0867 14.6467 13.0867H14.6597C15.0518 13.0867 15.4437 13.0869 15.8357 13.0869C15.9486 13.0869 16.0616 13.0868 16.1745 13.0868C16.3023 13.0866 16.4304 13.0865 16.5583 13.0865Z" fill="#FC0747"/>
<path d="M14.9028 10.8419C15.5736 10.8419 16.2444 10.8419 16.9152 10.8421C17.0498 10.8421 17.1584 10.8998 17.1947 10.9893C17.2066 11.0184 17.2125 11.0487 17.2126 11.0786C17.213 11.1551 17.1756 11.2296 17.1014 11.2777C17.0581 11.3059 16.9955 11.3254 16.9415 11.3254C16.5182 11.3262 16.0948 11.3268 15.6716 11.3271C15.265 11.3274 14.8585 11.3275 14.452 11.3275H14.4239C14.1718 11.3275 13.92 11.3275 13.6679 11.3274C13.4014 11.3273 13.1347 11.3272 12.8682 11.3271C12.7035 11.3269 12.6021 11.2311 12.6023 11.0831C12.6026 10.9347 12.7028 10.8425 12.871 10.8423C13.302 10.842 13.7329 10.8419 14.1638 10.8422C14.3009 10.8422 14.438 10.8422 14.5752 10.8421C14.6844 10.842 14.7936 10.842 14.9028 10.8419Z" fill="#FC0747"/>
<path d="M16.6111 11.9642H16.6244C16.7264 11.9643 16.8284 11.9644 16.9304 11.9647C17.1056 11.9653 17.2057 12.0554 17.2053 12.2088C17.2049 12.3596 17.1024 12.4476 16.9256 12.4476C16.587 12.4478 16.2484 12.4479 15.9097 12.4479L12.8915 12.4478C12.7563 12.4478 12.6481 12.3905 12.6122 12.301C12.6008 12.2725 12.5947 12.2422 12.5945 12.2115C12.5941 12.1288 12.6373 12.0489 12.722 12.0021C12.7722 11.9744 12.844 11.9662 12.9063 11.966C13.2294 11.9653 13.5525 11.9649 13.8756 11.9647C14.1824 11.9645 14.4891 11.9644 14.7958 11.9644L14.8082 11.9643L14.8229 11.9644C15.0286 11.9644 15.234 11.9644 15.4396 11.9645C15.6598 11.9645 15.88 11.9645 16.1001 11.9646C16.1938 11.9646 16.2875 11.9645 16.3812 11.9644C16.4578 11.9643 16.5345 11.9643 16.6111 11.9642Z" fill="#FC0747"/>
<path d="M12.866 14.2081L12.8855 14.2082C14.2304 14.2082 15.5751 14.2082 16.9197 14.2084C17.1084 14.2084 17.2067 14.296 17.2052 14.4598C17.2041 14.6002 17.1011 14.6914 16.9366 14.6925C16.8881 14.6928 16.8397 14.693 16.7912 14.6932C16.7383 14.6933 16.6854 14.6934 16.6325 14.6934L16.5946 14.6934C16.5206 14.6934 16.4466 14.6932 16.3726 14.6932C16.2903 14.693 16.2081 14.6928 16.1259 14.6928C15.7155 14.6928 15.3053 14.6928 14.8952 14.6931C14.6645 14.6931 14.4338 14.6925 14.2031 14.6921C14.069 14.6918 13.935 14.6916 13.801 14.6916C13.5047 14.6916 13.2085 14.6925 12.9122 14.6959C12.7239 14.6943 12.5762 14.5895 12.601 14.4109C12.6151 14.3114 12.7121 14.2184 12.8269 14.2092C12.8399 14.2084 12.853 14.208 12.866 14.2081Z" fill="#FC0747"/>
<defs>
<filter id="filter0_d_233_5820" x="10.7322" y="7.50549" width="8.34448" height="10.1196" filterUnits="userSpaceOnUse" color-interpolation-filters="sRGB">
<feFlood flood-opacity="0" result="BackgroundImageFix"/>
<feColorMatrix in="SourceAlpha" type="matrix" values="0 0 0 0 0 0 0 0 0 0 0 0 0 0 0 0 0 0 127 0" result="hardAlpha"/>
<feOffset dy="1"/>
<feComposite in2="hardAlpha" operator="out"/>
<feColorMatrix type="matrix" values="0 0 0 0 0.988235 0 0 0 0 0.027451 0 0 0 0 0.278431 0 0 0 0.25 0"/>
<feBlend mode="normal" in2="BackgroundImageFix" result="effect1_dropShadow_233_5820"/>
<feBlend mode="normal" in="SourceGraphic" in2="effect1_dropShadow_233_5820" result="shape"/>
</filter>
</defs>
</svg>
