<svg width="9" height="11" viewBox="0 0 9 11" fill="none" xmlns="http://www.w3.org/2000/svg">
<path d="M4.80361 0.445765C4.07908 0.438441 3.35454 0.623984 2.70058 1.00239C2.41124 1.17085 2.30774 1.5517 2.47005 1.85199C2.63237 2.15471 2.99934 2.26213 3.28868 2.09368C4.22257 1.5517 5.35877 1.56391 6.28325 2.12542C7.20538 2.68693 7.76995 3.70986 7.76995 4.82067V5.44566C7.76995 5.78989 8.04047 6.07065 8.37216 6.07065C8.70384 6.07065 8.97437 5.78989 8.97437 5.44566V4.82067C8.97437 4.80847 8.97437 4.79626 8.97201 4.78649C8.96025 3.24844 8.16985 1.82513 6.89016 1.04634C6.24561 0.65328 5.52578 0.453089 4.80125 0.445765H4.80361ZM1.6726 2.21575C1.63261 2.21575 1.59262 2.22063 1.55498 2.2304C1.39972 2.26702 1.26328 2.36711 1.1786 2.50871C0.76458 3.20206 0.543457 4.00282 0.543457 4.82067V7.98467C0.543457 8.3289 0.81398 8.60966 1.14566 8.60966C1.47735 8.60966 1.74787 8.3289 1.74787 7.98467V4.82067C1.74787 4.23719 1.90548 3.66347 2.20188 3.16788C2.37831 2.87491 2.29127 2.49162 2.00899 2.30852C1.90783 2.2426 1.79022 2.21087 1.6726 2.21575ZM4.75891 2.32073C3.43452 2.32073 2.35008 3.44619 2.35008 4.82067V5.44566C2.35008 5.78989 2.6206 6.07065 2.95229 6.07065C3.28397 6.07065 3.5545 5.78989 3.5545 5.44566V4.82067C3.5545 4.12245 4.08613 3.5707 4.75891 3.5707C5.43169 3.5707 5.96333 4.12245 5.96333 4.82067V7.94561C5.96333 7.94561 5.96803 8.22148 6.06918 8.53398C6.17034 8.84647 6.37029 9.25173 6.74196 9.63747C6.9772 9.8816 7.35828 9.8816 7.59352 9.63747C7.82876 9.39333 7.82876 8.99783 7.59352 8.7537C7.36299 8.51444 7.26184 8.29472 7.21244 8.13848C7.16304 7.98223 7.16774 7.94561 7.16774 7.94561V4.82067C7.16774 3.44619 6.0833 2.32073 4.75891 2.32073ZM4.75891 4.19569C4.42723 4.19569 4.1567 4.47644 4.1567 4.82067V7.94561C4.1567 7.94561 4.1567 8.31669 4.24374 8.77079C4.33078 9.22488 4.49309 9.80348 4.93534 10.2625C5.17058 10.5066 5.55166 10.5066 5.7869 10.2625C6.02214 10.0183 6.02214 9.62282 5.7869 9.37868C5.62694 9.21267 5.48815 8.85379 5.42463 8.52665C5.36112 8.19951 5.36112 7.94561 5.36112 7.94561V4.82067C5.36112 4.47644 5.0906 4.19569 4.75891 4.19569ZM2.95229 6.69563C2.6206 6.69563 2.35008 6.97639 2.35008 7.32062V9.19558C2.35008 9.53981 2.6206 9.82057 2.95229 9.82057C3.28397 9.82057 3.5545 9.53981 3.5545 9.19558V7.32062C3.5545 6.97639 3.28397 6.69563 2.95229 6.69563ZM8.37216 6.69563C8.04047 6.69563 7.76995 6.97639 7.76995 7.32062C7.76995 7.66485 8.04047 7.94561 8.37216 7.94561C8.70384 7.94561 8.97437 7.66485 8.97437 7.32062C8.97437 6.97639 8.70384 6.69563 8.37216 6.69563Z" fill="#C8FFD3"/>
</svg>
