<svg width="14" height="13" viewBox="0 0 14 13" fill="none" xmlns="http://www.w3.org/2000/svg">
<path d="M7.00244 0.477057C5.40342 0.460809 3.86338 1.0801 2.72076 2.19882C1.57815 3.31754 0.926459 4.84416 0.90892 6.44316C0.915082 7.70683 1.32159 8.93603 2.07005 9.95422C2.81851 10.9724 3.87041 11.7272 5.07467 12.1101C5.37934 12.1655 5.49014 11.9827 5.49014 11.8221C5.49014 11.6614 5.49014 11.3069 5.49014 10.8083C3.79503 11.1684 3.43496 10.0106 3.43496 10.0106C3.32212 9.64719 3.08222 9.3365 2.75913 9.13539C2.20518 8.76978 2.80345 8.77532 2.80345 8.77532C2.99493 8.80091 3.17812 8.86953 3.3393 8.97602C3.50047 9.08251 3.63545 9.22412 3.7341 9.39021C3.90601 9.6883 4.18808 9.90699 4.51961 9.9992C4.85114 10.0914 5.20562 10.0498 5.50675 9.88323C5.53772 9.57987 5.6751 9.29728 5.89452 9.08553C4.54287 8.93596 3.12474 8.42632 3.12474 6.13849C3.11266 5.5417 3.33317 4.96361 3.73963 4.52648C3.55452 4.0141 3.57638 3.44976 3.80057 2.95324C3.80057 2.95324 4.31575 2.79259 5.46244 3.56259C6.46061 3.2966 7.51103 3.2966 8.5092 3.56259C9.6725 2.79259 10.1711 2.95324 10.1711 2.95324C10.3953 3.44976 10.4171 4.0141 10.232 4.52648C10.6479 4.9556 10.8804 5.52981 10.8801 6.12741C10.8801 8.42078 9.45092 8.92488 8.11035 9.07445C8.25714 9.21697 8.37052 9.39024 8.44236 9.5818C8.5142 9.77337 8.5427 9.97847 8.52581 10.1824V11.8165C8.52581 11.8165 8.63661 12.1655 8.94128 12.1046C10.1421 11.7193 11.1905 10.9643 11.9366 9.94757C12.6828 8.93082 13.0885 7.70429 13.096 6.44316C13.0784 4.84416 12.4267 3.31754 11.2841 2.19882C10.1415 1.0801 8.60145 0.460809 7.00244 0.477057Z" fill="#C8FFD3"/>
</svg>
