<svg width="1356" height="6" viewBox="0 0 1356 6" fill="none" xmlns="http://www.w3.org/2000/svg">
<path d="M422.606 0.765755L422.606 0.515755L422.503 0.515723L422.43 0.588532L422.606 0.765755ZM418.791 4.56234V4.81234H418.894L418.967 4.73956L418.791 4.56234ZM0.0556477 4.56234L1.49902 6.00571L2.9424 4.56234L1.49902 3.11896L0.0556477 4.56234ZM1141.43 0.765755L1141.59 0.577015L1141.52 0.515726L1141.43 0.515755L1141.43 0.765755ZM1145.8 4.56234L1145.64 4.75108L1145.71 4.81234H1145.8V4.56234ZM1355.94 4.56234L1354.5 3.11896L1353.06 4.56234L1354.5 6.00571L1355.94 4.56234ZM422.43 0.588532L418.614 4.38511L418.967 4.73956L422.783 0.942978L422.43 0.588532ZM418.791 4.31234L1.49902 4.31234L1.49902 4.81234H418.791V4.31234ZM1141.27 0.954495L1145.64 4.75108L1145.96 4.3736L1141.59 0.577015L1141.27 0.954495ZM1145.8 4.81234H1354.5V4.31234H1145.8V4.81234ZM1141.43 0.515755C832.476 0.611894 731.56 0.611894 422.606 0.515755L422.606 1.01575C731.56 1.11189 832.476 1.11189 1141.43 1.01576L1141.43 0.515755Z" fill="#C8FFF4" fill-opacity="0.25"/>
</svg>
