<svg width="16" height="16" viewBox="0 0 16 16" fill="none" xmlns="http://www.w3.org/2000/svg">
  <path d="M15.5103 2.02935C13.2465 2.02935 11.1665 3.73012 10.7339 5.60274C10.6391 6.01756 10.5324 7.10202 10.5324 7.10202L9.36499 9.94651C9.34129 9.99392 9.33536 10.0473 9.33536 10.1006C9.33536 10.3199 9.51314 10.4976 9.73833 10.4976H10.5798V11.6769C10.5798 12.7673 11.4154 13.6977 12.4999 13.6977H13.2465V15.4755H15.5577V2.02935C15.4984 2.02935 15.5281 2.02935 15.5103 2.02935ZM11.8539 7.77166C11.5576 7.77166 11.3206 7.53462 11.3206 7.23832C11.3206 6.94202 11.5576 6.70498 11.8539 6.70498C12.1502 6.70498 12.3873 6.94202 12.3873 7.23832C12.3873 7.53462 12.1502 7.77166 11.8539 7.77166ZM0.92041 15.4399V0.364136L8.62424 2.11231V13.6977L0.92041 15.4399ZM1.57227 1.176V14.6221L7.97238 13.1703V2.62788L1.57227 1.176ZM3.34415 7.63536C3.34415 6.23682 4.00194 5.10495 4.81381 5.10495C5.62567 5.10495 6.28346 6.23682 6.28346 7.63536C6.28346 9.03391 5.62567 10.1658 4.81381 10.1658C4.00194 10.1658 3.34415 9.02798 3.34415 7.63536Z" fill="#C8FFD3" />
</svg>