<svg width="11" height="11" viewBox="0 0 11 11" fill="none" xmlns="http://www.w3.org/2000/svg">
<path d="M5.21154 0.614258H10.7673V2.00321H5.21154V0.614258Z" fill="#C8FFD3"/>
<path d="M5.21154 3.39215H10.7673V4.7811H5.21154V3.39215Z" fill="#C8FFD3"/>
<path d="M10.7673 6.17005H5.21154V7.55899H10.7673V6.17005Z" fill="#C8FFD3"/>
<path d="M5.21154 8.94794H10.7673V10.3369H5.21154V8.94794Z" fill="#C8FFD3"/>
<path d="M2.63403 7.38538H1.0447V6.17005H2.63403C3.3384 6.17005 3.9094 6.74105 3.9094 7.44538C3.9094 7.7956 3.76539 8.13041 3.51116 8.37125L2.71919 9.12156H3.82259V10.3369H1.0447V9.03378L2.67533 7.48899C2.68729 7.47767 2.69407 7.46191 2.69407 7.44538C2.69407 7.41225 2.66719 7.38538 2.63403 7.38538Z" fill="#C8FFD3"/>
<path d="M1.9878 0.701067L0.852539 1.07949L1.23686 2.23245L1.82599 2.03607V4.7811H3.04131V0.701067H1.9878Z" fill="#C8FFD3"/>
</svg>
