<svg width="207" height="70" viewBox="0 0 207 70" fill="none" xmlns="http://www.w3.org/2000/svg">
<g opacity="0.25">
<rect x="192.686" y="0.590027" width="13.6991" height="13.6991" fill="#C8FFD3" fill-opacity="0.08"/>
<rect x="55.6936" y="0.589905" width="13.6991" height="13.6991" fill="#C8FFD3" fill-opacity="0.08"/>
<rect x="83.0916" y="0.590027" width="13.6991" height="13.6991" fill="#C8FFD3" fill-opacity="0.08"/>
<rect x="96.7905" y="0.589844" width="13.6991" height="13.6991" fill="#DFE8E8" fill-opacity="0.06"/>
<rect x="110.491" y="0.590027" width="13.6991" height="13.6991" fill="#C8FFD3" fill-opacity="0.02"/>
<rect x="124.191" y="0.590027" width="13.6991" height="13.6991" fill="#C8FFD3" fill-opacity="0.08"/>
<rect x="137.889" y="0.590027" width="13.6991" height="13.6991" fill="#DFE8E8" fill-opacity="0.06"/>
<path d="M151.589 0.589844H165.288V14.289H151.589V0.589844Z" fill="#C8FFD3" fill-opacity="0.08"/>
<rect x="178.987" y="0.589844" width="13.6991" height="13.6991" fill="#C8FFD3" fill-opacity="0.08"/>
<rect x="192.686" y="14.2899" width="13.6991" height="13.6991" fill="#C8FFD3" fill-opacity="0.02"/>
<rect x="69.3926" y="14.2899" width="13.6991" height="13.6991" fill="#C8FFD3" fill-opacity="0.08"/>
<rect x="96.7905" y="14.2897" width="13.6991" height="13.6991" fill="#C8FFD3" fill-opacity="0.08"/>
<rect x="124.191" y="14.2899" width="13.6991" height="13.6991" fill="#C8FFD3" fill-opacity="0.08"/>
<rect x="137.889" y="14.2899" width="13.6991" height="13.6991" fill="#DFE8E8" fill-opacity="0.06"/>
<rect x="165.288" y="14.2899" width="13.6991" height="13.6991" fill="#C8FFD3" fill-opacity="0.08"/>
<rect x="178.987" y="14.2897" width="13.6991" height="13.6991" fill="#C8FFD3" fill-opacity="0.08"/>
<rect x="55.6936" y="27.9887" width="13.6991" height="13.6991" fill="#C8FFD3" fill-opacity="0.08"/>
<rect x="69.3926" y="27.9889" width="13.6991" height="13.6991" fill="#C8FFD3" fill-opacity="0.08"/>
<rect x="83.0916" y="27.9885" width="13.6991" height="13.6991" fill="#C8FFD3" fill-opacity="0.02"/>
<rect x="124.191" y="27.9889" width="13.6991" height="13.6991" fill="#C8FFD3" fill-opacity="0.02"/>
<rect x="137.889" y="27.9885" width="13.6991" height="13.6991" fill="#C8FFD3" fill-opacity="0.08"/>
<path d="M151.589 27.9885H165.288V41.6876H151.589V27.9885Z" fill="#C8FFD3" fill-opacity="0.02"/>
<rect x="165.288" y="27.9885" width="13.6991" height="13.6991" fill="#DFE8E8" fill-opacity="0.06"/>
<rect x="192.686" y="41.6882" width="13.6991" height="13.6991" fill="#C8FFD3" fill-opacity="0.08"/>
<rect x="83.0916" y="41.6882" width="13.6991" height="13.6991" fill="#C8FFD3" fill-opacity="0.08"/>
<rect x="110.491" y="41.6882" width="13.6991" height="13.6991" fill="#C8FFD3" fill-opacity="0.08"/>
<rect x="124.191" y="41.6889" width="13.6991" height="13.6991" fill="#C8FFD3" fill-opacity="0.08"/>
<rect x="165.288" y="41.6878" width="13.6991" height="13.6991" fill="#C8FFD3" fill-opacity="0.08"/>
<rect x="192.686" y="55.388" width="13.6991" height="13.6991" fill="#DFE8E8" fill-opacity="0.06"/>
<rect x="69.3926" y="55.3878" width="13.6991" height="13.6991" fill="#C8FFD3" fill-opacity="0.08"/>
<rect x="83.0916" y="55.3874" width="13.6991" height="13.6991" fill="#C8FFD3" fill-opacity="0.08"/>
<rect x="96.7905" y="55.3878" width="13.6991" height="13.6991" fill="#C8FFD3" fill-opacity="0.02"/>
<rect x="110.491" y="55.388" width="13.6991" height="13.6991" fill="#C8FFD3" fill-opacity="0.08"/>
<rect x="124.191" y="55.3874" width="13.6991" height="13.6991" fill="#C8FFD3" fill-opacity="0.02"/>
<rect x="137.889" y="55.3874" width="13.6991" height="13.6991" fill="#C8FFD3" fill-opacity="0.08"/>
<path d="M151.589 55.3878H165.288V69.087H151.589V55.3878Z" fill="#C8FFD3" fill-opacity="0.08"/>
<rect x="178.987" y="55.3874" width="13.6991" height="13.6991" fill="#C8FFD3" fill-opacity="0.08"/>
<rect x="41.9944" y="0.589355" width="13.6991" height="13.6991" fill="#C8FFD3" fill-opacity="0.02"/>
<rect x="0.895996" y="0.589478" width="13.6991" height="13.6991" fill="#C8FFD3" fill-opacity="0.02"/>
<rect x="41.9944" y="14.2892" width="13.6991" height="13.6991" fill="#C8FFD3" fill-opacity="0.08"/>
<rect x="0.895996" y="14.2894" width="13.6991" height="13.6991" fill="#C8FFD3" fill-opacity="0.08"/>
<rect x="14.5947" y="14.2892" width="13.6991" height="13.6991" fill="#C8FFD3" fill-opacity="0.02"/>
<rect x="28.2939" y="27.9875" width="13.6991" height="13.6991" fill="#C8FFD3" fill-opacity="0.08"/>
<rect x="41.9944" y="27.988" width="13.6991" height="13.6991" fill="#C8FFD3" fill-opacity="0.02"/>
<rect x="14.5947" y="27.9875" width="13.6991" height="13.6991" fill="#C8FFD3" fill-opacity="0.08"/>
<rect x="28.2939" y="41.6876" width="13.6991" height="13.6991" fill="#C8FFD3" fill-opacity="0.08"/>
<rect x="41.9944" y="41.6874" width="13.6991" height="13.6991" fill="#DFE8E8" fill-opacity="0.06"/>
<rect x="28.2939" y="55.3873" width="13.6991" height="13.6991" fill="#C8FFD3" fill-opacity="0.08"/>
<rect x="41.9944" y="55.387" width="13.6991" height="13.6991" fill="#C8FFD3" fill-opacity="0.08"/>
<rect x="0.895996" y="55.3866" width="13.6991" height="13.6991" fill="#C8FFD3" fill-opacity="0.02"/>
<rect x="14.5947" y="55.3866" width="13.6991" height="13.6991" fill="#C8FFD3" fill-opacity="0.02"/>
</g>
<path d="M78.3531 34.0241V33.2099C78.3531 32.5621 78.6105 31.9408 79.0685 31.4828C79.5266 31.0247 80.1479 30.7674 80.7957 30.7674C81.4435 30.7674 82.0648 31.0247 82.5228 31.4828C82.9809 31.9408 83.2382 32.5621 83.2382 33.2099V34.0241H83.6453C83.8613 34.0241 84.0684 34.1099 84.2211 34.2626C84.3737 34.4153 84.4595 34.6224 84.4595 34.8383V38.0951C84.4595 38.311 84.3737 38.5181 84.2211 38.6708C84.0684 38.8235 83.8613 38.9092 83.6453 38.9092H77.946C77.7301 38.9092 77.523 38.8235 77.3703 38.6708C77.2176 38.5181 77.1318 38.311 77.1318 38.0951V34.8383C77.1318 34.3905 77.4982 34.0241 77.946 34.0241H78.3531ZM80.3886 36.7639V37.688H81.2028V36.7639C81.358 36.6742 81.4793 36.5359 81.5479 36.3703C81.6165 36.2047 81.6285 36.0211 81.5821 35.848C81.5357 35.6749 81.4335 35.5219 81.2913 35.4128C81.1491 35.3037 80.9749 35.2446 80.7957 35.2446C80.6164 35.2446 80.4422 35.3037 80.3 35.4128C80.1578 35.5219 80.0556 35.6749 80.0092 35.848C79.9628 36.0211 79.9749 36.2047 80.0435 36.3703C80.1121 36.5359 80.2334 36.6742 80.3886 36.7639ZM79.5744 33.2099V34.0241H82.017V33.2099C82.017 32.886 81.8883 32.5754 81.6593 32.3464C81.4302 32.1173 81.1196 31.9886 80.7957 31.9886C80.4718 31.9886 80.1611 32.1173 79.9321 32.3464C79.7031 32.5754 79.5744 32.886 79.5744 33.2099Z" fill="#C8FFD3"/>
<path d="M92.9228 38.7792V31.9392C92.9228 31.8592 92.9728 31.8092 93.0528 31.8092H94.1328C94.2128 31.8092 94.2628 31.8592 94.2628 31.9392V37.7192H97.6628C97.7428 37.7192 97.7928 37.7692 97.7928 37.8492V38.7792C97.7928 38.8592 97.7428 38.9092 97.6628 38.9092H93.0528C92.9728 38.9092 92.9228 38.8592 92.9228 38.7792ZM98.7576 34.1992C98.7576 32.5892 99.8376 31.7092 101.388 31.7092C102.938 31.7092 103.998 32.6092 103.998 34.1992V36.5192C103.998 38.1092 102.938 39.0092 101.388 39.0092C99.8376 39.0092 98.7576 38.1292 98.7576 36.5192V34.1992ZM100.098 36.4792C100.098 37.3192 100.558 37.8192 101.388 37.8192C102.208 37.8192 102.668 37.3192 102.668 36.4792V34.2392C102.668 33.3992 102.208 32.8992 101.388 32.8992C100.558 32.8992 100.098 33.3992 100.098 34.2392V36.4792ZM110.296 34.3892H109.226C109.146 34.3892 109.096 34.3392 109.096 34.2592V34.2392C109.096 33.3992 108.696 32.8992 107.846 32.8992C106.996 32.8992 106.596 33.3892 106.596 34.2392V36.4792C106.596 37.3192 106.996 37.8192 107.836 37.8192C108.686 37.8192 109.096 37.3292 109.096 36.4792V36.4592C109.096 36.3792 109.146 36.3292 109.226 36.3292H110.296C110.376 36.3292 110.426 36.3792 110.426 36.4592V36.5192C110.426 38.1292 109.406 39.0092 107.836 39.0092C106.286 39.0092 105.256 38.1192 105.256 36.5192V34.1992C105.256 32.5892 106.286 31.7092 107.846 31.7092C109.406 31.7092 110.426 32.5992 110.426 34.1992V34.2592C110.426 34.3392 110.376 34.3892 110.296 34.3892ZM111.827 31.8092H112.907C112.987 31.8092 113.037 31.8592 113.037 31.9392V34.8292L115.377 31.8892C115.417 31.8392 115.477 31.8092 115.537 31.8092H116.837C116.917 31.8092 116.937 31.8492 116.887 31.9192L114.467 34.9492L116.937 38.7892C116.977 38.8592 116.947 38.9092 116.867 38.9092H115.587C115.527 38.9092 115.457 38.8692 115.437 38.8192L113.637 36.0092L113.037 36.7492V38.7792C113.037 38.8592 112.987 38.9092 112.907 38.9092H111.827C111.747 38.9092 111.697 38.8592 111.697 38.7792V31.9392C111.697 31.8592 111.747 31.8092 111.827 31.8092ZM118.394 31.8092H122.944C123.024 31.8092 123.074 31.8592 123.074 31.9392V32.8692C123.074 32.9492 123.024 32.9992 122.944 32.9992H119.604V34.7692H122.644C122.724 34.7692 122.774 34.8192 122.774 34.8992V35.8192C122.774 35.8992 122.724 35.9492 122.644 35.9492H119.604V37.7192H122.944C123.024 37.7192 123.074 37.7692 123.074 37.8492V38.7792C123.074 38.8592 123.024 38.9092 122.944 38.9092H118.394C118.314 38.9092 118.264 38.8592 118.264 38.7792V31.9392C118.264 31.8592 118.314 31.8092 118.394 31.8092ZM124.333 38.8792V31.8392C124.333 31.7592 124.383 31.7092 124.463 31.7092H127.103C128.183 31.7092 129.363 32.2292 129.363 33.8592V36.8592C129.363 38.4892 128.183 39.0092 127.103 39.0092H124.463C124.383 39.0092 124.333 38.9592 124.333 38.8792ZM125.673 37.8192H126.953C127.823 37.8192 128.033 37.4392 128.033 36.2592V34.4592C128.033 33.2792 127.823 32.8992 126.953 32.8992H125.673V37.8192Z" fill="#C8FFD3"/>
</svg>
