<svg width="67" height="11" viewBox="0 0 67 11" fill="none" xmlns="http://www.w3.org/2000/svg">
<path d="M14.6254 0.584777H18.4057C19.9738 0.584777 21.007 1.63013 21.007 3.18601V6.94199C21.007 8.49786 19.9738 9.54322 18.4057 9.54322H14.6254C14.4309 9.54322 14.2972 9.40951 14.2972 9.21503V0.91297C14.2972 0.718486 14.4309 0.584777 14.6254 0.584777ZM16.2056 7.71993H18.3936C18.819 7.71993 19.1107 7.44036 19.1107 7.00277V3.12523C19.1107 2.6998 18.819 2.40807 18.3936 2.40807H16.2056V7.71993Z" fill="white"/>
<path d="M26.5891 0.584777H28.3273L25.8841 5.98172V9.25149C25.8841 9.44597 25.7504 9.56753 25.5559 9.56753H24.3039C24.1094 9.56753 23.9757 9.44597 23.9757 9.25149V5.98172L21.5325 0.584777H23.2707C23.453 0.584777 23.611 0.70633 23.6596 0.864349L24.9238 3.75731L26.188 0.864349C26.2487 0.70633 26.4067 0.584777 26.5891 0.584777Z" fill="white"/>
<path d="M29.7004 0.584777H33.6265C35.1094 0.584777 36.0819 1.56935 36.0819 3.0523V3.58713C36.0819 5.05792 35.1094 5.96957 33.6265 5.96957H31.2805V9.25149C31.2805 9.44597 31.1468 9.56753 30.9523 9.56753H29.7004C29.5059 9.56753 29.3722 9.44597 29.3722 9.25149V0.91297C29.3722 0.718486 29.5059 0.584777 29.7004 0.584777ZM33.6143 2.40807H31.2805V4.14627H33.6143C33.9547 4.14627 34.1856 3.92748 34.1856 3.57498V2.97937C34.1856 2.63902 33.9547 2.40807 33.6143 2.40807Z" fill="white"/>
<path d="M37.5091 9.26365V0.864349C37.5091 0.68202 37.6306 0.560467 37.8251 0.560467H39.1136C39.2959 0.560467 39.4174 0.68202 39.4174 0.864349V4.15843H42.3226V0.864349C42.3226 0.68202 42.4441 0.560467 42.6264 0.560467H43.9149C44.0972 0.560467 44.2188 0.68202 44.2188 0.864349V9.26365C44.2188 9.44598 44.0972 9.56753 43.9149 9.56753H42.6264C42.4441 9.56753 42.3226 9.44598 42.3226 9.26365V5.98172H39.4174V9.26365C39.4174 9.44598 39.2959 9.56753 39.1136 9.56753H37.8251C37.6306 9.56753 37.5091 9.44598 37.5091 9.26365Z" fill="white"/>
<path d="M45.4851 7.37958L48.8157 2.09203V0.91297C48.8157 0.718486 48.9494 0.584777 49.1439 0.584777H50.3958C50.5903 0.584777 50.724 0.718486 50.724 0.91297V2.35945C50.724 2.49316 50.6633 2.65117 50.5903 2.74842L47.2719 8.04812V9.25149C47.2719 9.44597 47.1382 9.57968 46.9437 9.57968H45.6918C45.4973 9.57968 45.3636 9.44597 45.3636 9.25149V7.76855C45.3636 7.647 45.4122 7.48898 45.4851 7.37958Z" fill="white"/>
<path d="M56.5032 9.2758L54.7164 5.96957H53.7683V9.25149C53.7683 9.44597 53.6346 9.56753 53.4401 9.56753H52.1881C51.9936 9.56753 51.8599 9.44597 51.8599 9.25149V0.91297C51.8599 0.718486 51.9936 0.584777 52.1881 0.584777H56.1142C57.5972 0.584777 58.5696 1.56935 58.5696 3.0523V3.58713C58.5696 4.85128 57.8524 5.68999 56.722 5.90879L58.7033 9.56753H56.9894C56.7949 9.56753 56.6005 9.45813 56.5032 9.2758ZM56.1021 2.40807H53.7683V4.14627H56.1021C56.4424 4.14627 56.6734 3.92748 56.6734 3.57498V2.97937C56.6734 2.63902 56.4424 2.40807 56.1021 2.40807Z" fill="white"/>
<path d="M63.8156 0.840038L66.1858 9.54322H64.5084C64.3382 9.54322 64.2045 9.43382 64.1681 9.2758L63.9007 8.18183H61.7127L61.4331 9.2758C61.3967 9.43382 61.263 9.54322 61.0928 9.54322H59.4275L61.7978 0.840038C61.8343 0.694175 61.968 0.584777 62.1138 0.584777H63.4874C63.6454 0.584777 63.7791 0.694175 63.8156 0.840038ZM62.1624 6.395H63.4509L62.8067 3.81808L62.1624 6.395Z" fill="white"/>
<path d="M5.66411 0.0928555C2.9165 0.0928555 0.68689 2.32247 0.68689 5.07008C0.68689 7.81768 2.9165 10.0473 5.66411 10.0473C8.41172 10.0473 10.6413 7.81768 10.6413 5.07008C10.6413 2.32247 8.40421 0.0928555 5.66411 0.0928555ZM5.66411 9.37916C3.27685 9.37916 1.34752 7.44983 1.34752 5.07008C1.34752 2.69032 3.27685 0.753482 5.66411 0.753482C8.04387 0.753482 9.9807 2.68281 9.9807 5.07008C9.9732 7.44983 8.04387 9.37916 5.66411 9.37916Z" fill="white"/>
<path d="M7.21058 3.90647C6.76766 4.34939 6.69259 5.01753 6.97786 5.54302L6.03947 6.48141V4.52956C6.61751 4.36441 7.03791 3.8314 7.03791 3.20831C7.03791 2.45009 6.42233 1.827 5.6566 1.827C4.89838 1.827 4.27529 2.44258 4.27529 3.20831C4.27529 3.83891 4.69569 4.36441 5.27374 4.52956V6.47391L4.34286 5.54302C4.63563 5.01753 4.55306 4.34939 4.11014 3.90647C3.56962 3.36596 2.6988 3.36596 2.15829 3.90647C1.61777 4.44698 1.61777 5.31781 2.15829 5.85832C2.60121 6.30124 3.27685 6.37632 3.79484 6.09104L5.27374 7.56995V8.95126H6.03947V7.56244L7.51837 6.08354C8.04387 6.37631 8.712 6.29374 9.15492 5.85082C9.69543 5.3103 9.69543 4.43948 9.15492 3.89897C8.62191 3.36596 7.75109 3.36596 7.21058 3.90647Z" fill="white"/>
</svg>
