<svg width="98" height="97" viewBox="0 0 98 97" fill="none" xmlns="http://www.w3.org/2000/svg">
<g filter="url(#filter0_b_1_1899)">
<path d="M48.9999 0.659729C22.4911 0.659729 0.979797 22.171 0.979797 48.6798C0.979797 75.1887 22.4911 96.7 48.9999 96.7C75.5087 96.7 97.02 75.1887 97.02 48.6798C97.02 22.171 75.4363 0.659729 48.9999 0.659729ZM48.9999 90.2538C25.9676 90.2538 7.35352 71.6397 7.35352 48.6798C7.35352 25.72 25.9676 7.03344 48.9999 7.03344C71.9597 7.03344 90.6463 25.6476 90.6463 48.6798C90.5739 71.6397 71.9597 90.2538 48.9999 90.2538Z" fill="#C8FFD3"/>
<path d="M63.9202 37.4534C59.6469 41.7267 58.9226 48.1728 61.6749 53.2428L52.6213 62.2964V43.465C58.1983 41.8716 62.2543 36.7291 62.2543 30.7176C62.2543 23.4023 56.3152 17.3907 48.9275 17.3907C41.6122 17.3907 35.6006 23.3299 35.6006 30.7176C35.6006 36.8016 39.6566 41.8716 45.2336 43.465V62.224L36.2525 53.2428C39.0772 48.1728 38.2805 41.7267 34.0072 37.4534C28.7923 32.2386 20.3907 32.2386 15.1758 37.4534C9.96095 42.6683 9.96095 51.07 15.1758 56.2849C19.4491 60.5581 25.9676 61.2824 30.9652 58.5301L45.2336 72.7985V86.1254H52.6213V72.7261L66.8897 58.4577C71.9597 61.2824 78.4059 60.4857 82.6791 56.2124C87.894 50.9976 87.894 42.5958 82.6791 37.381C77.5367 32.2386 69.135 32.2386 63.9202 37.4534Z" fill="#C8FFD3"/>
</g>
<defs>
<filter id="filter0_b_1_1899" x="-19.0202" y="-19.3403" width="136.04" height="136.04" filterUnits="userSpaceOnUse" color-interpolation-filters="sRGB">
<feFlood flood-opacity="0" result="BackgroundImageFix"/>
<feGaussianBlur in="BackgroundImageFix" stdDeviation="10"/>
<feComposite in2="SourceAlpha" operator="in" result="effect1_backgroundBlur_1_1899"/>
<feBlend mode="normal" in="SourceGraphic" in2="effect1_backgroundBlur_1_1899" result="shape"/>
</filter>
</defs>
</svg>
