<svg width="13" height="15" viewBox="0 0 13 15" fill="none" xmlns="http://www.w3.org/2000/svg">
  <path d="M3.90629 3.16165C3.90629 1.69611 5.09434 0.508057 6.55988 0.508057C8.02541 0.508057 9.21347 1.69611 9.21347 3.16165V6.69977C9.21347 8.1653 8.02541 9.35336 6.55988 9.35336C5.09434 9.35336 3.90629 8.1653 3.90629 6.69977V3.16165Z" fill="#C8FFD3" />
  <path d="M7.44441 12.8288V14.6605H5.67535V12.8288C2.67476 12.3996 0.368164 9.81906 0.368164 6.69977V5.81524H2.13722V6.69977C2.13722 9.14233 4.11732 11.1224 6.55988 11.1224C9.00242 11.1224 10.9825 9.14233 10.9825 6.69977V5.81524H12.7516V6.69977C12.7516 9.81906 10.445 12.3996 7.44441 12.8288Z" fill="#C8FFD3" />
</svg>