<svg width="10" height="11" viewBox="0 0 10 11" fill="none" xmlns="http://www.w3.org/2000/svg">
<path fill-rule="evenodd" clip-rule="evenodd" d="M7.31506 7.59991H3.08215V4.61197C3.08215 3.28433 4.14038 2.62001 5.19808 2.62001H5.19914C6.25684 2.62001 7.31506 3.28433 7.31506 4.61197V7.59991ZM5.72772 9.09388C5.72772 9.36877 5.49068 9.59187 5.19861 9.59187C4.90654 9.59187 4.66949 9.36877 4.66949 9.09388V8.59589H5.72772V9.09388ZM8.37329 7.59991V4.61197C8.37329 2.84261 7.12035 1.86057 5.72772 1.66337V0.628056H4.66949V1.66337C3.27687 1.86057 2.02393 2.84261 2.02393 4.61197V7.59991H0.965698V8.59589H3.61127V9.09388C3.61127 9.91904 4.32187 10.5878 5.19861 10.5878C6.07535 10.5878 6.78595 9.91904 6.78595 9.09388V8.59589H9.43152V7.59991H8.37329Z" fill="#C8FFD3"/>
</svg>
