<svg width="7" height="10" viewBox="0 0 7 10" fill="none" xmlns="http://www.w3.org/2000/svg">
<path d="M3.56348 4.60308C3.9363 4.60308 4.30075 4.49253 4.61075 4.2854C4.92074 4.07826 5.16235 3.78386 5.30502 3.43942C5.4477 3.09497 5.48503 2.71595 5.41229 2.35029C5.33956 1.98463 5.16003 1.64875 4.8964 1.38512C4.63277 1.1215 4.29689 0.941964 3.93123 0.869229C3.56557 0.796495 3.18655 0.833825 2.8421 0.976499C2.49766 1.11917 2.20326 1.36078 1.99613 1.67078C1.789 1.98077 1.67844 2.34522 1.67844 2.71805C1.67904 3.2178 1.87783 3.69692 2.23122 4.05031C2.5846 4.40369 3.06372 4.60248 3.56348 4.60308ZM3.56348 1.58702C3.78717 1.58702 4.00584 1.65336 4.19184 1.77763C4.37783 1.90191 4.5228 2.07855 4.6084 2.28522C4.69401 2.49189 4.71641 2.7193 4.67277 2.9387C4.62913 3.15809 4.52141 3.35962 4.36323 3.5178C4.20505 3.67597 4.00352 3.78369 3.78413 3.82733C3.56473 3.87098 3.33732 3.84858 3.13065 3.76297C2.92399 3.67737 2.74734 3.5324 2.62307 3.34641C2.49879 3.16041 2.43245 2.94174 2.43245 2.71805C2.43245 2.41808 2.55162 2.1304 2.76372 1.91829C2.97583 1.70618 3.26351 1.58702 3.56348 1.58702ZM0.547418 9.12717H6.57954C6.67952 9.12717 6.77542 9.08745 6.84612 9.01675C6.91682 8.94604 6.95654 8.85015 6.95654 8.75016C6.95654 7.85027 6.59906 6.98723 5.96274 6.3509C5.32641 5.71458 4.46337 5.3571 3.56348 5.3571C2.66358 5.3571 1.80054 5.71458 1.16422 6.3509C0.527893 6.98723 0.17041 7.85027 0.17041 8.75016C0.17041 8.85015 0.21013 8.94604 0.280833 9.01675C0.351536 9.08745 0.447429 9.12717 0.547418 9.12717ZM3.56348 6.11111C4.19789 6.1119 4.81086 6.34084 5.29045 6.75614C5.77005 7.17143 6.08428 7.74537 6.17576 8.37315H0.951192C1.04268 7.74537 1.3569 7.17143 1.8365 6.75614C2.3161 6.34084 2.92906 6.1119 3.56348 6.11111Z" fill="#C8FFD3" fill-opacity="0.25"/>
</svg>
