<svg width="10" height="11" viewBox="0 0 10 11" fill="none" xmlns="http://www.w3.org/2000/svg">
<path d="M6.3858 9.64844H7.46677V8.03347H9.08173V6.9525H7.46677V5.33754H6.3858V6.9525H4.77083V8.03347H6.3858V9.64844Z" fill="#C8FFD3"/>
<path fill-rule="evenodd" clip-rule="evenodd" d="M5.48709 4.87502C5.12785 5.11506 4.7055 5.24318 4.27344 5.24318C3.69428 5.24249 3.13904 5.01211 2.72952 4.60258C2.31999 4.19306 2.08962 3.63782 2.08892 3.05866C2.08892 2.62661 2.21704 2.20425 2.45708 1.84501C2.69712 1.48577 3.03829 1.20577 3.43746 1.04043C3.83663 0.875092 4.27586 0.831831 4.69962 0.916121C5.12337 1.00041 5.51261 1.20847 5.81812 1.51398C6.12364 1.81949 6.33169 2.20873 6.41598 2.63249C6.50027 3.05624 6.45701 3.49547 6.29167 3.89464C6.20528 4.10321 6.08759 4.29594 5.94365 4.46668C5.79583 4.60384 5.65522 4.76268 5.48709 4.87502ZM5.00163 1.96885C4.78609 1.82482 4.53267 1.74795 4.27344 1.74795C3.92582 1.74795 3.59243 1.88605 3.34663 2.13185C3.10082 2.37766 2.96273 2.71104 2.96273 3.05866C2.96273 3.3179 3.0396 3.57131 3.18362 3.78685C3.32765 4.0024 3.53235 4.1704 3.77185 4.2696C4.01135 4.36881 4.27489 4.39476 4.52915 4.34419C4.7834 4.29361 5.01694 4.16878 5.20025 3.98548C5.38356 3.80217 5.50839 3.56862 5.55896 3.31437C5.60954 3.06012 5.58358 2.79658 5.48438 2.55708C5.38517 2.31758 5.21718 2.11287 5.00163 1.96885Z" fill="#C8FFD3"/>
<path d="M4.4193 6.11969C4.37079 6.11789 4.32216 6.11699 4.27344 6.11699C4.22472 6.11699 4.17609 6.11789 4.12758 6.11969H4.4193Z" fill="#C8FFD3"/>
<path d="M3.89997 6.13475C2.99416 6.22114 2.14187 6.61982 1.493 7.26868C0.755585 8.0061 0.341309 9.00625 0.341309 10.0491C0.341309 10.165 0.387339 10.2761 0.469275 10.3581C0.55121 10.44 0.662338 10.486 0.778212 10.486H5.55284V9.61221H1.24614C1.35215 8.88469 1.7163 8.21957 2.27209 7.7383C2.73307 7.33913 3.30036 7.08852 3.89997 7.01411V6.13475Z" fill="#C8FFD3"/>
</svg>
