<svg width="10" height="11" viewBox="0 0 10 11" fill="none" xmlns="http://www.w3.org/2000/svg">
<path d="M5.9924 0.202788C3.74376 0.0644175 1.85042 1.47901 1.89323 3.78382L1.89153 3.99242L0.914591 5.71756C0.862043 5.81051 0.857363 5.92305 0.902116 6.02031C0.946502 6.11759 1.03511 6.18746 1.13986 6.20791L1.74361 6.37455L1.93312 8.20407C1.93833 8.38023 2.01671 8.54602 2.14954 8.66218C2.28254 8.77766 2.45819 8.83265 2.63332 8.81303L3.11553 8.85153C3.20951 8.84097 3.30386 8.87095 3.37424 8.93408C3.44481 8.99737 3.48505 9.08769 3.48505 9.18237V10.6135H7.56388C7.56388 10.6135 7.56388 9.92282 7.56388 9.64469C7.56388 9.36657 7.65978 8.73073 7.84219 8.43976C8.50337 7.38254 9.57982 6.82004 9.76136 4.65153C9.94291 2.48334 8.64884 0.366475 5.9924 0.202788ZM8.80404 4.23499C8.60395 4.23499 8.395 4.23499 8.395 4.23499C8.29548 4.23483 8.21466 4.15404 8.21448 4.0545V3.80254C8.21448 3.71029 8.1394 3.63521 8.04715 3.63521C7.95473 3.63521 7.87966 3.71029 7.87966 3.80254V4.0545C7.87982 4.33921 8.11044 4.56967 8.395 4.56984C8.39551 4.56984 8.56562 4.56984 8.74596 4.56984C8.55366 5.36347 8.02393 5.66241 7.49281 5.36243C7.1467 5.16667 7.17616 4.87448 7.01476 4.63207V3.7467C7.01476 3.65445 6.93966 3.57937 6.84724 3.57937C6.75483 3.57937 6.67991 3.65447 6.67991 3.7467V4.36954C6.43958 4.26656 6.05689 4.20048 5.41791 4.20048C5.24487 4.20048 5.08517 4.19909 4.93621 4.19631V3.52371C4.93621 3.43111 4.86114 3.35619 4.76872 3.35619C4.67629 3.35619 4.60139 3.43111 4.60139 3.52371V4.18713C3.24732 4.13442 3.04826 3.9168 2.94181 3.36957C2.93747 3.33696 2.93436 3.30473 2.93157 3.27263H3.64233C3.97941 3.27263 4.25269 2.99935 4.25269 2.66245V2.39888C4.25269 2.30646 4.17763 2.23155 4.08518 2.23155C3.99276 2.23155 3.91787 2.30646 3.91787 2.39888V2.66245C3.91752 2.81452 3.79441 2.93765 3.64233 2.93797H2.93069C2.97162 2.47223 3.19166 2.09145 3.53361 1.74326C3.79492 1.47673 4.11727 1.27022 4.48297 1.12994C4.48297 1.34636 4.48297 1.55755 4.48297 1.64235C4.48398 1.78593 4.53429 1.93228 4.63104 2.05675C4.67958 2.1185 4.74133 2.17434 4.81675 2.2149C4.89164 2.25581 4.98095 2.28043 5.07615 2.28027C5.34508 2.28027 5.61421 2.28027 5.61421 2.28027C5.70662 2.28027 5.78154 2.20519 5.78154 2.11294C5.78154 2.02052 5.70662 1.94545 5.61421 1.94545C5.61421 1.94545 5.34508 1.94545 5.07615 1.94545C5.03695 1.94526 5.00557 1.93625 4.97576 1.92029C4.93153 1.89671 4.89026 1.85319 4.86114 1.79977C4.83218 1.74706 4.81726 1.68531 4.81777 1.64233C4.81777 1.54367 4.81777 1.27387 4.81777 1.02381C5.09538 0.952029 5.39172 0.914053 5.70159 0.914053C5.78031 0.914053 5.86007 0.916475 5.93985 0.921501C6.6421 0.964687 7.25004 1.18489 7.72618 1.56323V3.03521C7.72618 3.12781 7.80128 3.20287 7.8937 3.20287C7.98611 3.20287 8.06101 3.12779 8.06101 3.03521V1.87904C8.06988 1.88891 8.07906 1.89846 8.08789 1.90851C8.56752 2.46356 8.82604 3.22945 8.81928 4.04182C8.81601 4.10896 8.81064 4.17274 8.80404 4.23499Z" fill="#FC0747"/>
<path d="M6.67991 1.9472C6.5875 1.9472 6.51242 2.02227 6.51242 2.11469V2.6557C6.51224 2.77255 6.41758 2.86792 6.30034 2.8681H5.70332C5.61091 2.8681 5.53599 2.94283 5.53599 3.03527C5.53599 3.12787 5.61091 3.20293 5.70332 3.20293H6.30034C6.60258 3.20242 6.84724 2.95792 6.84724 2.6557V2.11469C6.84724 2.02227 6.77233 1.9472 6.67991 1.9472Z" fill="#FC0747"/>
</svg>
