<svg width="10" height="10" viewBox="0 0 10 10" fill="none" xmlns="http://www.w3.org/2000/svg">
<path d="M8.0547 3.91479C7.79574 3.91883 7.54396 4.00053 7.33197 4.1493C7.11997 4.29807 6.95753 4.50705 6.86566 4.7492H5.09253C5.03149 4.50243 4.92541 4.26906 4.77963 4.06081L5.50974 3.20554C5.65791 3.25525 5.81248 3.28335 5.96867 3.28898C6.21621 3.28898 6.4582 3.21557 6.66403 3.07804C6.86985 2.94051 7.03028 2.74504 7.12501 2.51633C7.21974 2.28763 7.24453 2.03597 7.19623 1.79318C7.14794 1.55039 7.02874 1.32738 6.85369 1.15233C6.67865 0.977292 6.45564 0.858087 6.21285 0.809793C5.97006 0.7615 5.7184 0.786286 5.48969 0.881018C5.26099 0.97575 5.06551 1.13617 4.92799 1.342C4.79046 1.54783 4.71705 1.78981 4.71705 2.03736C4.71777 2.25687 4.77526 2.47245 4.88393 2.66317L4.13296 3.51844C3.8657 3.3674 3.56381 3.28833 3.25683 3.28898L2.9022 3.3307L2.65188 2.74661C2.86558 2.54849 3.00345 2.282 3.04172 1.99311C3.07998 1.70422 3.01624 1.41103 2.86149 1.1641C2.70673 0.917176 2.47067 0.731986 2.194 0.64047C1.91733 0.548953 1.61739 0.556846 1.34592 0.662787C1.07445 0.768728 0.848446 0.966077 0.706894 1.2208C0.565343 1.47553 0.517111 1.77166 0.570516 2.05814C0.623922 2.34462 0.775617 2.60348 0.999443 2.7901C1.22327 2.97671 1.5052 3.07937 1.79661 3.08038H1.88005L2.15123 3.66446C1.91422 3.83668 1.72133 4.06254 1.58834 4.32358C1.45534 4.58462 1.386 4.87343 1.386 5.1664C1.386 5.45937 1.45534 5.74819 1.58834 6.00923C1.72133 6.27027 1.91422 6.49613 2.15123 6.66835L1.88005 7.25243H1.79661C1.5052 7.25344 1.22327 7.3561 0.999443 7.54271C0.775617 7.72933 0.623922 7.98819 0.570516 8.27467C0.517111 8.56115 0.565343 8.85728 0.706894 9.11201C0.848446 9.36673 1.07445 9.56408 1.34592 9.67002C1.61739 9.77596 1.91733 9.78386 2.194 9.69234C2.47067 9.60082 2.70673 9.41563 2.86149 9.16871C3.01624 8.92178 3.07998 8.62859 3.04172 8.3397C3.00345 8.05081 2.86558 7.78432 2.65188 7.5862L2.9022 7.00211L3.25683 7.04383C3.56381 7.04448 3.8657 6.96541 4.13296 6.81437L4.88393 7.66964C4.77526 7.86036 4.71777 8.07594 4.71705 8.29545C4.71705 8.54299 4.79046 8.78498 4.92799 8.99081C5.06551 9.19664 5.26099 9.35706 5.48969 9.45179C5.7184 9.54652 5.97006 9.57131 6.21285 9.52302C6.45564 9.47472 6.67865 9.35552 6.85369 9.18048C7.02874 9.00543 7.14794 8.78242 7.19623 8.53963C7.24453 8.29684 7.21974 8.04518 7.12501 7.81648C7.03028 7.58777 6.86985 7.3923 6.66403 7.25477C6.4582 7.11724 6.21621 7.04383 5.96867 7.04383C5.81248 7.04946 5.65791 7.07756 5.50974 7.12727L4.77963 6.272C4.92541 6.06375 5.03149 5.83038 5.09253 5.58361H6.86566C6.95753 5.82576 7.11997 6.03474 7.33197 6.18351C7.54396 6.33228 7.79574 6.41398 8.0547 6.41802C8.38665 6.41802 8.705 6.28616 8.93972 6.05143C9.17445 5.81671 9.30631 5.49835 9.30631 5.1664C9.30631 4.83445 9.17445 4.5161 8.93972 4.28138C8.705 4.04665 8.38665 3.91479 8.0547 3.91479Z" fill="#C8FFD3"/>
</svg>
