<svg width="17" height="18" viewBox="0 0 17 18" fill="none" xmlns="http://www.w3.org/2000/svg">
<path d="M8.38261 2.77352L11.1594 5.55026L12.0985 4.61107L8.38261 0.895142L4.67122 4.61107L5.60587 5.55026L8.38261 2.77352Z" fill="#C8FFD3"/>
<path d="M8.38261 15.8042L5.60587 13.0275L4.67122 13.9667L8.38261 17.6826L12.0985 13.9667L11.1594 13.0275L8.38261 15.8042Z" fill="#C8FFD3"/>
<path d="M12.5386 5.93139C11.9171 6.17639 10.2065 7.23355 9.02235 8.01848C9.0042 8.0094 8.99059 8.00033 8.97244 7.99125C8.84994 6.38056 8.58678 3.9668 8.38261 3.21817C8.1739 3.9668 7.91075 6.36695 7.78371 7.98218C7.77917 7.98218 7.77463 7.98672 7.77463 7.98672C6.62673 7.15188 4.96613 6.0312 4.35815 5.75897C4.70298 6.32612 6.03236 7.82338 7.00785 8.85331C6.96248 8.98943 6.93526 9.13008 6.93526 9.28434C6.93526 9.41592 6.95794 9.53842 6.9897 9.65639C5.96884 10.6455 4.58047 12.0883 4.21296 12.6373C4.83002 12.3923 6.53599 11.3397 7.72018 10.5502C7.73833 10.5593 7.76102 10.5729 7.77917 10.582C7.90167 12.1927 8.16483 14.5974 8.36446 15.346C8.56863 14.5974 8.83633 12.1881 8.96337 10.5774H8.9679C10.1158 11.4123 11.7809 12.5375 12.3889 12.8097C12.0396 12.2426 10.7056 10.7317 9.72561 9.70176C9.76644 9.57018 9.79367 9.42953 9.79367 9.28434C9.79367 9.1573 9.77098 9.03934 9.74376 8.92137C10.7737 7.93681 12.1666 6.48946 12.5386 5.93139Z" fill="white"/>
<path d="M3.11497 6.16278L0.00701904 9.27527L3.0696 12.3424L4.00879 11.4032L1.88086 9.27527L4.05416 7.10197L3.11497 6.16278Z" fill="#C8FFD3"/>
<path d="M13.7138 6.22176L12.7746 7.16095L14.9025 9.28888L12.7292 11.4622L13.6684 12.3968L16.7764 9.28888L13.7138 6.22176Z" fill="#C8FFD3"/>
</svg>
