<svg width="11" height="11" viewBox="0 0 11 11" fill="none" xmlns="http://www.w3.org/2000/svg">
<path fill-rule="evenodd" clip-rule="evenodd" d="M1.59643 8.43697L2.53539 9.37594L3.73721 9.04114L4.08091 9.18289L4.6979 10.2661H6.02538L6.63895 9.1792L6.9823 9.03524L8.18401 9.36589L9.12252 8.42737L8.78773 7.22556L8.92951 6.88179L10.0127 6.26435V4.93691L8.92534 4.32335L8.78139 3.98004L9.11205 2.77833L8.17389 1.84017L6.97206 2.17544L6.62866 2.03381L6.0126 0.949644H4.68478L4.07122 2.037L3.72791 2.18095L2.5264 1.85035L1.58677 2.78861L1.92163 3.99062L1.77997 4.3341L0.695801 4.95017V6.27799L1.78305 6.89149L1.92713 7.23558L1.59643 8.43697ZM2.82138 7.17831L2.45218 6.29653L1.54279 5.78339V5.44306L2.45185 4.9265L2.81576 4.0441L2.53554 3.03818L2.77645 2.79762L3.78545 3.07525L4.6663 2.70592L5.17938 1.79663H5.51971L6.03627 2.70569L6.91874 3.06964L7.92486 2.78897L8.16467 3.02878L7.88709 4.03758L8.25642 4.91843L9.1657 5.43151V5.77222L8.25738 6.28998L7.89359 7.17208L8.17387 8.1782L7.93356 8.41851L6.92476 8.14093L6.04395 8.51024L5.53088 9.41912H5.19021L4.67286 8.51083L3.79069 8.147L2.78456 8.42728L2.54385 8.18657L2.82138 7.17831ZM5.35425 7.30207C6.28981 7.30207 7.04823 6.54365 7.04823 5.60809C7.04823 4.67253 6.28981 3.91411 5.35425 3.91411C4.41869 3.91411 3.66027 4.67253 3.66027 5.60809C3.66027 6.54365 4.41869 7.30207 5.35425 7.30207ZM5.35425 6.45508C4.88647 6.45508 4.50726 6.07587 4.50726 5.60809C4.50726 5.14031 4.88647 4.7611 5.35425 4.7611C5.82203 4.7611 6.20124 5.14031 6.20124 5.60809C6.20124 6.07587 5.82203 6.45508 5.35425 6.45508Z" fill="#C8FFD3"/>
</svg>
