<svg width="10" height="10" viewBox="0 0 10 10" fill="none" xmlns="http://www.w3.org/2000/svg">
<path d="M5.0896 0.363281C4.21289 0.363281 3.50225 1.06593 3.46712 1.93466C1.99316 2.56065 1.00146 4.01865 1.00146 5.67786C1.00146 5.74812 0.998271 5.82477 1.00146 5.90781C0.517596 6.19207 0.183838 6.71426 0.183838 7.31311C0.183838 8.21218 0.920021 8.94836 1.81909 8.94836C2.05384 8.94836 2.2806 8.89886 2.48341 8.80783C3.19245 9.40349 4.11547 9.76599 5.0896 9.76599C6.06373 9.76599 6.98675 9.40349 7.69579 8.80783C7.8986 8.89886 8.12536 8.94836 8.36011 8.94836C9.25918 8.94836 9.99536 8.21218 9.99536 7.31311C9.99536 6.70787 9.65841 6.17769 9.16496 5.89504C9.17135 5.82956 9.17773 5.76249 9.17773 5.67786C9.17773 4.01865 8.18604 2.56065 6.71208 1.93466C6.67695 1.06593 5.96631 0.363281 5.0896 0.363281ZM5.0896 1.18091C5.54632 1.18091 5.90723 1.54181 5.90723 1.99854C5.90723 2.45526 5.54632 2.81616 5.0896 2.81616C4.63288 2.81616 4.27197 2.45526 4.27197 1.99854C4.27197 1.54181 4.63288 1.18091 5.0896 1.18091ZM3.64598 2.75228C3.92065 3.27288 4.4636 3.63379 5.0896 3.63379C5.7156 3.63379 6.25855 3.27288 6.53322 2.75228C7.62872 3.28406 8.36011 4.40191 8.36011 5.67786C7.46104 5.67786 6.72485 6.41404 6.72485 7.31311C6.72485 7.67881 6.85101 8.01097 7.05701 8.28404C6.51087 8.69765 5.80822 8.94836 5.0896 8.94836C4.37098 8.94836 3.66833 8.69765 3.12218 8.28404C3.32819 8.01097 3.45435 7.67881 3.45435 7.31311C3.45435 6.41404 2.71816 5.67786 1.81909 5.67786C1.81909 4.40191 2.55049 3.28406 3.64598 2.75228ZM1.81909 6.49548C2.27581 6.49548 2.63672 6.85639 2.63672 7.31311C2.63672 7.76983 2.27581 8.13074 1.81909 8.13074C1.36237 8.13074 1.00146 7.76983 1.00146 7.31311C1.00146 6.85639 1.36237 6.49548 1.81909 6.49548ZM8.36011 6.49548C8.81683 6.49548 9.17773 6.85639 9.17773 7.31311C9.17773 7.76983 8.81683 8.13074 8.36011 8.13074C7.90339 8.13074 7.54248 7.76983 7.54248 7.31311C7.54248 6.85639 7.90339 6.49548 8.36011 6.49548Z" fill="#C8FFD3"/>
</svg>
