<svg width="244" height="38" viewBox="0 0 244 38" fill="none" xmlns="http://www.w3.org/2000/svg">
  <rect x="0.0119629" y="25.3347" width="2.61426" height="12.1655" rx="1.30713" fill="#C8FFF4" fill-opacity="0.5" />
  <rect x="6.03296" y="34.9783" width="2.61426" height="2.52197" rx="1.26099" fill="#C8FFF4" fill-opacity="0.5" />
  <rect x="12.054" y="35.6672" width="2.61426" height="1.83301" rx="0.916504" fill="#C8FFF4" fill-opacity="0.5" />
  <rect x="18.075" y="27.3152" width="2.61426" height="10.1851" rx="1.30713" fill="#C8FFF4" fill-opacity="0.5" />
  <rect x="24.0959" y="20.2546" width="2.61426" height="17.2456" rx="1.30713" fill="#C8FFF4" fill-opacity="0.5" />
  <rect x="30.1169" y="19.6951" width="2.61426" height="17.8052" rx="1.30713" fill="#C8FFF4" fill-opacity="0.5" />
  <rect x="36.1379" y="19.6951" width="2.61426" height="17.8052" rx="1.30713" fill="#C8FFF4" fill-opacity="0.5" />
  <rect x="42.1589" y="17.8438" width="2.61426" height="19.6565" rx="1.30713" fill="#C8FFF4" fill-opacity="0.5" />
  <rect x="48.1799" y="19.6951" width="2.61426" height="17.8052" rx="1.30713" fill="#C8FFF4" fill-opacity="0.5" />
  <rect x="54.2009" y="25.9807" width="2.61426" height="11.5195" rx="1.30713" fill="#C8FFF4" fill-opacity="0.5" />
  <rect x="60.2219" y="30.9316" width="2.61426" height="6.5686" rx="1.30713" fill="#C8FFF4" fill-opacity="0.5" />
  <rect x="66.2429" y="26.9277" width="2.61426" height="10.5725" rx="1.30713" fill="#C8FFF4" fill-opacity="0.5" />
  <rect x="72.2639" y="11.4722" width="2.61426" height="26.0281" rx="1.30713" fill="#C8FFF4" fill-opacity="0.5" />
  <rect x="78.2849" y="0.580322" width="2.61426" height="36.9199" rx="1.30713" fill="#C8FFF4" fill-opacity="0.5" />
  <rect x="84.3059" y="3.29248" width="2.61426" height="34.2078" rx="1.30713" fill="#C8FFF4" fill-opacity="0.5" />
  <rect x="90.3269" y="15.2178" width="2.61426" height="22.2825" rx="1.30713" fill="#C8FFF4" fill-opacity="0.5" />
  <rect x="96.3479" y="21.4602" width="2.61426" height="16.04" rx="1.30713" fill="#C8FFF4" fill-opacity="0.5" />
  <rect x="102.369" y="15.2178" width="2.61426" height="22.2825" rx="1.30713" fill="#C8FFF4" fill-opacity="0.5" />
  <rect x="108.39" y="10.8696" width="2.61426" height="26.6306" rx="1.30713" fill="#C8FFF4" fill-opacity="0.5" />
  <rect x="114.411" y="14.572" width="2.61426" height="22.9282" rx="1.30713" fill="#C8FFF4" fill-opacity="0.5" />
  <rect x="120.432" y="20.2979" width="2.61426" height="17.2024" rx="1.30713" fill="#C8FFF4" fill-opacity="0.5" />
  <rect x="126.453" y="20.2979" width="2.61426" height="17.2024" rx="1.30713" fill="#C8FFF4" fill-opacity="0.5" />
  <rect x="132.474" y="20.2979" width="2.61426" height="17.2024" rx="1.30713" fill="#C8FFF4" fill-opacity="0.5" />
  <rect x="138.495" y="26.6265" width="2.61426" height="10.8738" rx="1.30713" fill="#C8FFF4" fill-opacity="0.5" />
  <rect x="144.516" y="28.7358" width="2.61426" height="8.7644" rx="1.30713" fill="#C8FFF4" fill-opacity="0.5" />
  <rect x="150.537" y="27.8748" width="2.61426" height="9.62549" rx="1.30713" fill="#C8FFF4" fill-opacity="0.5" />
  <rect x="156.558" y="29.1233" width="2.61426" height="8.37695" rx="1.30713" fill="#C8FFF4" fill-opacity="0.5" />
  <rect x="162.579" y="29.8982" width="2.61426" height="7.60205" rx="1.30713" fill="#C8FFF4" fill-opacity="0.5" />
  <rect x="168.6" y="26.6265" width="2.61426" height="10.8738" rx="1.30713" fill="#C8FFF4" fill-opacity="0.5" />
  <rect x="174.621" y="25.2488" width="2.61426" height="12.2515" rx="1.30713" fill="#C8FFF4" fill-opacity="0.5" />
  <rect x="180.642" y="25.2488" width="2.61426" height="12.2515" rx="1.30713" fill="#C8FFF4" fill-opacity="0.5" />
  <rect x="186.663" y="20.2979" width="2.61426" height="17.2024" rx="1.30713" fill="#C8FFF4" fill-opacity="0.5" />
  <rect x="192.684" y="17.5425" width="2.61426" height="19.9578" rx="1.30713" fill="#C8FFF4" fill-opacity="0.5" />
  <rect x="198.705" y="22.3213" width="2.61426" height="15.179" rx="1.30713" fill="#C8FFF4" fill-opacity="0.5" />
  <rect x="204.726" y="29.8982" width="2.61426" height="7.60205" rx="1.30713" fill="#C8FFF4" fill-opacity="0.5" />
  <rect x="210.747" y="30.5442" width="2.61426" height="6.95605" rx="1.30713" fill="#C8FFF4" fill-opacity="0.5" />
  <rect x="216.768" y="26.6265" width="2.61426" height="10.8738" rx="1.30713" fill="#C8FFF4" fill-opacity="0.5" />
  <rect x="222.789" y="30.5442" width="2.61426" height="6.95605" rx="1.30713" fill="#C8FFF4" fill-opacity="0.5" />
  <rect x="228.81" y="34.3757" width="2.61426" height="3.12451" rx="1.30713" fill="#C8FFF4" fill-opacity="0.5" />
  <rect x="234.831" y="31.1038" width="2.61426" height="6.39648" rx="1.30713" fill="#C8FFF4" fill-opacity="0.5" />
  <rect x="240.852" y="17.2412" width="2.61426" height="20.259" rx="1.30713" fill="#C8FFF4" fill-opacity="0.5" />
</svg>