<svg width="41" height="39" viewBox="0 0 41 39" fill="none" xmlns="http://www.w3.org/2000/svg">
<g filter="url(#filter0_dd_543_234)">
<path fill-rule="evenodd" clip-rule="evenodd" d="M18.9157 23.2217C22.5299 23.2217 24.5067 20.2735 24.5067 17.7171C24.5067 17.6332 24.5067 17.5499 24.5009 17.4669C24.8855 17.1935 25.2173 16.8539 25.4812 16.4654C25.123 16.622 24.7423 16.7246 24.353 16.7699C24.7629 16.528 25.0698 16.148 25.2169 15.6997C24.8309 15.925 24.409 16.0841 23.9689 16.1694C23.2247 15.3905 21.9801 15.3528 21.1885 16.0855C20.6785 16.5579 20.4616 17.2623 20.6201 17.9341C19.0402 17.8559 17.5682 17.1213 16.5702 15.9129C16.0487 16.7969 16.3154 17.9274 17.1788 18.4951C16.8661 18.4861 16.5601 18.4032 16.2867 18.2533V18.2779C16.2871 19.1987 16.9466 19.9915 17.8631 20.174C17.5739 20.2518 17.2703 20.2631 16.9763 20.2069C17.2334 20.9953 17.9714 21.5352 18.8118 21.5508C18.116 22.0892 17.2564 22.3816 16.3714 22.3806C16.2153 22.3801 16.0592 22.3712 15.9036 22.3528C16.8024 22.9205 17.8478 23.2217 18.9157 23.2203" fill="#E4FFEA"/>
</g>
<defs>
<filter id="filter0_dd_543_234" x="0.903564" y="0.559692" width="39.5776" height="37.662" filterUnits="userSpaceOnUse" color-interpolation-filters="sRGB">
<feFlood flood-opacity="0" result="BackgroundImageFix"/>
<feColorMatrix in="SourceAlpha" type="matrix" values="0 0 0 0 0 0 0 0 0 0 0 0 0 0 0 0 0 0 127 0" result="hardAlpha"/>
<feOffset/>
<feGaussianBlur stdDeviation="7.5"/>
<feComposite in2="hardAlpha" operator="out"/>
<feColorMatrix type="matrix" values="0 0 0 0 0.275 0 0 0 0 1 0 0 0 0 0.42 0 0 0 0.25 0"/>
<feBlend mode="normal" in2="BackgroundImageFix" result="effect1_dropShadow_543_234"/>
<feColorMatrix in="SourceAlpha" type="matrix" values="0 0 0 0 0 0 0 0 0 0 0 0 0 0 0 0 0 0 127 0" result="hardAlpha"/>
<feOffset/>
<feGaussianBlur stdDeviation="1"/>
<feComposite in2="hardAlpha" operator="out"/>
<feColorMatrix type="matrix" values="0 0 0 0 0.491667 0 0 0 0 1 0 0 0 0 0.593333 0 0 0 0.5 0"/>
<feBlend mode="normal" in2="effect1_dropShadow_543_234" result="effect2_dropShadow_543_234"/>
<feBlend mode="normal" in="SourceGraphic" in2="effect2_dropShadow_543_234" result="shape"/>
</filter>
</defs>
</svg>
