<svg width="9" height="7" viewBox="0 0 9 7" fill="none" xmlns="http://www.w3.org/2000/svg">
<g clip-path="url(#clip0_233_4898)">
<rect width="9" height="6" transform="translate(-0.000488281 0.926392)" fill="white"/>
<path fill-rule="evenodd" clip-rule="evenodd" d="M-0.000488281 0.926392H3.85665V3.72639H-0.000488281V0.926392Z" fill="#1A47B8"/>
<path fill-rule="evenodd" clip-rule="evenodd" d="M3.85665 0.926392V1.32639H8.99951V0.926392H3.85665ZM3.85665 1.72639V2.12639H8.99951V1.72639H3.85665ZM3.85665 2.52639V2.92639H8.99951V2.52639H3.85665ZM3.85665 3.32639V3.72639H8.99951V3.32639H3.85665ZM-0.000488281 4.12639V4.52639H8.99951V4.12639H-0.000488281ZM-0.000488281 4.92639V5.32639H8.99951V4.92639H-0.000488281ZM-0.000488281 5.72639V6.12639H8.99951V5.72639H-0.000488281ZM-0.000488281 6.52639V6.92639H8.99951V6.52639H-0.000488281Z" fill="#F93939"/>
<path fill-rule="evenodd" clip-rule="evenodd" d="M0.428101 1.32642V1.72642H0.856672V1.32642H0.428101ZM1.28524 1.32642V1.72642H1.71381V1.32642H1.28524ZM2.14239 1.32642V1.72642H2.57096V1.32642H2.14239ZM2.99953 1.32642V1.72642H3.4281V1.32642H2.99953ZM2.57096 1.72642V2.12642H2.99953V1.72642H2.57096ZM1.71381 1.72642V2.12642H2.14239V1.72642H1.71381ZM0.856672 1.72642V2.12642H1.28524V1.72642H0.856672ZM0.428101 2.12642V2.52642H0.856672V2.12642H0.428101ZM1.28524 2.12642V2.52642H1.71381V2.12642H1.28524ZM2.14239 2.12642V2.52642H2.57096V2.12642H2.14239ZM2.99953 2.12642V2.52642H3.4281V2.12642H2.99953ZM0.428101 2.92642V3.32642H0.856672V2.92642H0.428101ZM1.28524 2.92642V3.32642H1.71381V2.92642H1.28524ZM2.14239 2.92642V3.32642H2.57096V2.92642H2.14239ZM2.99953 2.92642V3.32642H3.4281V2.92642H2.99953ZM2.57096 2.52642V2.92642H2.99953V2.52642H2.57096ZM1.71381 2.52642V2.92642H2.14239V2.52642H1.71381ZM0.856672 2.52642V2.92642H1.28524V2.52642H0.856672Z" fill="white"/>
</g>
<defs>
<clipPath id="clip0_233_4898">
<rect width="9" height="6" fill="white" transform="translate(-0.000488281 0.926392)"/>
</clipPath>
</defs>
</svg>
