<svg width="9" height="9" viewBox="0 0 9 9" fill="none" xmlns="http://www.w3.org/2000/svg">
<path fill-rule="evenodd" clip-rule="evenodd" d="M7.40454 2.89408C7.79661 3.20116 8.04858 3.67894 8.04858 4.21558C8.04858 4.75223 7.79661 5.23003 7.40449 5.53713C7.46459 6.03149 7.30494 6.54751 6.92547 6.92698C6.546 7.30645 6.02997 7.46611 5.53561 7.406C5.22852 7.79808 4.75075 8.05005 4.21411 8.05005C3.67747 8.05005 3.19967 7.79808 2.8926 7.40595C2.39821 7.46611 1.88218 7.3064 1.50272 6.92693C1.12325 6.54751 0.963581 6.03149 1.0237 5.53708C0.63161 5.22999 0.379639 4.75221 0.379639 4.21558C0.379639 3.67893 0.631619 3.20114 1.02372 2.89406C0.9636 2.39967 1.12327 1.88365 1.50274 1.50418C1.8822 1.12472 2.39822 0.965046 2.89261 1.02516C3.19969 0.633075 3.67748 0.381104 4.21411 0.381104C4.75076 0.381104 5.22857 0.633092 5.53566 1.0252C6.03002 0.965084 6.54605 1.12476 6.92552 1.50422C7.30498 1.88368 7.46464 2.39969 7.40454 2.89408ZM6.23061 3.35623L5.55277 2.67838L3.7348 4.49635L2.87545 3.637L2.19761 4.31485L3.7348 5.85203L6.23061 3.35623Z" fill="#C8FFD3"/>
</svg>
