<svg width="33" height="28" viewBox="0 0 33 28" fill="none" xmlns="http://www.w3.org/2000/svg">
<g filter="url(#filter0_dd_233_4928)">
<path d="M20.2295 10.7654L19.2979 12.0544L19.7815 13.1522L20.6414 12.2326L20.2295 10.7654ZM22.3564 11.0746L19.641 13.9787L18.3948 11.1499L16.5375 14.4351L14.3889 11.1787L13.5652 13.9988L10.584 11.0958L11.5551 14.2489C11.6032 14.2403 11.6525 14.2355 11.7029 14.2355C12.1678 14.2355 12.5495 14.6174 12.5495 15.0822C12.5495 15.4238 12.3433 15.7203 12.0495 15.8536L12.1813 16.2819C12.4884 16.9112 13.9571 17.3976 16.5448 17.4484C19.2829 17.5021 20.9463 17.015 21.2363 16.2819L21.3439 15.7812C20.9279 15.729 20.6021 15.3707 20.6021 14.9414C20.6021 14.4766 20.9839 14.0948 21.4488 14.0948C21.5356 14.0948 21.6195 14.1081 21.6986 14.1328L22.3564 11.0746ZM12.6755 11.125L12.7056 12.5171L13.3372 13.1322L13.5742 12.3206L12.6755 11.125ZM16.3966 11.1969L15.7916 12.4661L16.5071 13.5505L17.1229 12.4612L16.3966 11.1969ZM21.4488 14.5566C21.2335 14.5566 21.0639 14.7262 21.0639 14.9414C21.0639 15.1567 21.2335 15.3263 21.4488 15.3263C21.664 15.3263 21.8336 15.1567 21.8336 14.9415C21.8336 14.7262 21.664 14.5566 21.4488 14.5566ZM11.7028 14.6974C11.4876 14.6974 11.318 14.867 11.318 15.0822C11.318 15.2975 11.4876 15.467 11.7029 15.467C11.9182 15.467 12.0877 15.2975 12.0877 15.0822C12.0877 14.867 11.9181 14.6974 11.7028 14.6974ZM14.9234 15.1383C15.3883 15.1383 15.77 15.5201 15.77 15.9849C15.77 16.4497 15.3883 16.8315 14.9234 16.8315C14.4585 16.8315 14.0768 16.4497 14.0768 15.9849C14.0768 15.5201 14.4586 15.1383 14.9234 15.1383ZM18.1663 15.1383C18.6312 15.1383 19.0129 15.5201 19.0129 15.9849C19.0129 16.4497 18.6312 16.8315 18.1663 16.8315C17.7014 16.8315 17.3197 16.4497 17.3197 15.9849C17.3197 15.5201 17.7015 15.1383 18.1663 15.1383Z" fill="#FFEC7E"/>
</g>
<defs>
<filter id="filter0_dd_233_4928" x="0.583984" y="0.765381" width="31.7725" height="26.687" filterUnits="userSpaceOnUse" color-interpolation-filters="sRGB">
<feFlood flood-opacity="0" result="BackgroundImageFix"/>
<feColorMatrix in="SourceAlpha" type="matrix" values="0 0 0 0 0 0 0 0 0 0 0 0 0 0 0 0 0 0 127 0" result="hardAlpha"/>
<feOffset/>
<feGaussianBlur stdDeviation="1"/>
<feComposite in2="hardAlpha" operator="out"/>
<feColorMatrix type="matrix" values="0 0 0 0 0.988235 0 0 0 0 0.651961 0 0 0 0 0.027451 0 0 0 0.37 0"/>
<feBlend mode="normal" in2="BackgroundImageFix" result="effect1_dropShadow_233_4928"/>
<feColorMatrix in="SourceAlpha" type="matrix" values="0 0 0 0 0 0 0 0 0 0 0 0 0 0 0 0 0 0 127 0" result="hardAlpha"/>
<feOffset/>
<feGaussianBlur stdDeviation="5"/>
<feComposite in2="hardAlpha" operator="out"/>
<feColorMatrix type="matrix" values="0 0 0 0 0.988235 0 0 0 0 0.395752 0 0 0 0 0.027451 0 0 0 0.5 0"/>
<feBlend mode="normal" in2="effect1_dropShadow_233_4928" result="effect2_dropShadow_233_4928"/>
<feBlend mode="normal" in="SourceGraphic" in2="effect2_dropShadow_233_4928" result="shape"/>
</filter>
</defs>
</svg>
