<svg width="26" height="20" viewBox="0 0 26 20" fill="none" xmlns="http://www.w3.org/2000/svg">
<path d="M7.22284 0.139221H0.955078V1.21531H7.22284V0.139221Z" fill="#C8FFF4" fill-opacity="0.75"/>
<path d="M7.22284 3.38638H0.955078V4.46247H7.22284V3.38638Z" fill="#C8FFF4" fill-opacity="0.75"/>
<path d="M7.22284 5.55744H0.955078V6.63353H7.22284V5.55744Z" fill="#C8FFF4" fill-opacity="0.75"/>
<path d="M7.22284 7.7285H0.955078V8.8046H7.22284V7.7285Z" fill="#C8FFF4" fill-opacity="0.75"/>
<path d="M13.4906 1.21531H7.22284V2.29141H13.4906V1.21531Z" fill="#C8FFF4" fill-opacity="0.75"/>
<path d="M13.4906 4.48135H7.22284V5.55744H13.4906V4.48135Z" fill="#C8FFF4" fill-opacity="0.75"/>
<path d="M19.7395 3.38638H13.4717V4.46247H19.7395V3.38638Z" fill="#C8FFF4" fill-opacity="0.75"/>
<path d="M19.7395 6.65241H13.4717V7.7285H19.7395V6.65241Z" fill="#C8FFF4" fill-opacity="0.75"/>
<path d="M26.0073 0.139221H19.7395V1.21531H26.0073V0.139221Z" fill="#C8FFF4" fill-opacity="0.75"/>
<path d="M26.0073 2.31028H19.7395V3.38638H26.0073V2.31028Z" fill="#C8FFF4" fill-opacity="0.75"/>
<path d="M26.0073 4.48135H19.7395V5.55744H26.0073V4.48135Z" fill="#C8FFF4" fill-opacity="0.75"/>
<path d="M26.0073 7.7285H19.7395V8.8046H26.0073V7.7285Z" fill="#C8FFF4" fill-opacity="0.75"/>
<path d="M1.25524 13.9486V9.8513C1.25524 9.80474 1.28435 9.77564 1.33091 9.77564H2.8674C3.49596 9.77564 4.18273 10.0783 4.18273 11.0269V12.773C4.18273 13.7216 3.49596 14.0243 2.8674 14.0243H1.33091C1.28435 14.0243 1.25524 13.9952 1.25524 13.9486ZM2.03513 13.3317H2.7801C3.28644 13.3317 3.40866 13.1105 3.40866 12.4238V11.3762C3.40866 10.6894 3.28644 10.4682 2.7801 10.4682H2.03513V13.3317Z" fill="#C8FFF4" fill-opacity="0.75"/>
<path d="M4.7836 9.83384H5.46455C5.49947 9.83384 5.53439 9.85712 5.54603 9.88622L6.25608 11.5973L6.96612 9.88622C6.97776 9.85712 7.01268 9.83384 7.0476 9.83384H7.72855C7.77511 9.83384 7.79257 9.86294 7.77511 9.90368L6.64602 12.4587V13.8904C6.64602 13.937 6.61692 13.9661 6.57036 13.9661H5.94179C5.89523 13.9661 5.86613 13.937 5.86613 13.8904V12.4587L4.73704 9.90368C4.71958 9.86294 4.73704 9.83384 4.7836 9.83384Z" fill="#C8FFF4" fill-opacity="0.75"/>
<path d="M8.53576 13.8904V9.9095C8.53576 9.86294 8.56486 9.83384 8.61142 9.83384H10.1945C10.9569 9.83384 11.4632 10.3402 11.4632 11.0677C11.4632 11.801 10.9569 12.3481 10.1945 12.3481H9.31565V13.8904C9.31565 13.937 9.28655 13.9661 9.23999 13.9661H8.61142C8.56486 13.9661 8.53576 13.937 8.53576 13.8904ZM9.31565 11.6613H10.1014C10.4389 11.6613 10.6892 11.4693 10.6892 11.091C10.6892 10.7127 10.4389 10.5264 10.1014 10.5264H9.31565V11.6613Z" fill="#C8FFF4" fill-opacity="0.75"/>
<path d="M12.2044 13.8904V9.9095C12.2044 9.86294 12.2335 9.83384 12.2801 9.83384H12.9087C12.9552 9.83384 12.9843 9.86294 12.9843 9.9095V11.5566H14.3229V9.9095C14.3229 9.86294 14.352 9.83384 14.3986 9.83384H15.0213C15.0679 9.83384 15.097 9.86294 15.097 9.9095V13.8904C15.097 13.937 15.0679 13.9661 15.0213 13.9661H14.3986C14.352 13.9661 14.3229 13.937 14.3229 13.8904V12.2433H12.9843V13.8904C12.9843 13.937 12.9552 13.9661 12.9087 13.9661H12.2801C12.2335 13.9661 12.2044 13.937 12.2044 13.8904Z" fill="#C8FFF4" fill-opacity="0.75"/>
<path d="M15.909 13.2735H16.7296V10.5264H15.909C15.8624 10.5264 15.8333 10.4973 15.8333 10.4508V9.9095C15.8333 9.86294 15.8624 9.83384 15.909 9.83384H18.3185C18.3651 9.83384 18.3942 9.86294 18.3942 9.9095V10.4508C18.3942 10.4973 18.3651 10.5264 18.3185 10.5264H17.5037V13.2735H18.3185C18.3651 13.2735 18.3942 13.3026 18.3942 13.3491V13.8904C18.3942 13.937 18.3651 13.9661 18.3185 13.9661H15.909C15.8624 13.9661 15.8333 13.937 15.8333 13.8904V13.3491C15.8333 13.3026 15.8624 13.2735 15.909 13.2735Z" fill="#C8FFF4" fill-opacity="0.75"/>
<path d="M19.1269 13.8904V9.9095C19.1269 9.86294 19.156 9.83384 19.2026 9.83384H20.7856C21.548 9.83384 22.0544 10.3402 22.0544 11.0677C22.0544 11.6148 21.775 12.0164 21.3094 12.1851L22.1417 13.9021C22.1591 13.9428 22.1475 13.9661 22.1009 13.9661H21.42C21.3851 13.9661 21.3443 13.9428 21.3269 13.9079L20.5353 12.2724H19.9068V13.8904C19.9068 13.937 19.8777 13.9661 19.8311 13.9661H19.2026C19.156 13.9661 19.1269 13.937 19.1269 13.8904ZM19.9068 11.6788H20.6925C21.0359 11.6788 21.2803 11.4809 21.2803 11.1026C21.2803 10.7243 21.0359 10.5264 20.6925 10.5264H19.9068V11.6788Z" fill="#C8FFF4" fill-opacity="0.75"/>
<path d="M22.8586 13.8962L24.0285 9.90368C24.0459 9.86294 24.075 9.83384 24.1216 9.83384H24.7385C24.7851 9.83384 24.8142 9.86294 24.8316 9.90368L26.0015 13.8962C26.0189 13.937 25.9956 13.9661 25.9491 13.9661H25.3031C25.2681 13.9661 25.2449 13.9486 25.2332 13.9137L25.0819 13.3608H23.7782L23.6269 13.9137C23.6152 13.9486 23.592 13.9661 23.557 13.9661H22.911C22.8645 13.9661 22.8412 13.937 22.8586 13.8962ZM23.9703 12.6682H24.8898L24.43 11.0444L23.9703 12.6682Z" fill="#C8FFF4" fill-opacity="0.75"/>
<path d="M3.57662 15.9803C3.39546 15.9389 3.235 15.9182 3.08489 15.9182C2.24118 15.9182 1.88921 16.5549 1.80121 17.2019C1.96685 16.8758 2.28259 16.6687 2.71739 16.6687C3.45757 16.6687 3.9493 17.2278 3.9493 18.0042C3.9493 18.7909 3.4524 19.3137 2.68115 19.3137C2.07037 19.3137 1.6304 18.9773 1.46994 18.439C1.18525 17.6056 1.25254 15.5403 3.08489 15.5403C3.235 15.5403 3.39546 15.5507 3.57145 15.5817C3.6025 15.5869 3.62321 15.6076 3.62321 15.6387V15.9441C3.62321 15.9751 3.6025 15.9907 3.57662 15.9803ZM1.85815 17.9938C1.85815 18.5373 2.18942 18.9152 2.69151 18.9152C3.18841 18.9152 3.51969 18.5425 3.51969 17.9938C3.51969 17.4451 3.18841 17.0725 2.69151 17.0725C2.18942 17.0725 1.85815 17.4451 1.85815 17.9938Z" fill="#C8FFF4" fill-opacity="0.75"/>
<path d="M4.76556 17.4659L4.8639 15.6904C4.8639 15.6594 4.88461 15.6387 4.91566 15.6387H6.99129C7.02235 15.6387 7.04305 15.6594 7.04305 15.6904V16.001C7.04305 16.0321 7.02235 16.0528 6.99129 16.0528H5.27799L5.22105 16.9741C5.39704 16.7826 5.62479 16.6687 5.94571 16.6687C6.71178 16.6687 7.22422 17.2019 7.22422 17.9938C7.22422 18.7858 6.71178 19.3137 5.94571 19.3137C5.35563 19.3137 4.92602 19.0032 4.76556 18.5011C4.76038 18.47 4.77591 18.4441 4.80696 18.4338L5.12788 18.3613C5.15377 18.351 5.17965 18.3665 5.19 18.3976C5.30905 18.7392 5.58338 18.941 5.95606 18.941C6.45815 18.941 6.77389 18.5632 6.77389 17.9938C6.77389 17.4244 6.45297 17.0311 5.95089 17.0311C5.62479 17.0311 5.37116 17.1967 5.24176 17.4659C5.22623 17.4969 5.20035 17.5176 5.16929 17.5176H4.81214C4.78108 17.5176 4.76556 17.4969 4.76556 17.4659Z" fill="#C8FFF4" fill-opacity="0.75"/>
<path d="M8.50923 18.8634H10.3985C10.4296 18.8634 10.4503 18.8841 10.4503 18.9152V19.2102C10.4503 19.2413 10.4296 19.262 10.3985 19.262H8.07961C8.04855 19.262 8.02267 19.2413 8.02267 19.2102C7.99162 17.5021 10.0103 17.559 10.0103 16.6066C10.0103 16.1977 9.68939 15.9337 9.23907 15.9337C8.84568 15.9337 8.53511 16.1822 8.50405 16.56C8.50405 16.5911 8.47817 16.6118 8.45229 16.6118H8.12102C8.08996 16.6118 8.06926 16.5911 8.07444 16.56C8.10032 15.9337 8.62311 15.5352 9.23907 15.5352C9.92231 15.5352 10.4399 15.9544 10.4399 16.6118C10.4399 17.8178 8.59205 17.7919 8.50923 18.8634Z" fill="#C8FFF4" fill-opacity="0.75"/>
<path d="M11.2501 18.1853V16.6636C11.2501 15.9855 11.7832 15.5352 12.4613 15.5352C13.1394 15.5352 13.6673 15.9855 13.6673 16.6636V18.1853C13.6673 18.8634 13.1394 19.3137 12.4613 19.3137C11.7832 19.3137 11.2501 18.8634 11.2501 18.1853ZM11.6797 18.1698C11.6797 18.2526 11.69 18.3251 11.7056 18.3924L13.0151 16.1304C12.8806 16.001 12.6839 15.9337 12.4613 15.9337C12.0213 15.9337 11.6797 16.1977 11.6797 16.6791V18.1698ZM13.217 16.5083L11.9178 18.734C12.0575 18.8531 12.2491 18.9152 12.4613 18.9152C12.8961 18.9152 13.2325 18.6512 13.2325 18.1698V16.6791C13.2325 16.617 13.2274 16.56 13.217 16.5083Z" fill="#C8FFF4" fill-opacity="0.75"/>
<path d="M14.2502 17.7661H15.7513C15.7823 17.7661 15.803 17.7868 15.803 17.8178V18.118C15.803 18.1491 15.7823 18.1698 15.7513 18.1698H14.2502C14.2191 18.1698 14.1984 18.1491 14.1984 18.118V17.8178C14.1984 17.7868 14.2191 17.7661 14.2502 17.7661Z" fill="#C8FFF4" fill-opacity="0.75"/>
<path d="M16.3504 19.2154L17.4219 15.6335C17.4271 15.6024 17.4529 15.5869 17.484 15.5869H17.8256C17.8567 15.5869 17.8826 15.6024 17.8877 15.6335L18.9592 19.2154C18.9644 19.2464 18.954 19.262 18.923 19.262H18.5606C18.5347 19.262 18.514 19.2464 18.5089 19.2206L18.3173 18.5787H16.9923L16.8007 19.2206C16.7956 19.2464 16.7749 19.262 16.749 19.262H16.3866C16.3556 19.262 16.3452 19.2464 16.3504 19.2154ZM17.101 18.1802H18.2086L17.6548 16.296L17.101 18.1802Z" fill="#C8FFF4" fill-opacity="0.75"/>
<path d="M22.1146 15.6387V18.1025H22.3682C22.3992 18.1025 22.42 18.1232 22.42 18.1543V18.4493C22.42 18.4804 22.3992 18.5011 22.3682 18.5011H22.1146V19.2102C22.1146 19.2413 22.0939 19.262 22.0628 19.262H21.716C21.6849 19.262 21.6642 19.2413 21.6642 19.2102V18.5011H19.8164C19.7853 18.5011 19.7646 18.4804 19.7646 18.4493V18.1439C19.7646 18.118 19.7698 18.087 19.7853 18.0663L21.6384 15.6232C21.6591 15.6024 21.6798 15.5869 21.7056 15.5869H22.0628C22.0939 15.5869 22.1146 15.6076 22.1146 15.6387ZM21.6642 16.2443L20.2822 18.1025H21.6642V16.2443Z" fill="#C8FFF4" fill-opacity="0.75"/>
<path d="M25.5694 15.6387V18.1025H25.8231C25.8541 18.1025 25.8748 18.1232 25.8748 18.1543V18.4493C25.8748 18.4804 25.8541 18.5011 25.8231 18.5011H25.5694V19.2102C25.5694 19.2413 25.5487 19.262 25.5177 19.262H25.1709C25.1398 19.262 25.1191 19.2413 25.1191 19.2102V18.5011H23.2712C23.2402 18.5011 23.2195 18.4804 23.2195 18.4493V18.1439C23.2195 18.118 23.2246 18.087 23.2402 18.0663L25.0932 15.6232C25.1139 15.6024 25.1346 15.5869 25.1605 15.5869H25.5177C25.5487 15.5869 25.5694 15.6076 25.5694 15.6387ZM25.1191 16.2443L23.7371 18.1025H25.1191V16.2443Z" fill="#C8FFF4" fill-opacity="0.75"/>
</svg>
